{
.appVersion = "3151";
.formatVersion = 3;
classes = (
{
code = "zero one two three four five six seven eight nine A B C D E F G H I J K L M N O P Q R S T U V W X Y Z uni0410 uni0411 uni0412 uni0413 uni0414 uni0415 uni0416 uni0417 uni0418 uni0419 uni041A uni041B uni041C uni041D uni041E uni041F uni0420 uni0421 uni0422 uni0423 uni0424 uni0425 uni0426 uni0427 uni0428 uni0429 uni042A uni042B uni042C uni042D uni042E uni042F uni0401 K_alt W_alt Acircumflex Adieresis Ccedilla Ecircumflex Icircumflex Odieresis Udieresis Abreve Idotaccent Scedilla uni0162 uni0218 uni021A uni04C1";
name = calt1;
},
{
code = "o a c d e g q s u y t acircumflex adieresis ccedilla ecircumflex odieresis udieresis u_alt y_alt s_alt c_alt t_alt t2.alt g_alt a_alt abreve scedilla uni0163 uni0219 uni021B uni0430 uni0431 uni0435 uni0437 uni043E uni0441 uni0444 uni044D uni0451 space zero one three five six seven eight nine f v endash emdash uni00AD hyphen.uc uni00AD.uc endash.uc emdash.uc minus hyphen t0163.alt t021b.alt a2_alt a00E2.alt a00E4.alt a0103.alt";
name = calt2;
},
{
code = "uniE000 uniE001 uniE002 uniE003 uniE004 uniE005 uniE006 uniE007 uniE008 uniE009 uniE010 uniE011 uniE012 uniE013 uniE014 uniE015 uniE016 uniE017 uniE018 uniE019 uniE020 uniE021 uniE022";
name = tnum1;
},
{
code = "zero one two three four five six seven eight nine period comma colon semicolon quotesingle quotedbl quoteright quotedblright quoteleft quotedblleft quotesinglbase quotedblbase colon.uc";
name = pnum1;
}
);
customParameters = (
{
name = glyphOrder;
value = (
.notdef,
uni0000,
uni000D,
space,
B,
D,
E,
F,
H,
I,
L,
M,
N,
P,
R,
U,
V,
W,
X,
Y,
Z,
b,
d,
h,
i,
l,
m,
n,
p,
q,
u,
v,
w,
x,
z,
period,
comma,
A,
breve,
circumflex,
uni0326,
abreve,
acircumflex,
Abreve,
Acircumflex,
Icircumflex,
exclam,
quotedbl,
quotesingle,
numbersign,
percent,
asterisk,
plus,
slash,
colon,
semicolon,
less,
equal,
greater,
at,
bracketleft,
bracketright,
backslash,
asciicircum,
underscore,
braceleft,
bar,
braceright,
Euro,
quotedblbase,

glyphs = (
{
glyphname = .notdef;
layers = (
{
layerId = "ED8FB365-A02F-46D3-A65B-595A86BAB06C";
shapes = (
{
closed = 1;
nodes = (
(20,960,l),
(520,960,l),
(520,-295,l),
(20,-295,l)
);
},
{
closed = 1;
nodes = (
(30,-285,l),
(510,-285,l),
(510,950,l),
(30,950,l)
);
}
);
width = 540;
}
);
},
{
glyphname = B;
kernLeft = _kern1;
layers = (
{
layerId = "ED8FB365-A02F-46D3-A65B-595A86BAB06C";
shapes = (
{
closed = 1;
nodes = (
(91,707,l),
(335,707,ls),
(457,707,o),
(565,680,o),
(565,533,cs),
(565,453,o),
(525,396,o),
(450,372,c),
(546,356,o),
(603,293,o),
(603,194,cs),
(603,38,o),
(460,0,o),
(329,0,cs),
(91,0,l)
);
},
{
closed = 1;
nodes = (
(156,647,l),
(156,391,l),
(314,391,ls),
(404,391,o),
(503,422,o),
(503,529,cs),
(503,633,o),
(421,647,o),
(336,647,cs)
);
},
{
closed = 1;
nodes = (
(326,60,ls),
(422,60,o),
(537,72,o),
(537,196,cs),
(537,304,o),
(448,331,o),
(356,331,cs),
(156,331,l),
(156,60,l)
);
}
);
width = 657;
}
);
unicode = 66;
},
{
glyphname = D;
kernLeft = _kern1;
kernRight = _kern4;
layers = (
{
layerId = "ED8FB365-A02F-46D3-A65B-595A86BAB06C";
shapes = (
{
closed = 1;
nodes = (
(92,707,l),
(339,707,ls),
(558,707,o),
(670,565,o),
(670,353,cs),
(670,145,o),
(555,0,o),
(339,0,cs),
(92,0,l)
);
},
{
closed = 1;
nodes = (
(157,648,l),
(157,59,l),
(332,59,ls),
(512,59,o),
(603,180,o),
(603,353,cs),
(603,521,o),
(518,648,o),
(338,648,cs)
);
}
);
width = 724;
}
);
unicode = 68;
},
{
glyphname = E;
kernLeft = _kern1;
layers = (
{
layerId = "ED8FB365-A02F-46D3-A65B-595A86BAB06C";
shapes = (
{
closed = 1;
nodes = (
(92,707,l),
(557,707,l),
(557,647,l),
(157,647,l),
(157,381,l),
(517,381,l),
(517,321,l),
(157,321,l),
(157,60,l),
(557,60,l),
(557,0,l),
(92,0,l)
);
}
);
width = 610;
}
);
unicode = 69;
},
{
glyphname = F;
kernLeft = _kern1;
layers = (
{
layerId = "ED8FB365-A02F-46D3-A65B-595A86BAB06C";
shapes = (
{
closed = 1;
nodes = (
(92,0,l),
(92,707,l),
(557,707,l),
(557,647,l),
(157,647,l),
(157,358,l),
(499,358,l),
(499,298,l),
(157,298,l),
(157,0,l)
);
}
);
width = 599;
}
);
unicode = 70;
},
{
glyphname = H;
kernLeft = _kern1;
kernRight = _kern2;
layers = (
{
layerId = "ED8FB365-A02F-46D3-A65B-595A86BAB06C";
shapes = (
{
closed = 1;
nodes = (
(573,377,l),
(573,707,l),
(638,707,l),
(638,0,l),
(573,0,l),
(573,317,l),
(157,317,l),
(157,0,l),
(92,0,l),
(92,707,l),
(157,707,l),
(157,377,l)
);
}
);
width = 730;
}
);
unicode = 72;
},
{
glyphname = I;
kernLeft = _kern1;
kernRight = _kern2;
layers = (
{
layerId = "ED8FB365-A02F-46D3-A65B-595A86BAB06C";
shapes = (
{
closed = 1;
nodes = (
(157,0,l),
(92,0,l),
(92,707,l),
(157,707,l)
);
}
);
width = 249;
}
);
unicode = 73;
},
{
glyphname = L;
layers = (
{
layerId = "ED8FB365-A02F-46D3-A65B-595A86BAB06C";
shapes = (
{
closed = 1;
nodes = (
(92,0,l),
(92,707,l),
(157,707,l),
(157,60,l),
(557,60,l),
(557,0,l)
);
}
);
width = 602;
}
);
unicode = 76;
},
{
glyphname = M;
kernLeft = _kern1;
kernRight = _kern2;
layers = (
{
layerId = "ED8FB365-A02F-46D3-A65B-595A86BAB06C";
shapes = (
{
closed = 1;
nodes = (
(744,707,l),
(744,0,l),
(679,0,l),
(679,646,l),
(435,188,l),
(404,188,l),
(157,646,l),
(157,0,l),
(92,0,l),
(92,707,l),
(197,707,l),
(422,292,l),
(643,707,l)
);
}
);
width = 836;
}
);
unicode = 77;
},
{
glyphname = N;
kernLeft = _kern1;
kernRight = _kern2;
layers = (
{
layerId = "ED8FB365-A02F-46D3-A65B-595A86BAB06C";
shapes = (
{
closed = 1;
nodes = (
(92,0,l),
(92,707,l),
(193,707,l),
(591,64,l),
(591,707,l),
(656,707,l),
(656,0,l),
(557,0,l),
(157,641,l),
(157,0,l)
);
}
);
width = 748;
}
);
unicode = 78;
},
{
glyphname = P;
kernLeft = _kern1;
layers = (
{
layerId = "ED8FB365-A02F-46D3-A65B-595A86BAB06C";
shapes = (
{
closed = 1;
nodes = (
(92,707,l),
(332,707,ls),
(485,707,o),
(577,635,o),
(577,476,cs),
(577,316,o),
(461,241,o),
(312,241,cs),
(157,241,l),
(157,0,l),
(92,0,l)
);
},
{
closed = 1;
nodes = (
(310,301,ls),
(430,301,o),
(510,354,o),
(510,480,cs),
(510,600,o),
(440,647,o),
(327,647,cs),
(157,647,l),
(157,301,l)
);
}
);
width = 631;
}
);
unicode = 80;
},
{
glyphname = R;
kernLeft = _kern1;
layers = (
{
layerId = "ED8FB365-A02F-46D3-A65B-595A86BAB06C";
shapes = (
{
closed = 1;
nodes = (
(157,276,l),
(157,0,l),
(92,0,l),
(92,707,l),
(353,707,ls),
(501,707,o),
(602,650,o),
(602,490,cs),
(602,382,o),
(544,314,o),
(439,287,c),
(593,0,l),
(521,0,l),
(372,276,l)
);
},
{
closed = 1;
nodes = (
(330,336,ls),
(438,336,o),
(535,362,o),
(535,493,cs),
(535,616,o),
(453,647,o),
(344,647,cs),
(157,647,l),
(157,336,l)
);
}
);
width = 660;
}
);
unicode = 82;
},
{
glyphname = U;
layers = (
{
layerId = "ED8FB365-A02F-46D3-A65B-595A86BAB06C";
shapes = (
{
closed = 1;
nodes = (
(635,707,l),
(635,301,ls),
(635,121,o),
(554,-8,o),
(361,-8,cs),
(168,-8,o),
(87,121,o),
(87,301,cs),
(87,707,l),
(152,707,l),
(152,305,ls),
(152,163,o),
(207,51,o),
(362,51,cs),
(518,51,o),
(570,165,o),
(570,305,cs),
(570,707,l)
);
}
);
width = 722;
}
);
unicode = 85;
},
{
glyphname = V;
layers = (
{
layerId = "ED8FB365-A02F-46D3-A65B-595A86BAB06C";
shapes = (
{
closed = 1;
nodes = (
(333,60,l),
(571,707,l),
(644,707,l),
(378,0,l),
(286,0,l),
(19,707,l),
(93,707,l)
);
}
);
width = 663;
}
);
unicode = 86;
},
{
glyphname = W;
kernLeft = _kern19;
kernRight = _kern19;
layers = (
{
layerId = "ED8FB365-A02F-46D3-A65B-595A86BAB06C";
shapes = (
{
closed = 1;
nodes = (
(211,0,l),
(19,707,l),
(94,707,l),
(262,60,l),
(425,707,l),
(530,707,l),
(692,60,l),
(860,707,l),
(934,707,l),
(742,0,l),
(641,0,l),
(476,648,l),
(313,0,l)
);
}
);
width = 953;
}
);
unicode = 87;
},
{
glyphname = X;
layers = (
{
layerId = "ED8FB365-A02F-46D3-A65B-595A86BAB06C";
shapes = (
{
closed = 1;
nodes = (
(472,707,l),
(553,707,l),
(333,357,l),
(562,0,l),
(481,0,l),
(290,303,l),
(98,0,l),
(19,0,l),
(247,354,l),
(26,707,l),
(108,707,l),
(290,407,l)
);
}
);
width = 581;
}
);
unicode = 88;
},
{
glyphname = Y;
kernLeft = _kern31;
kernRight = _kern31;
layers = (
{
layerId = "ED8FB365-A02F-46D3-A65B-595A86BAB06C";
shapes = (
{
closed = 1;
nodes = (
(509,707,l),
(584,707,l),
(335,267,l),
(335,0,l),
(270,0,l),
(270,267,l),
(19,707,l),
(96,707,l),
(304,334,l)
);
}
);
width = 603;
}
);
unicode = 89;
},
{
glyphname = Z;
layers = (
{
layerId = "ED8FB365-A02F-46D3-A65B-595A86BAB06C";
shapes = (
{
closed = 1;
nodes = (
(63,647,l),
(63,707,l),
(550,707,l),
(550,651,l),
(127,60,l),
(545,60,l),
(545,0,l),
(49,0,l),
(49,57,l),
(466,647,l)
);
}
);
width = 599;
}
);
unicode = 90;
},
{
glyphname = b;
kernRight = _kern6;
layers = (
{
layerId = "ED8FB365-A02F-46D3-A65B-595A86BAB06C";
shapes = (
{
closed = 1;
nodes = (
(136,0,l),
(72,0,l),
(72,707,l),
(138,707,l),
(138,441,l),
(181,506,o),
(251,536,o),
(331,536,cs),
(497,536,o),
(560,406,o),
(560,256,cs),
(560,165,o),
(530,86,o),
(470,41,cs),
(434,13,o),
(383,-5,o),
(323,-5,cs),
(257,-5,o),
(180,14,o),
(137,78,c)
);
},
{
closed = 1;
nodes = (
(443,50,o),
(494,149,o),
(494,262,cs),
(494,378,o),
(447,477,o),
(317,477,cs),
(260,477,o),
(210,448,o),
(179,407,cs),
(148,368,o),
(136,317,o),
(136,262,cs),
(136,197,o),
(155,126,o),
(210,85,cs),
(241,62,o),
(278,50,o),
(319,50,cs)
);
}
);
width = 613;
}
);
unicode = 98;
},
{
glyphname = d;
kernLeft = _kern5;
layers = (
{
layerId = "ED8FB365-A02F-46D3-A65B-595A86BAB06C";
shapes = (
{
closed = 1;
nodes = (
(475,707,l),
(541,707,l),
(541,0,l),
(475,0,l),
(475,83,l),
(431,23,o),
(362,-6,o),
(282,-6,cs),
(123,-6,o),
(53,118,o),
(53,268,cs),
(53,414,o),
(142,533,o),
(295,533,cs),
(365,533,o),
(435,510,o),
(475,449,c)
);
},
{
closed = 1;
nodes = (
(170,477,o),
(119,376,o),
(119,265,cs),
(119,149,o),
(166,50,o),
(296,50,cs),
(417,50,o),
(477,156,o),
(477,265,cs),
(477,380,o),
(416,477,o),
(294,477,cs)
);
}
);
width = 613;
}
);
unicode = 100;
},
{
glyphname = h;
layers = (
{
layerId = "ED8FB365-A02F-46D3-A65B-595A86BAB06C";
shapes = (
{
closed = 1;
nodes = (
(72,0,l),
(72,707,l),
(138,707,l),
(138,439,l),
(179,508,o),
(249,533,o),
(326,533,cs),
(473,533,o),
(529,427,o),
(529,292,cs),
(529,0,l),
(463,0,l),
(463,268,ls),
(463,371,o),
(444,477,o),
(319,477,cs),
(198,477,o),
(138,375,o),
(138,265,cs),
(138,0,l)
);
}
);
width = 598;
}
);
unicode = 104;
},
{
glyphname = i;
layers = (
{
layerId = "ED8FB365-A02F-46D3-A65B-595A86BAB06C";
shapes = (
{
closed = 1;
nodes = (
(142,717,o),
(163,698,o),
(163,669,cs),
(163,638,o),
(142,620,o),
(113,620,cs),
(84,620,o),
(64,638,o),
(64,669,cs),
(64,700,o),
(84,717,o),
(113,717,cs)
);
},
{
closed = 1;
nodes = (
(80,527,l),
(146,527,l),
(146,0,l),
(80,0,l)
);
}
);
width = 227;
}
);
unicode = 105;
},
{
glyphname = l;
layers = (
{
layerId = "ED8FB365-A02F-46D3-A65B-595A86BAB06C";
shapes = (
{
closed = 1;
nodes = (
(72,0,l),
(72,707,l),
(138,707,l),
(138,0,l)
);
}
);
width = 210;
}
);
unicode = 108;
},
{
glyphname = m;
layers = (
{
layerId = "ED8FB365-A02F-46D3-A65B-595A86BAB06C";
shapes = (
{
closed = 1;
nodes = (
(137,457,l),
(173,510,o),
(229,533,o),
(293,533,cs),
(361,532,o),
(418,499,o),
(435,435,c),
(460,505,o),
(529,533,o),
(601,533,cs),
(714,533,o),
(767,460,o),
(767,348,cs),
(767,0,l),
(701,0,l),
(701,306,ls),
(701,382,o),
(693,476,o),
(593,476,cs),
(553,476,o),
(522,462,o),
(500,438,cs),
(463,400,o),
(452,340,o),
(452,285,cs),
(452,0,l),
(386,0,l),
(386,305,ls),
(386,386,o),
(377,477,o),
(276,476,cs),
(225,476,o),
(184,445,o),
(161,401,cs),
(141,362,o),
(138,318,o),
(138,270,cs),
(138,0,l),
(72,0,l),
(72,527,l),
(135,527,l)
);
}
);
width = 834;
}
);
unicode = 109;
},
{
glyphname = n;
layers = (
{
layerId = "ED8FB365-A02F-46D3-A65B-595A86BAB06C";
shapes = (
{
closed = 1;
nodes = (
(72,0,l),
(72,527,l),
(136,527,l),
(138,437,l),
(179,506,o),
(251,533,o),
(328,533,cs),
(476,533,o),
(529,427,o),
(529,292,cs),
(529,0,l),
(463,0,l),
(463,268,ls),
(463,371,o),
(444,477,o),
(319,477,cs),
(199,477,o),
(138,374,o),
(138,265,cs),
(138,0,l)
);
}
);
width = 598;
}
);
unicode = 110;
},
{
glyphname = p;
kernRight = _kern6;
layers = (
{
layerId = "ED8FB365-A02F-46D3-A65B-595A86BAB06C";
shapes = (
{
closed = 1;
nodes = (
(138,-197,l),
(72,-197,l),
(72,527,l),
(138,527,l),
(138,437,l),
(181,504,o),
(253,533,o),
(331,533,cs),
(497,533,o),
(560,401,o),
(560,251,cs),
(560,99,o),
(477,-6,o),
(323,-6,cs),
(261,-6,o),
(181,11,o),
(138,76,c)
);
},
{
closed = 1;
nodes = (
(443,50,o),
(494,149,o),
(494,262,cs),
(494,378,o),
(447,477,o),
(317,477,cs),
(197,477,o),
(136,368,o),
(136,261,cs),
(136,142,o),
(194,50,o),
(319,50,cs)
);
}
);
width = 613;
}
);
unicode = 112;
},
{
glyphname = q;
kernLeft = _kern5;
layers = (
{
layerId = "ED8FB365-A02F-46D3-A65B-595A86BAB06C";
shapes = (
{
closed = 1;
nodes = (
(479,527,l),
(541,527,l),
(541,-197,l),
(475,-197,l),
(475,82,l),
(434,21,o),
(354,-6,o),
(282,-6,cs),
(117,-6,o),
(49,127,o),
(53,277,cs),
(57,423,o),
(143,533,o),
(294,533,cs),
(365,533,o),
(433,510,o),
(475,449,c)
);
},
{
closed = 1;
nodes = (
(171,477,o),
(119,376,o),
(119,265,cs),
(119,149,o),
(166,50,o),
(296,50,cs),
(355,50,o),
(403,79,o),
(434,119,cs),
(465,159,o),
(477,210,o),
(477,265,cs),
(477,382,o),
(419,477,o),
(295,477,cs)
);
}
);
width = 613;
}
);
unicode = 113;
},
{
glyphname = u;
layers = (
{
layerId = "ED8FB365-A02F-46D3-A65B-595A86BAB06C";
shapes = (
{
closed = 1;
nodes = (
(403,50,o),
(442,125,o),
(442,231,cs),
(442,527,l),
(508,527,l),
(508,229,ls),
(508,80,o),
(443,-6,o),
(288,-6,cs),
(137,-6,o),
(70,80,o),
(70,229,cs),
(70,527,l),
(136,527,l),
(136,231,ls),
(136,130,o),
(176,50,o),
(288,50,cs)
);
}
);
width = 578;
}
);
unicode = 117;
},
{
glyphname = v;
layers = (
{
layerId = "ED8FB365-A02F-46D3-A65B-595A86BAB06C";
shapes = (
{
closed = 1;
nodes = (
(12,527,l),
(87,527,l),
(262,55,l),
(436,527,l),
(512,527,l),
(308,0,l),
(215,0,l)
);
}
);
width = 524;
}
);
unicode = 118;
},
{
glyphname = w;
kernLeft = _kern20;
kernRight = _kern20;
layers = (
{
layerId = "ED8FB365-A02F-46D3-A65B-595A86BAB06C";
shapes = (
{
closed = 1;
nodes = (
(596,55,l),
(727,527,l),
(802,527,l),
(642,0,l),
(549,0,l),
(411,474,l),
(273,0,l),
(179,0,l),
(17,527,l),
(92,527,l),
(226,55,l),
(360,527,l),
(462,527,l)
);
}
);
width = 819;
}
);
unicode = 119;
},
{
glyphname = x;
layers = (
{
layerId = "ED8FB365-A02F-46D3-A65B-595A86BAB06C";
shapes = (
{
closed = 1;
nodes = (
(251,219,l),
(97,0,l),
(19,0,l),
(209,267,l),
(28,527,l),
(111,527,l),
(255,312,l),
(396,527,l),
(476,527,l),
(297,266,l),
(489,0,l),
(407,0,l)
);
}
);
width = 508;
}
);
unicode = 120;
},
{
glyphname = z;
layers = (
{
layerId = "ED8FB365-A02F-46D3-A65B-595A86BAB06C";
shapes = (
{
closed = 1;
nodes = (
(472,468,l),
(127,55,l),
(472,55,l),
(472,0,l),
(52,0,l),
(52,60,l),
(394,472,l),
(57,472,l),
(57,527,l),
(472,527,l)
);
}
);
width = 524;
}
);
unicode = 122;
},
{
glyphname = period;
kernLeft = _kern14;
kernRight = _kern14;
layers = (
{
layerId = "ED8FB365-A02F-46D3-A65B-595A86BAB06C";
shapes = (
{
closed = 1;
nodes = (
(154,94,o),
(173,73,o),
(173,44,cs),
(173,15,o),
(154,-8,o),
(123,-8,cs),
(92,-8,o),
(72,15,o),
(72,44,cs),
(72,73,o),
(92,94,o),
(123,94,cs)
);
}
);
width = 245;
}
);
unicode = 46;
},
{
glyphname = comma;
kernLeft = _kern14;
kernRight = _kern14;
layers = (
{
layerId = "ED8FB365-A02F-46D3-A65B-595A86BAB06C";
shapes = (
{
closed = 1;
nodes = (
(164,93,o),
(179,63,o),
(179,27,cs),
(179,-33,o),
(145,-95,o),
(88,-119,c),
(72,-93,l),
(101,-74,o),
(121,-47,o),
(128,-8,c),
(93,-11,o),
(74,11,o),
(74,44,cs),
(74,73,o),
(94,94,o),
(125,94,cs)
);
}
);
width = 252;
}
);
unicode = 44;
},
{
glyphname = A;
kernLeft = _kern30;
kernRight = _kern30;
layers = (
{
layerId = "ED8FB365-A02F-46D3-A65B-595A86BAB06C";
shapes = (
{
closed = 1;
nodes = (
(146,157,l),
(88,0,l),
(15,0,l),
(279,707,l),
(370,707,l),
(633,0,l),
(560,0,l),
(502,157,l)
);
},
{
closed = 1;
nodes = (
(168,217,l),
(481,217,l),
(324,646,l)
);
}
);
width = 648;
}
);
unicode = 65;
},
{
glyphname = breve;
layers = (
{
layerId = "ED8FB365-A02F-46D3-A65B-595A86BAB06C";
shapes = (
{
closed = 1;
nodes = (
(337,668,o),
(378,681,o),
(386,740,c),
(446,740,l),
(438,647,o),
(367,618,o),
(285,618,cs),
(201,618,o),
(134,647,o),
(126,740,c),
(186,740,l),
(194,681,o),
(234,668,o),
(286,668,cs)
);
}
);
width = 572;
}
);
unicode = 728;
},
{
glyphname = circumflex;
layers = (
{
layerId = "ED8FB365-A02F-46D3-A65B-595A86BAB06C";
shapes = (
{
closed = 1;
nodes = (
(264,721,l),
(186,628,l),
(121,628,l),
(244,769,l),
(285,769,l),
(408,628,l),
(344,628,l)
);
}
);
width = 529;
}
);
unicode = 710;
},
{
glyphname = uni0326;
layers = (
{
layerId = "ED8FB365-A02F-46D3-A65B-595A86BAB06C";
shapes = (
{
closed = 1;
nodes = (
(-255,-91,o),
(-237,-120,o),
(-237,-160,cs),
(-237,-217,o),
(-272,-280,o),
(-329,-304,c),
(-345,-278,l),
(-316,-259,o),
(-296,-232,o),
(-289,-193,c),
(-322,-196,o),
(-343,-174,o),
(-343,-142,cs),
(-343,-113,o),
(-322,-91,o),
(-291,-91,cs)
);
}
);
width = 0;
}
);
unicode = 806;
},
{
glyphname = abreve;
kernLeft = _kern27;
kernRight = _kern27;
layers = (
{
layerId = "ED8FB365-A02F-46D3-A65B-595A86BAB06C";
shapes = (
{
closed = 1;
nodes = (
(329,668,o),
(382,680,o),
(390,740,c),
(451,740,l),
(443,647,o),
(363,617,o),
(281,617,cs),
(197,617,o),
(123,647,o),
(115,740,c),
(176,740,l),
(184,680,o),
(237,668,o),
(283,668,cs)
);
},
{
closed = 1;
nodes = (
(430,76,l),
(379,13,o),
(314,-6,o),
(237,-6,cs),
(144,-6,o),
(54,42,o),
(54,145,cs),
(54,265,o),
(151,301,o),
(254,301,cs),
(427,301,l),
(427,397,o),
(390,477,o),
(283,477,cs),
(232,477,o),
(177,463,o),
(152,414,c),
(82,414,l),
(106,501,o),
(199,533,o),
(285,533,cs),
(441,533,o),
(493,425,o),
(493,286,cs),
(493,0,l),
(439,0,l)
);
},
{
closed = 1;
nodes = (
(288,248,ls),
(219,248,o),
(120,244,o),
(120,152,cs),
(120,81,o),
(181,49,o),
(245,49,cs),
(350,49,o),
(427,103,o),
(427,212,cs),
(427,248,l)
);
}
);
width = 563;
}
);
unicode = 259;
},
{
glyphname = acircumflex;
kernLeft = _kern27;
kernRight = _kern27;
layers = (
{
layerId = "ED8FB365-A02F-46D3-A65B-595A86BAB06C";
shapes = (
{
closed = 1;
nodes = (
(288,720,l),
(210,623,l),
(145,623,l),
(268,769,l),
(309,769,l),
(432,623,l),
(370,623,l)
);
},
{
closed = 1;
nodes = (
(430,76,l),
(379,13,o),
(314,-6,o),
(237,-6,cs),
(144,-6,o),
(54,42,o),
(54,145,cs),
(54,265,o),
(151,301,o),
(254,301,cs),
(427,301,l),
(427,397,o),
(390,477,o),
(283,477,cs),
(232,477,o),
(177,463,o),
(152,414,c),
(82,414,l),
(106,501,o),
(199,533,o),
(285,533,cs),
(441,533,o),
(493,425,o),
(493,286,cs),
(493,0,l),
(439,0,l)
);
},
{
closed = 1;
nodes = (
(288,248,ls),
(219,248,o),
(120,244,o),
(120,152,cs),
(120,81,o),
(181,49,o),
(245,49,cs),
(350,49,o),
(427,103,o),
(427,212,cs),
(427,248,l)
);
}
);
width = 563;
}
);
unicode = 226;
},
{
glyphname = Abreve;
layers = (
{
layerId = "ED8FB365-A02F-46D3-A65B-595A86BAB06C";
shapes = (
{
closed = 1;
nodes = (
(372,855,o),
(425,867,o),
(433,927,c),
(494,927,l),
(486,834,o),
(406,804,o),
(324,804,cs),
(240,804,o),
(166,834,o),
(158,927,c),
(219,927,l),
(227,867,o),
(280,855,o),
(326,855,cs)
);
},
{
closed = 1;
nodes = (
(146,157,l),
(88,0,l),
(15,0,l),
(279,707,l),
(370,707,l),
(633,0,l),
(560,0,l),
(502,157,l)
);
},
{
closed = 1;
nodes = (
(168,217,l),
(481,217,l),
(324,646,l)
);
}
);
width = 648;
}
);
unicode = 258;
},
{
glyphname = Acircumflex;
kernLeft = _kern30;
kernRight = _kern30;
layers = (
{
layerId = "ED8FB365-A02F-46D3-A65B-595A86BAB06C";
shapes = (
{
closed = 1;
nodes = (
(146,157,l),
(88,0,l),
(15,0,l),
(279,707,l),
(370,707,l),
(633,0,l),
(560,0,l),
(502,157,l)
);
},
{
closed = 1;
nodes = (
(168,217,l),
(481,217,l),
(324,646,l)
);
},
{
closed = 1;
nodes = (
(325,879,l),
(247,786,l),
(182,786,l),
(305,927,l),
(346,927,l),
(469,786,l),
(405,786,l)
);
}
);
width = 648;
}
);
unicode = 194;
},
{
glyphname = Icircumflex;
kernLeft = _kern1;
kernRight = _kern2;
layers = (
{
layerId = "ED8FB365-A02F-46D3-A65B-595A86BAB06C";
shapes = (
{
closed = 1;
nodes = (
(79,897,l),
(0,800,l),
(-64,800,l),
(59,946,l),
(100,946,l),
(223,800,l),
(161,800,l)
);
},
{
closed = 1;
nodes = (
(111,0,l),
(46,0,l),
(46,707,l),
(111,707,l)
);
}
);
width = 159;
}
);
unicode = 206;
},
{
glyphname = exclam;
layers = (
{
layerId = "ED8FB365-A02F-46D3-A65B-595A86BAB06C";
shapes = (
{
closed = 1;
nodes = (
(160,93,o),
(181,71,o),
(181,43,cs),
(181,14,o),
(161,-8,o),
(132,-8,cs),
(101,-8,o),
(82,12,o),
(82,43,cs),
(82,74,o),
(101,93,o),
(132,93,cs)
);
},
{
closed = 1;
nodes = (
(102,195,l),
(100,707,l),
(164,707,l),
(162,195,l)
);
}
);
width = 263;
}
);
unicode = 33;
},
{
glyphname = quotedbl;
layers = (
{
layerId = "ED8FB365-A02F-46D3-A65B-595A86BAB06C";
shapes = (
{
closed = 1;
nodes = (
(120,486,l),
(74,486,l),
(64,707,l),
(129,707,l)
);
},
{
closed = 1;
nodes = (
(262,486,l),
(216,486,l),
(206,707,l),
(271,707,l)
);
}
);
width = 335;
}
);
unicode = 34;
},
{
glyphname = quotesingle;
layers = (
{
layerId = "ED8FB365-A02F-46D3-A65B-595A86BAB06C";
shapes = (
{
closed = 1;
nodes = (
(127,486,l),
(81,486,l),
(72,707,l),
(137,707,l)
);
}
);
width = 209;
}
);
unicode = 39;
},
{
glyphname = numbersign;
layers = (
{
layerId = "ED8FB365-A02F-46D3-A65B-595A86BAB06C";
shapes = (
{
closed = 1;
nodes = (
(64,245,l),
(171,245,l),
(194,463,l),
(94,463,l),
(94,521,l),
(200,521,l),
(220,707,l),
(283,707,l),
(263,521,l),
(429,521,l),
(448,707,l),
(511,707,l),
(491,521,l),
(591,521,l),
(591,463,l),
(484,463,l),
(461,245,l),
(561,245,l),
(561,187,l),
(455,187,l),
(435,0,l),
(373,0,l),
(392,187,l),
(227,187,l),
(207,0,l),
(145,0,l),
(164,187,l),
(64,187,l)
);
},
{
closed = 1;
nodes = (
(233,245,l),
(400,245,l),
(422,463,l),
(256,463,l)
);
}
);
width = 655;
}
);
unicode = 35;
},
{
glyphname = percent;
layers = (
{
layerId = "ED8FB365-A02F-46D3-A65B-595A86BAB06C";
shapes = (
{
closed = 1;
nodes = (
(149,0,l),
(584,707,l),
(659,707,l),
(225,0,l)
);
},
{
closed = 1;
nodes = (
(114,415,o),
(64,480,o),
(64,565,cs),
(64,650,o),
(112,715,o),
(203,715,cs),
(294,715,o),
(339,647,o),
(339,565,cs),
(339,482,o),
(292,415,o),
(203,415,cs)
);
},
{
closed = 1;
nodes = (
(143,658,o),
(121,612,o),
(121,565,cs),
(121,518,o),
(143,471,o),
(203,471,cs),
(263,471,o),
(280,521,o),
(280,565,cs),
(280,608,o),
(263,658,o),
(203,658,cs)
);
},
{
closed = 1;
nodes = (
(520,-8,o),
(470,57,o),
(470,142,cs),
(470,227,o),
(518,292,o),
(609,292,cs),
(700,292,o),
(745,224,o),
(745,142,cs),
(745,59,o),
(698,-8,o),
(609,-8,cs)
);
},
{
closed = 1;
nodes = (
(549,235,o),
(527,189,o),
(527,142,cs),
(527,95,o),
(549,48,o),
(609,48,cs),
(669,48,o),
(686,98,o),
(686,142,cs),
(686,185,o),
(669,235,o),
(609,235,cs)
);
}
);
width = 809;
}
);
unicode = 37;
},
{
glyphname = asterisk;
layers = (
{
layerId = "ED8FB365-A02F-46D3-A65B-595A86BAB06C";
shapes = (
{
closed = 1;
nodes = (
(236,637,l),
(331,668,l),
(349,619,l),
(252,587,l),
(312,506,l),
(271,476,l),
(211,558,l),
(151,476,l),
(110,506,l),
(170,587,l),
(74,619,l),
(89,668,l),
(186,637,l),
(186,738,l),
(236,738,l)
);
}
);
width = 423;
}
);
unicode = 42;
},
{
glyphname = plus;
layers = (
{
layerId = "ED8FB365-A02F-46D3-A65B-595A86BAB06C";
shapes = (
{
closed = 1;
nodes = (
(290,542,l),
(290,385,l),
(439,385,l),
(439,325,l),
(290,325,l),
(290,165,l),
(225,165,l),
(225,325,l),
(79,325,l),
(79,385,l),
(225,385,l),
(225,542,l)
);
}
);
width = 518;
}
);
unicode = 43;
},
{
glyphname = slash;
layers = (
{
layerId = "ED8FB365-A02F-46D3-A65B-595A86BAB06C";
shapes = (
{
closed = 1;
nodes = (
(356,804,l),
(426,804,l),
(114,-173,l),
(44,-173,l)
);
}
);
width = 470;
}
);
unicode = 47;
},
{
glyphname = colon;
kernLeft = _kern15;
layers = (
{
layerId = "ED8FB365-A02F-46D3-A65B-595A86BAB06C";
shapes = (
{
closed = 1;
nodes = (
(154,459,o),
(173,437,o),
(173,408,cs),
(173,379,o),
(154,356,o),
(123,356,cs),
(92,356,o),
(72,379,o),
(72,408,cs),
(72,437,o),
(92,459,o),
(123,459,cs)
);
},
{
closed = 1;
nodes = (
(154,94,o),
(173,73,o),
(173,44,cs),
(173,15,o),
(154,-8,o),
(123,-8,cs),
(92,-8,o),
(72,15,o),
(72,44,cs),
(72,73,o),
(92,94,o),
(123,94,cs)
);
}
);
width = 245;
}
);
unicode = 58;
},
{
glyphname = semicolon;
kernLeft = _kern15;
layers = (
{
layerId = "ED8FB365-A02F-46D3-A65B-595A86BAB06C";
shapes = (
{
closed = 1;
nodes = (
(158,459,o),
(178,437,o),
(178,408,cs),
(178,379,o),
(159,356,o),
(127,356,cs),
(96,356,o),
(77,379,o),
(77,408,cs),
(77,437,o),
(96,459,o),
(127,459,cs)
);
},
{
closed = 1;
nodes = (
(165,93,o),
(179,63,o),
(179,27,cs),
(179,-33,o),
(145,-95,o),
(88,-119,c),
(72,-93,l),
(101,-74,o),
(121,-47,o),
(128,-8,c),
(93,-11,o),
(74,11,o),
(74,44,cs),
(74,73,o),
(95,94,o),
(126,94,cs)
);
}
);
width = 252;
}
);
unicode = 59;
},
{
glyphname = less;
layers = (
{
layerId = "ED8FB365-A02F-46D3-A65B-595A86BAB06C";
shapes = (
{
closed = 1;
nodes = (
(44,367,l),
(367,590,l),
(367,519,l),
(114,353,l),
(367,182,l),
(367,111,l),
(44,333,l)
);
}
);
width = 441;
}
);
unicode = 60;
},
{
glyphname = equal;
layers = (
{
layerId = "ED8FB365-A02F-46D3-A65B-595A86BAB06C";
shapes = (
{
closed = 1;
nodes = (
(74,251,l),
(465,251,l),
(465,191,l),
(74,191,l)
);
},
{
closed = 1;
nodes = (
(74,507,l),
(465,507,l),
(465,447,l),
(74,447,l)
);
}
);
width = 539;
}
);
unicode = 61;
},
{
glyphname = greater;
layers = (
{
layerId = "ED8FB365-A02F-46D3-A65B-595A86BAB06C";
shapes = (
{
closed = 1;
nodes = (
(397,333,l),
(74,111,l),
(74,182,l),
(327,350,l),
(74,519,l),
(74,590,l),
(397,367,l)
);
}
);
width = 441;
}
);
unicode = 62;
},
{
glyphname = at;
layers = (
{
layerId = "ED8FB365-A02F-46D3-A65B-595A86BAB06C";
shapes = (
{
closed = 1;
nodes = (
(593,68,o),
(533,39,o),
(468,39,cs),
(352,40,o),
(300,128,o),
(300,235,cs),
(300,360,o),
(369,479,o),
(507,479,cs),
(558,479,o),
(615,458,o),
(636,407,c),
(644,462,l),
(702,462,l),
(697,417,o),
(688,362,o),
(684,317,cs),
(681,276,o),
(676,236,o),
(676,193,cs),
(676,141,o),
(689,86,o),
(752,86,cs),
(833,86,o),
(860,182,o),
(860,274,cs),
(861,482,o),
(757,656,o),
(528,656,cs),
(281,656,o),
(144,468,o),
(144,236,cs),
(144,22,o),
(279,-117,o),
(502,-125,cs),
(535,-126,o),
(565,-124,o),
(597,-117,c),
(603,-178,l),
(566,-185,o),
(531,-186,o),
(492,-185,cs),
(240,-182,o),
(76,-17,o),
(76,230,cs),
(76,510,o),
(240,715,o),
(529,715,cs),
(778,715,o),
(921,535,o),
(921,296,cs),
(921,170,o),
(879,34,o),
(747,34,cs),
(684,34,o),
(637,67,o),
(630,131,c)
);
},
{
closed = 1;
nodes = (
(360,163,o),
(396,91,o),
(479,91,cs),
(567,91,o),
(626,189,o),
(626,270,cs),
(626,347,o),
(593,423,o),
(504,423,cs),
(404,423,o),
(360,325,o),
(360,237,cs)
);
}
);
width = 995;
}
);
unicode = 64;
},
{
glyphname = bracketleft;
layers = (
{
layerId = "ED8FB365-A02F-46D3-A65B-595A86BAB06C";
shapes = (
{
closed = 1;
nodes = (
(92,-191,l),
(92,793,l),
(277,793,l),
(277,737,l),
(157,737,l),
(157,-135,l),
(277,-135,l),
(277,-191,l)
);
}
);
width = 317;
}
);
unicode = 91;
},
{
glyphname = bracketright;
layers = (
{
layerId = "ED8FB365-A02F-46D3-A65B-595A86BAB06C";
shapes = (
{
closed = 1;
nodes = (
(224,793,l),
(224,-191,l),
(40,-191,l),
(40,-135,l),
(159,-135,l),
(159,737,l),
(40,737,l),
(40,793,l)
);
}
);
width = 316;
}
);
unicode = 93;
},
{
glyphname = backslash;
layers = (
{
layerId = "ED8FB365-A02F-46D3-A65B-595A86BAB06C";
shapes = (
{
closed = 1;
nodes = (
(114,804,l),
(426,-173,l),
(356,-173,l),
(44,804,l)
);
}
);
width = 470;
}
);
unicode = 92;
},
{
glyphname = asciicircum;
layers = (
{
layerId = "ED8FB365-A02F-46D3-A65B-595A86BAB06C";
shapes = (
{
closed = 1;
nodes = (
(216,663,l),
(126,528,l),
(64,528,l),
(195,715,l),
(238,715,l),
(369,528,l),
(308,528,l)
);
}
);
width = 433;
}
);
unicode = 94;
},
{
glyphname = underscore;
layers = (
{
layerId = "ED8FB365-A02F-46D3-A65B-595A86BAB06C";
shapes = (
{
closed = 1;
nodes = (
(2,-122,l),
(461,-122,l),
(461,-182,l),
(2,-182,l)
);
}
);
width = 463;
}
);
unicode = 95;
},
{
glyphname = braceleft;
layers = (
{
layerId = "ED8FB365-A02F-46D3-A65B-595A86BAB06C";
shapes = (
{
closed = 1;
nodes = (
(204,-61,ls),
(204,-96,o),
(206,-112,o),
(219,-125,c),
(232,-140,o),
(255,-140,o),
(291,-140,cs),
(320,-140,l),
(320,-191,l),
(252,-191,ls),
(215,-191,o),
(188,-184,o),
(171,-169,cs),
(152,-152,o),
(143,-126,o),
(143,-91,cs),
(143,134,ls),
(143,208,o),
(129,273,o),
(42,278,c),
(42,324,l),
(126,329,o),
(143,396,o),
(143,469,cs),
(143,694,ls),
(143,729,o),
(152,755,o),
(170,771,cs),
(189,787,o),
(216,793,o),
(252,793,cs),
(320,793,l),
(320,742,l),
(280,742,ls),
(257,742,o),
(232,744,o),
(217,727,cs),
(202,710,o),
(204,673,o),
(204,652,cs),
(204,440,ls),
(204,376,o),
(181,330,o),
(121,302,c),
(184,273,o),
(204,229,o),
(204,162,cs)
);
}
);
width = 384;
}
);
unicode = 123;
},
{
glyphname = bar;
layers = (
{
layerId = "ED8FB365-A02F-46D3-A65B-595A86BAB06C";
shapes = (
{
closed = 1;
nodes = (
(92,-173,l),
(92,804,l),
(157,804,l),
(157,-173,l)
);
}
);
width = 249;
}
);
unicode = 124;
},
{
glyphname = braceright;
layers = (
{
layerId = "ED8FB365-A02F-46D3-A65B-595A86BAB06C";
shapes = (
{
closed = 1;
nodes = (
(180,663,ls),
(180,696,o),
(177,714,o),
(165,727,cs),
(150,742,o),
(129,742,o),
(92,742,cs),
(64,742,l),
(64,793,l),
(132,793,ls),
(169,793,o),
(195,786,o),
(212,771,cs),
(231,755,o),
(241,729,o),
(241,693,cs),
(241,468,ls),
(241,394,o),
(254,329,o),
(342,324,c),
(342,278,l),
(258,273,o),
(241,206,o),
(241,133,cs),
(241,-92,ls),
(241,-129,o),
(231,-155,o),
(212,-170,cs),
(194,-184,o),
(167,-191,o),
(132,-191,cs),
(64,-191,l),
(64,-140,l),
(104,-140,ls),
(127,-140,o),
(154,-141,o),
(167,-125,cs),
(182,-106,o),
(180,-89,o),
(180,-54,cs),
(180,162,ls),
(180,226,o),
(203,272,o),
(263,300,c),
(200,329,o),
(180,373,o),
(180,440,cs)
);
}
);
width = 384;
}
);
unicode = 125;
},
{
glyphname = Euro;
layers = (
{
layerId = "ED8FB365-A02F-46D3-A65B-595A86BAB06C";
shapes = (
{
closed = 1;
nodes = (
(279,-8,o),
(183,83,o),
(154,232,c),
(54,232,l),
(63,292,l),
(149,292,l),
(145,335,o),
(146,375,o),
(151,418,c),
(54,418,l),
(64,478,l),
(159,478,l),
(193,621,o),
(285,715,o),
(437,715,cs),
(506,715,o),
(564,698,o),
(616,658,c),
(584,607,l),
(537,643,o),
(493,656,o),
(434,656,cs),
(323,656,o),
(250,581,o),
(224,478,c),
(505,478,l),
(496,418,l),
(214,418,l),
(209,379,o),
(206,331,o),
(213,292,c),
(472,292,l),
(463,232,l),
(222,232,l),
(245,120,o),
(326,51,o),
(443,51,cs),
(503,51,o),
(547,64,o),
(594,103,c),
(628,56,l),
(577,9,o),
(506,-8,o),
(438,-8,cs)
);
}
);
width = 682;
}
);
unicode = 8364;
},
{
glyphname = quotedblbase;
kernLeft = _kern14;
kernRight = _kern14;
layers = (
{
layerId = "ED8FB365-A02F-46D3-A65B-595A86BAB06C";
shapes = (
{
closed = 1;
nodes = (
(161,94,o),
(179,61,o),
(179,29,cs),
(179,-34,o),
(145,-95,o),
(88,-119,c),
(72,-93,l),
(101,-74,o),
(121,-47,o),
(128,-8,c),
(93,-11,o),
(74,11,o),
(74,44,cs),
(74,73,o),
(97,94,o),
(126,94,cs)
);
},
{
closed = 1;
nodes = (
(344,94,o),
(362,61,o),
(362,29,cs),
(362,-34,o),
(328,-95,o),
(271,-119,c),
(255,-93,l),
(284,-74,o),
(304,-47,o),
(311,-8,c),
(276,-11,o),
(257,11,o),
(257,44,cs),
(257,73,o),
(280,94,o),
(309,94,cs)
);
}
);
width = 436;
}
);
unicode = 8222;
},
{
glyphname = quotesinglbase;
layers = (
{
layerId = "ED8FB365-A02F-46D3-A65B-595A86BAB06C";
shapes = (
{
closed = 1;
nodes = (
(161,94,o),
(179,61,o),
(179,29,cs),
(179,-34,o),
(145,-95,o),
(88,-119,c),
(72,-93,l),
(101,-74,o),
(121,-47,o),
(128,-8,c),
(93,-11,o),
(74,11,o),
(74,44,cs),
(74,73,o),
(97,94,o),
(126,94,cs)
);
}
);
width = 253;
}
);
unicode = 8218;
},
{
glyphname = quotedblright;
layers = (
{
layerId = "ED8FB365-A02F-46D3-A65B-595A86BAB06C";
shapes = (
{
closed = 1;
nodes = (
(165,731,o),
(179,698,o),
(179,665,cs),
(179,605,o),
(145,543,o),
(88,518,c),
(72,544,l),
(101,564,o),
(121,591,o),
(128,630,c),
(93,627,o),
(74,649,o),
(74,681,cs),
(74,710,o),
(95,732,o),
(126,732,cs)
);
},
{
closed = 1;
nodes = (
(349,731,o),
(363,698,o),
(363,665,cs),
(363,605,o),
(328,543,o),
(272,518,c),
(256,544,l),
(284,564,o),
(305,591,o),
(312,630,c),
(277,627,o),
(257,649,o),
(257,681,cs),
(257,710,o),
(279,732,o),
(310,732,cs)
);
}
);
width = 437;
}
);
unicode = 8221;
},
{
glyphname = quoteright;
layers = (
{
layerId = "ED8FB365-A02F-46D3-A65B-595A86BAB06C";
shapes = (
{
closed = 1;
nodes = (
(165,731,o),
(179,696,o),
(179,665,cs),
(179,605,o),
(145,543,o),
(88,518,c),
(72,544,l),
(101,564,o),
(121,591,o),
(128,630,c),
(93,627,o),
(74,649,o),
(74,681,cs),
(74,710,o),
(95,732,o),
(126,732,cs)
);
}
);
width = 253;
}
);
unicode = 8217;
},
{
glyphname = quotedblleft;
layers = (
{
layerId = "ED8FB365-A02F-46D3-A65B-595A86BAB06C";
shapes = (
{
closed = 1;
nodes = (
(272,527,o),
(258,561,o),
(258,594,cs),
(258,653,o),
(294,716,o),
(349,740,c),
(365,714,l),
(336,695,o),
(316,668,o),
(309,629,c),
(344,632,o),
(363,610,o),
(363,578,cs),
(363,549,o),
(342,527,o),
(311,527,cs)
);
},
{
closed = 1;
nodes = (
(88,527,o),
(74,561,o),
(74,594,cs),
(74,653,o),
(110,716,o),
(165,740,c),
(181,714,l),
(153,695,o),
(133,668,o),
(126,629,c),
(159,632,o),
(180,610,o),
(180,578,cs),
(180,549,o),
(158,527,o),
(127,527,cs)
);
}
);
width = 437;
}
);
unicode = 8220;
},
{
glyphname = quoteleft;
layers = (
{
layerId = "ED8FB365-A02F-46D3-A65B-595A86BAB06C";
shapes = (
{
closed = 1;
nodes = (
(89,527,o),
(74,559,o),
(74,594,cs),
(74,653,o),
(110,716,o),
(165,740,c),
(181,714,l),
(153,695,o),
(133,668,o),
(126,629,c),
(159,632,o),
(180,610,o),
(180,578,cs),
(180,549,o),
(159,527,o),
(128,527,cs)
);
}
);
width = 253;
}
);
unicode = 8216;
},
{
glyphname = minus;
layers = (
{
layerId = "ED8FB365-A02F-46D3-A65B-595A86BAB06C";
shapes = (
{
closed = 1;
nodes = (
(439,385,l),
(439,325,l),
(79,325,l),
(79,385,l)
);
}
);
width = 518;
}
);
unicode = 8722;
},
{
glyphname = hyphen;
layers = (
{
layerId = "ED8FB365-A02F-46D3-A65B-595A86BAB06C";
shapes = (
{
closed = 1;
nodes = (
(79,311,l),
(374,311,l),
(374,251,l),
(79,251,l)
);
}
);
width = 453;
}
);
unicode = 45;
},
{
glyphname = endash;
layers = (
{
layerId = "ED8FB365-A02F-46D3-A65B-595A86BAB06C";
shapes = (
{
closed = 1;
nodes = (
(497,251,l),
(79,251,l),
(79,311,l),
(497,311,l)
);
}
);
width = 576;
}
);
unicode = 8211;
},
{
glyphname = emdash;
layers = (
{
layerId = "ED8FB365-A02F-46D3-A65B-595A86BAB06C";
shapes = (
{
closed = 1;
nodes = (
(684,251,l),
(79,251,l),
(79,311,l),
(684,311,l)
);
}
);
width = 763;
}
);
unicode = 8212;
},
{
glyphname = grave;
layers = (
{
layerId = "ED8FB365-A02F-46D3-A65B-595A86BAB06C";
shapes = (
{
closed = 1;
nodes = (
(122,769,l),
(206,628,l),
(151,628,l),
(54,769,l)
);
}
);
width = 320;
}
);
unicode = 96;
},
{
glyphname = acute;
layers = (
{
layerId = "ED8FB365-A02F-46D3-A65B-595A86BAB06C";
shapes = (
{
closed = 1;
nodes = (
(200,769,l),
(268,769,l),
(169,628,l),
(114,628,l)
);
}
);
width = 322;
}
);
unicode = 180;
},
{
glyphname = guillemotright;
layers = (
{
layerId = "ED8FB365-A02F-46D3-A65B-595A86BAB06C";
shapes = (
{
closed = 1;
nodes = (
(64,429,l),
(129,429,l),
(241,262,l),
(129,93,l),
(64,93,l),
(175,261,l)
);
},
{
closed = 1;
nodes = (
(245,429,l),
(310,429,l),
(422,262,l),
(310,93,l),
(245,93,l),
(356,261,l)
);
}
);
width = 466;
}
);
unicode = 187;
},
{
glyphname = guilsinglright;
layers = (
{
layerId = "ED8FB365-A02F-46D3-A65B-595A86BAB06C";
shapes = (
{
closed = 1;
nodes = (
(64,429,l),
(129,429,l),
(241,262,l),
(129,93,l),
(64,93,l),
(175,261,l)
);
}
);
width = 285;
}
);
unicode = 8250;
},
{
glyphname = guillemotleft;
layers = (
{
layerId = "ED8FB365-A02F-46D3-A65B-595A86BAB06C";
shapes = (
{
closed = 1;
nodes = (
(402,93,l),
(337,93,l),
(225,260,l),
(337,429,l),
(402,429,l),
(291,261,l)
);
},
{
closed = 1;
nodes = (
(221,93,l),
(156,93,l),
(44,260,l),
(156,429,l),
(221,429,l),
(110,261,l)
);
}
);
width = 466;
}
);
unicode = 171;
},
{
glyphname = guilsinglleft;
layers = (
{
layerId = "ED8FB365-A02F-46D3-A65B-595A86BAB06C";
shapes = (
{
closed = 1;
nodes = (
(221,93,l),
(156,93,l),
(44,260,l),
(156,429,l),
(221,429,l),
(110,261,l)
);
}
);
width = 285;
}
);
unicode = 8249;
},
{
glyphname = uni00AD;
layers = (
{
layerId = "ED8FB365-A02F-46D3-A65B-595A86BAB06C";
shapes = (
{
closed = 1;
nodes = (
(79,311,l),
(374,311,l),
(374,251,l),
(79,251,l)
);
}
);
width = 453;
}
);
unicode = 173;
},
{
glyphname = ellipsis;
layers = (
{
layerId = "ED8FB365-A02F-46D3-A65B-595A86BAB06C";
shapes = (
{
closed = 1;
nodes = (
(143,94,o),
(163,73,o),
(163,44,cs),
(163,15,o),
(144,-8,o),
(112,-8,cs),
(81,-8,o),
(62,15,o),
(62,44,cs),
(62,73,o),
(81,94,o),
(112,94,cs)
);
},
{
closed = 1;
nodes = (
(619,94,o),
(638,73,o),
(638,44,cs),
(638,15,o),
(619,-8,o),
(588,-8,cs),
(556,-8,o),
(537,15,o),
(537,44,cs),
(537,73,o),
(557,94,o),
(588,94,cs)
);
},
{
closed = 1;
nodes = (
(381,94,o),
(401,73,o),
(401,44,cs),
(401,15,o),
(381,-8,o),
(350,-8,cs),
(319,-8,o),
(300,15,o),
(300,44,cs),
(300,73,o),
(319,94,o),
(350,94,cs)
);
}
);
width = 700;
}
);
unicode = 8230;
},
{
glyphname = uni0445;
layers = (
{
layerId = "ED8FB365-A02F-46D3-A65B-595A86BAB06C";
shapes = (
{
closed = 1;
nodes = (
(251,219,l),
(97,0,l),
(19,0,l),
(209,267,l),
(28,527,l),
(111,527,l),
(255,312,l),
(396,527,l),
(476,527,l),
(297,266,l),
(489,0,l),
(407,0,l)
);
}
);
width = 508;
}
);
unicode = 1093;
},
{
glyphname = uni0431;
kernRight = _kern10;
layers = (
{
layerId = "ED8FB365-A02F-46D3-A65B-595A86BAB06C";
shapes = (
{
closed = 1;
nodes = (
(150,450,o),
(223,485,o),
(306,485,cs),
(448,485,o),
(527,383,o),
(527,247,cs),
(527,102,o),
(437,-6,o),
(288,-6,cs),
(144,-6,o),
(73,86,o),
(57,222,cs),
(52,265,o),
(49,307,o),
(49,350,cs),
(49,423,o),
(56,481,o),
(68,524,cs),
(81,568,o),
(101,604,o),
(132,631,cs),
(164,660,o),
(202,678,o),
(246,687,cs),
(293,697,o),
(362,705,o),
(431,712,cs),
(447,714,o),
(469,716,o),
(509,724,c),
(509,662,l),
(482,655,o),
(454,653,o),
(427,650,cs),
(384,646,o),
(337,643,o),
(294,636,cs),
(233,627,o),
(178,609,o),
(145,552,cs),
(114,497,o),
(109,437,o),
(110,377,c)
);
},
{
closed = 1;
nodes = (
(402,49,o),
(461,139,o),
(461,244,cs),
(461,350,o),
(402,429,o),
(294,429,cs),
(193,429,o),
(120,340,o),
(120,242,cs),
(120,137,o),
(177,49,o),
(290,49,cs)
);
}
);
width = 575;
}
);
unicode = 1073;
},
{
glyphname = uni0432;
kernLeft = _kern11;
layers = (
{
layerId = "ED8FB365-A02F-46D3-A65B-595A86BAB06C";
shapes = (
{
closed = 1;
nodes = (
(72,527,l),
(274,527,ls),
(355,527,o),
(463,511,o),
(464,403,cs),
(464,352,o),
(443,307,o),
(392,282,c),
(456,269,o),
(496,228,o),
(496,152,cs),
(496,93,o),
(471,54,o),
(432,29,cs),
(400,9,o),
(355,0,o),
(311,0,cs),
(72,0,l)
);
},
{
closed = 1;
nodes = (
(138,472,l),
(138,297,l),
(272,297,ls),
(299,297,o),
(340,302,o),
(365,319,cs),
(386,332,o),
(401,354,o),
(401,387,cs),
(401,463,o),
(332,472,o),
(271,472,cs)
);
},
{
closed = 1;
nodes = (
(138,55,l),
(294,55,ls),
(354,55,o),
(430,69,o),
(430,145,cs),
(430,235,o),
(349,242,o),
(280,242,cs),
(138,242,l)
);
}
);
width = 550;
}
);
unicode = 1074;
},
{
glyphname = uni0433;
kernLeft = _kern11;
kernRight = _kern24;
layers = (
{
layerId = "ED8FB365-A02F-46D3-A65B-595A86BAB06C";
shapes = (
{
closed = 1;
nodes = (
(72,0,l),
(72,527,l),
(429,527,l),
(429,472,l),
(138,472,l),
(138,0,l)
);
}
);
width = 457;
}
);
unicode = 1075;
},
{
glyphname = uni0434;
kernRight = _kern13;
layers = (
{
layerId = "ED8FB365-A02F-46D3-A65B-595A86BAB06C";
shapes = (
{
closed = 1;
nodes = (
(505,527,l),
(505,55,l),
(577,55,l),
(577,-168,l),
(514,-168,l),
(514,0,l),
(89,0,l),
(89,-168,l),
(27,-168,l),
(27,54,l),
(75,57,o),
(99,109,o),
(112,148,cs),
(131,208,o),
(136,284,o),
(137,340,cs),
(138,403,o),
(140,466,o),
(139,527,c)
);
},
{
closed = 1;
nodes = (
(439,472,l),
(202,472,l),
(201,425,o),
(200,369,o),
(199,322,cs),
(198,262,o),
(195,201,o),
(178,142,cs),
(167,103,o),
(148,72,o),
(132,55,c),
(439,55,l)
);
}
);
width = 604;
}
);
unicode = 1076;
},
{
glyphname = uni0436;
layers = (
{
layerId = "ED8FB365-A02F-46D3-A65B-595A86BAB06C";
shapes = (
{
closed = 1;
nodes = (
(342,0,l),
(342,237,l),
(239,237,l),
(94,0,l),
(19,0,l),
(189,277,l),
(34,527,l),
(107,527,l),
(249,292,l),
(342,292,l),
(342,527,l),
(408,527,l),
(408,292,l),
(501,292,l),
(643,527,l),
(716,527,l),
(561,277,l),
(732,0,l),
(657,0,l),
(511,237,l),
(408,237,l),
(408,0,l)
);
}
);
width = 751;
}
);
unicode = 1078;
},
{
glyphname = uni043A;
kernLeft = _kern11;
layers = (
{
layerId = "ED8FB365-A02F-46D3-A65B-595A86BAB06C";
shapes = (
{
closed = 1;
nodes = (
(72,0,l),
(72,527,l),
(138,527,l),
(138,291,l),
(251,291,l),
(414,527,l),
(487,527,l),
(310,274,l),
(504,0,l),
(428,0,l),
(258,236,l),
(138,236,l),
(138,0,l)
);
}
);
width = 516;
}
);
unicode = 1082;
},
{
glyphname = uni0438;
kernLeft = _kern11;
layers = (
{
layerId = "ED8FB365-A02F-46D3-A65B-595A86BAB06C";
shapes = (
{
closed = 1;
nodes = (
(164,0,l),
(72,0,l),
(72,527,l),
(138,527,l),
(138,73,l),
(427,527,l),
(518,527,l),
(518,0,l),
(452,0,l),
(452,450,l)
);
}
);
width = 590;
}
);
unicode = 1080;
},
{
glyphname = uni0439;
layers = (
{
layerId = "ED8FB365-A02F-46D3-A65B-595A86BAB06C";
shapes = (
{
closed = 1;
nodes = (
(342,656,o),
(395,668,o),
(403,728,c),
(464,728,l),
(456,635,o),
(376,605,o),
(294,605,cs),
(210,605,o),
(136,635,o),
(128,728,c),
(189,728,l),
(197,668,o),
(250,656,o),
(296,656,cs)
);
},
{
closed = 1;
nodes = (
(164,0,l),
(72,0,l),
(72,527,l),
(138,527,l),
(138,73,l),
(427,527,l),
(518,527,l),
(518,0,l),
(452,0,l),
(452,450,l),
(165,0,l)
);
}
);
width = 590;
}
);
unicode = 1081;
},
{
glyphname = uni043B;
layers = (
{
layerId = "ED8FB365-A02F-46D3-A65B-595A86BAB06C";
shapes = (
{
closed = 1;
nodes = (
(496,527,l),
(496,0,l),
(430,0,l),
(430,472,l),
(202,472,l),
(199,396,o),
(197,323,o),
(193,247,cs),
(189,179,o),
(184,86,o),
(133,35,cs),
(101,3,o),
(68,-4,o),
(24,-4,c),
(24,58,l),
(64,61,o),
(90,82,o),
(104,117,cs),
(122,160,o),
(126,217,o),
(128,253,cs),
(134,345,o),
(135,435,o),
(138,527,c)
);
}
);
width = 568;
}
);
unicode = 1083;
},
{
glyphname = uni043C;
kernLeft = _kern11;
layers = (
{
layerId = "ED8FB365-A02F-46D3-A65B-595A86BAB06C";
shapes = (
{
closed = 1;
nodes = (
(72,527,l),
(177,527,l),
(351,241,l),
(521,527,l),
(624,527,l),
(624,0,l),
(558,0,l),
(558,466,l),
(362,134,l),
(336,134,l),
(138,465,l),
(138,0,l),
(72,0,l)
);
}
);
width = 696;
}
);
unicode = 1084;
},
{
glyphname = uni043D;
kernLeft = _kern11;
layers = (
{
layerId = "ED8FB365-A02F-46D3-A65B-595A86BAB06C";
shapes = (
{
closed = 1;
nodes = (
(72,0,l),
(72,527,l),
(138,527,l),
(138,286,l),
(436,286,l),
(436,527,l),
(502,527,l),
(502,0,l),
(436,0,l),
(436,231,l),
(138,231,l),
(138,0,l)
);
}
);
width = 574;
}
);
unicode = 1085;
},
{
glyphname = uni043F;
kernLeft = _kern11;
layers = (
{
layerId = "ED8FB365-A02F-46D3-A65B-595A86BAB06C";
shapes = (
{
closed = 1;
nodes = (
(72,0,l),
(72,527,l),
(505,527,l),
(505,0,l),
(439,0,l),
(439,472,l),
(138,472,l),
(138,0,l)
);
}
);
width = 577;
}
);
unicode = 1087;
},
{
glyphname = uni0442;
layers = (
{
layerId = "ED8FB365-A02F-46D3-A65B-595A86BAB06C";
shapes = (
{
closed = 1;
nodes = (
(456,527,l),
(456,472,l),
(267,472,l),
(267,0,l),
(201,0,l),
(201,472,l),
(12,472,l),
(12,527,l)
);
}
);
width = 468;
}
);
unicode = 1090;
},
{
glyphname = uni0444;
kernLeft = _kern9;
kernRight = _kern10;
layers = (
{
layerId = "ED8FB365-A02F-46D3-A65B-595A86BAB06C";
shapes = (
{
closed = 1;
nodes = (
(335,696,l),
(401,696,l),
(401,533,l),
(577,530,o),
(688,440,o),
(688,259,cs),
(688,78,o),
(577,-2,o),
(401,-7,c),
(401,-197,l),
(335,-197,l),
(335,-7,l),
(162,-2,o),
(48,79,o),
(48,259,cs),
(48,442,o),
(158,530,o),
(335,533,c)
);
},
{
closed = 1;
nodes = (
(401,48,l),
(536,48,o),
(622,115,o),
(622,262,cs),
(622,407,o),
(545,476,o),
(401,476,c)
);
},
{
closed = 1;
nodes = (
(335,476,l),
(191,476,o),
(114,407,o),
(114,262,cs),
(114,115,o),
(200,48,o),
(335,48,c)
);
}
);
width = 736;
}
);
unicode = 1092;
},
{
glyphname = uni0446;
kernLeft = _kern11;
kernRight = _kern13;
layers = (
{
layerId = "ED8FB365-A02F-46D3-A65B-595A86BAB06C";
shapes = (
{
closed = 1;
nodes = (
(427,55,l),
(427,527,l),
(493,527,l),
(493,55,l),
(565,55,l),
(565,-168,l),
(502,-168,l),
(502,0,l),
(72,0,l),
(72,527,l),
(138,527,l),
(138,55,l)
);
}
);
width = 592;
}
);
unicode = 1094;
},
{
glyphname = uni0447;
kernLeft = _kern11;
layers = (
{
layerId = "ED8FB365-A02F-46D3-A65B-595A86BAB06C";
shapes = (
{
closed = 1;
nodes = (
(49,527,l),
(115,527,l),
(115,413,ls),
(115,302,o),
(139,252,o),
(259,252,cs),
(303,252,o),
(343,254,o),
(394,263,c),
(394,527,l),
(460,527,l),
(460,0,l),
(394,0,l),
(394,207,l),
(338,196,o),
(299,194,o),
(252,194,cs),
(104,194,o),
(49,257,o),
(49,407,cs)
);
}
);
width = 532;
}
);
unicode = 1095;
},
{
glyphname = uni0448;
kernLeft = _kern11;
layers = (
{
layerId = "ED8FB365-A02F-46D3-A65B-595A86BAB06C";
shapes = (
{
closed = 1;
nodes = (
(72,527,l),
(138,527,l),
(138,55,l),
(367,55,l),
(367,527,l),
(433,527,l),
(433,55,l),
(664,55,l),
(664,527,l),
(730,527,l),
(730,0,l),
(72,0,l)
);
}
);
width = 802;
}
);
unicode = 1096;
},
{
glyphname = uni0449;
kernLeft = _kern11;
kernRight = _kern13;
layers = (
{
layerId = "ED8FB365-A02F-46D3-A65B-595A86BAB06C";
shapes = (
{
closed = 1;
nodes = (
(72,527,l),
(138,527,l),
(138,55,l),
(367,55,l),
(367,527,l),
(433,527,l),
(433,55,l),
(664,55,l),
(664,527,l),
(730,527,l),
(730,55,l),
(802,55,l),
(802,-168,l),
(739,-168,l),
(739,0,l),
(72,0,l)
);
}
);
width = 829;
}
);
unicode = 1097;
},
{
glyphname = uni044A;
layers = (
{
layerId = "ED8FB365-A02F-46D3-A65B-595A86BAB06C";
shapes = (
{
closed = 1;
nodes = (
(153,472,l),
(19,472,l),
(19,527,l),
(220,527,l),
(220,318,l),
(334,318,ls),
(442,318,o),
(555,299,o),
(555,168,cs),
(555,44,o),
(464,0,o),
(352,0,cs),
(153,0,l)
);
},
{
closed = 1;
nodes = (
(320,55,ls),
(403,55,o),
(488,64,o),
(488,165,cs),
(488,253,o),
(406,263,o),
(334,263,cs),
(220,263,l),
(220,55,l)
);
}
);
width = 600;
}
);
unicode = 1098;
},
{
glyphname = uni044B;
kernLeft = _kern11;
layers = (
{
layerId = "ED8FB365-A02F-46D3-A65B-595A86BAB06C";
shapes = (
{
closed = 1;
nodes = (
(539,0,l),
(539,527,l),
(604,527,l),
(604,0,l)
);
},
{
closed = 1;
nodes = (
(72,527,l),
(139,527,l),
(139,318,l),
(231,318,ls),
(339,318,o),
(452,301,o),
(452,168,cs),
(452,44,o),
(361,0,o),
(249,0,cs),
(72,0,l)
);
},
{
closed = 1;
nodes = (
(217,55,ls),
(300,55,o),
(385,64,o),
(385,165,cs),
(385,253,o),
(305,263,o),
(232,263,cs),
(139,263,l),
(139,55,l)
);
}
);
width = 676;
}
);
unicode = 1099;
},
{
glyphname = uni044C;
kernLeft = _kern11;
layers = (
{
layerId = "ED8FB365-A02F-46D3-A65B-595A86BAB06C";
shapes = (
{
closed = 1;
nodes = (
(72,527,l),
(139,527,l),
(139,318,l),
(253,318,ls),
(361,318,o),
(474,300,o),
(474,168,cs),
(474,44,o),
(383,0,o),
(271,0,cs),
(72,0,l)
);
},
{
closed = 1;
nodes = (
(239,55,ls),
(322,55,o),
(407,64,o),
(407,165,cs),
(407,253,o),
(325,263,o),
(253,263,cs),
(139,263,l),
(139,55,l)
);
}
);
width = 523;
}
);
unicode = 1100;
},
{
glyphname = uni044E;
kernLeft = _kern11;
kernRight = _kern10;
layers = (
{
layerId = "ED8FB365-A02F-46D3-A65B-595A86BAB06C";
shapes = (
{
closed = 1;
nodes = (
(667,533,o),
(749,418,o),
(749,263,cs),
(749,107,o),
(665,-6,o),
(501,-6,cs),
(348,-6,o),
(271,90,o),
(260,236,c),
(138,236,l),
(138,0,l),
(72,0,l),
(72,527,l),
(138,527,l),
(138,291,l),
(260,291,l),
(271,437,o),
(349,533,o),
(502,533,cs)
);
},
{
closed = 1;
nodes = (
(631,50,o),
(683,147,o),
(683,263,cs),
(683,380,o),
(631,477,o),
(502,477,cs),
(371,477,o),
(323,380,o),
(323,263,cs),
(323,147,o),
(375,50,o),
(502,50,cs)
);
}
);
width = 797;
}
);
unicode = 1102;
},
{
glyphname = uni044F;
kernLeft = _kern11;
layers = (
{
layerId = "ED8FB365-A02F-46D3-A65B-595A86BAB06C";
shapes = (
{
closed = 1;
nodes = (
(459,0,l),
(394,0,l),
(394,204,l),
(252,204,l),
(117,0,l),
(39,0,l),
(184,213,l),
(101,228,o),
(46,279,o),
(46,366,cs),
(46,434,o),
(70,473,o),
(109,498,cs),
(146,522,o),
(194,527,o),
(250,527,cs),
(459,527,l)
);
},
{
closed = 1;
nodes = (
(394,472,l),
(262,472,ls),
(219,472,o),
(178,470,o),
(154,455,cs),
(131,440,o),
(112,414,o),
(112,371,cs),
(112,334,o),
(126,306,o),
(147,290,cs),
(187,260,o),
(244,259,o),
(292,259,cs),
(394,259,l)
);
}
);
width = 531;
}
);
unicode = 1103;
},
{
glyphname = uni0410;
kernLeft = _kern30;
kernRight = _kern30;
layers = (
{
layerId = "ED8FB365-A02F-46D3-A65B-595A86BAB06C";
shapes = (
{
closed = 1;
nodes = (
(146,157,l),
(88,0,l),
(15,0,l),
(279,707,l),
(370,707,l),
(633,0,l),
(560,0,l),
(502,157,l)
);
},
{
closed = 1;
nodes = (
(168,217,l),
(481,217,l),
(324,646,l)
);
}
);
width = 648;
}
);
unicode = 1040;
},
{
glyphname = uni0415;
layers = (
{
layerId = "ED8FB365-A02F-46D3-A65B-595A86BAB06C";
shapes = (
{
closed = 1;
nodes = (
(92,707,l),
(557,707,l),
(557,647,l),
(157,647,l),
(157,381,l),
(517,381,l),
(517,321,l),
(157,321,l),
(157,60,l),
(557,60,l),
(557,0,l),
(92,0,l)
);
}
);
width = 610;
}
);
unicode = 1045;
},
{
glyphname = uni041C;
layers = (
{
layerId = "ED8FB365-A02F-46D3-A65B-595A86BAB06C";
shapes = (
{
closed = 1;
nodes = (
(744,707,l),
(744,0,l),
(679,0,l),
(679,646,l),
(435,188,l),
(404,188,l),
(157,646,l),
(157,0,l),
(92,0,l),
(92,707,l),
(197,707,l),
(422,292,l),
(643,707,l)
);
}
);
width = 836;
}
);
unicode = 1052;
},
{
glyphname = uni041D;
layers = (
{
layerId = "ED8FB365-A02F-46D3-A65B-595A86BAB06C";
shapes = (
{
closed = 1;
nodes = (
(157,377,l),
(573,377,l),
(573,707,l),
(638,707,l),
(638,0,l),
(573,0,l),
(573,317,l),
(157,317,l),
(157,0,l),
(92,0,l),
(92,707,l),
(157,707,l)
);
}
);
width = 730;
}
);
unicode = 1053;
},
{
glyphname = uni0420;
layers = (
{
layerId = "ED8FB365-A02F-46D3-A65B-595A86BAB06C";
shapes = (
{
closed = 1;
nodes = (
(92,707,l),
(332,707,ls),
(485,707,o),
(577,635,o),
(577,476,cs),
(577,316,o),
(461,241,o),
(312,241,cs),
(157,241,l),
(157,0,l),
(92,0,l)
);
},
{
closed = 1;
nodes = (
(310,301,ls),
(430,301,o),
(510,354,o),
(510,480,cs),
(510,600,o),
(440,647,o),
(327,647,cs),
(157,647,l),
(157,301,l)
);
}
);
width = 626;
}
);
unicode = 1056;
},
{
glyphname = uni0422;
kernLeft = _kern28;
kernRight = _kern28;
layers = (
{
layerId = "ED8FB365-A02F-46D3-A65B-595A86BAB06C";
shapes = (
{
closed = 1;
nodes = (
(552,647,l),
(318,647,l),
(318,0,l),
(253,0,l),
(253,647,l),
(19,647,l),
(19,707,l),
(552,707,l)
);
}
);
width = 571;
}
);
unicode = 1058;
},
{
glyphname = uni0425;
layers = (
{
layerId = "ED8FB365-A02F-46D3-A65B-595A86BAB06C";
shapes = (
{
closed = 1;
nodes = (
(472,707,l),
(553,707,l),
(333,357,l),
(562,0,l),
(481,0,l),
(290,303,l),
(98,0,l),
(19,0,l),
(247,354,l),
(26,707,l),
(108,707,l),
(290,407,l)
);
}
);
width = 581;
}
);
unicode = 1061;
},
{
glyphname = T;
kernLeft = _kern28;
kernRight = _kern28;
layers = (
{
layerId = "ED8FB365-A02F-46D3-A65B-595A86BAB06C";
shapes = (
{
closed = 1;
nodes = (
(552,647,l),
(318,647,l),
(318,0,l),
(253,0,l),
(253,647,l),
(19,647,l),
(19,707,l),
(552,707,l)
);
}
);
width = 571;
}
);
unicode = 84;
},
{
glyphname = uni0412;
layers = (
{
layerId = "ED8FB365-A02F-46D3-A65B-595A86BAB06C";
shapes = (
{
closed = 1;
nodes = (
(91,707,l),
(335,707,ls),
(457,707,o),
(565,680,o),
(565,533,cs),
(565,453,o),
(525,396,o),
(450,372,c),
(546,356,o),
(603,291,o),
(603,192,cs),
(603,36,o),
(460,0,o),
(329,0,cs),
(91,0,l)
);
},
{
closed = 1;
nodes = (
(156,647,l),
(156,391,l),
(314,391,ls),
(404,391,o),
(503,422,o),
(503,529,cs),
(503,633,o),
(421,647,o),
(336,647,cs)
);
},
{
closed = 1;
nodes = (
(326,60,ls),
(422,60,o),
(537,72,o),
(537,196,cs),
(537,304,o),
(448,331,o),
(356,331,cs),
(156,331,l),
(156,60,l)
);
}
);
width = 657;
}
);
unicode = 1042;
},
{
glyphname = uni041F;
layers = (
{
layerId = "ED8FB365-A02F-46D3-A65B-595A86BAB06C";
shapes = (
{
closed = 1;
nodes = (
(641,0,l),
(576,0,l),
(576,647,l),
(157,647,l),
(157,0,l),
(92,0,l),
(92,707,l),
(641,707,l)
);
}
);
width = 733;
}
);
unicode = 1055;
},
{
glyphname = uni0413;
kernLeft = _kern23;
kernRight = _kern23;
layers = (
{
layerId = "ED8FB365-A02F-46D3-A65B-595A86BAB06C";
shapes = (
{
closed = 1;
nodes = (
(92,0,l),
(92,707,l),
(537,707,l),
(537,647,l),
(157,647,l),
(157,0,l)
);
}
);
width = 569;
}
);
unicode = 1043;
},
{
glyphname = uni041B;
layers = (
{
layerId = "ED8FB365-A02F-46D3-A65B-595A86BAB06C";
shapes = (
{
closed = 1;
nodes = (
(540,0,l),
(540,647,l),
(210,647,l),
(207,546,o),
(207,445,o),
(204,344,cs),
(201,272,o),
(201,190,o),
(182,121,cs),
(159,34,o),
(107,-3,o),
(19,-6,c),
(19,61,l),
(59,61,o),
(87,82,o),
(104,114,cs),
(134,171,o),
(135,301,o),
(137,366,cs),
(140,479,o),
(140,592,o),
(143,707,c),
(605,707,l),
(605,0,l)
);
}
);
width = 697;
}
);
unicode = 1051;
},
{
glyphname = uni0414;
kernRight = _kern12;
layers = (
{
layerId = "ED8FB365-A02F-46D3-A65B-595A86BAB06C";
shapes = (
{
closed = 1;
nodes = (
(27,-201,l),
(27,60,l),
(37,60,ls),
(66,60,o),
(88,77,o),
(103,100,cs),
(122,129,o),
(131,167,o),
(136,195,cs),
(146,259,o),
(149,338,o),
(152,397,cs),
(157,501,o),
(158,603,o),
(161,707,c),
(602,707,l),
(602,60,l),
(690,60,l),
(690,-201,l),
(625,-201,l),
(625,0,l),
(92,0,l),
(92,-201,l)
);
},
{
closed = 1;
nodes = (
(538,60,l),
(538,647,l),
(225,647,l),
(215,353,ls),
(213,289,o),
(210,212,o),
(197,149,cs),
(189,110,o),
(172,79,o),
(152,60,c)
);
}
);
width = 717;
}
);
unicode = 1044;
},
{
glyphname = uni0411;
layers = (
{
layerId = "ED8FB365-A02F-46D3-A65B-595A86BAB06C";
shapes = (
{
closed = 1;
nodes = (
(92,707,l),
(563,707,l),
(563,647,l),
(157,647,l),
(157,407,l),
(336,407,ls),
(475,407,o),
(595,375,o),
(595,212,cs),
(595,50,o),
(475,0,o),
(332,0,cs),
(92,0,l)
);
},
{
closed = 1;
nodes = (
(157,60,l),
(320,60,ls),
(428,60,o),
(529,81,o),
(529,208,cs),
(529,335,o),
(426,347,o),
(325,347,cs),
(157,347,l)
);
}
);
width = 655;
}
);
unicode = 1041;
},
{
glyphname = uni0416;
layers = (
{
layerId = "ED8FB365-A02F-46D3-A65B-595A86BAB06C";
shapes = (
{
closed = 1;
nodes = (
(396,0,l),
(396,317,l),
(266,317,l),
(96,0,l),
(19,0,l),
(211,357,l),
(19,707,l),
(92,707,l),
(269,377,l),
(396,377,l),
(396,707,l),
(461,707,l),
(461,377,l),
(589,377,l),
(767,707,l),
(838,707,l),
(646,357,l),
(839,0,l),
(760,0,l),
(591,317,l),
(461,317,l),
(461,0,l)
);
}
);
width = 858;
}
);
unicode = 1046;
},
{
glyphname = uni0417;
kernLeft = _kern7;
kernRight = _kern8;
layers = (
{
layerId = "ED8FB365-A02F-46D3-A65B-595A86BAB06C";
shapes = (
{
closed = 1;
nodes = (
(115,165,l),
(126,74,o),
(239,51,o),
(314,51,cs),
(409,51,o),
(507,78,o),
(507,193,cs),
(507,310,o),
(408,330,o),
(312,330,cs),
(218,330,l),
(218,390,l),
(287,390,ls),
(338,390,o),
(390,399,o),
(429,431,cs),
(458,454,o),
(479,489,o),
(479,526,cs),
(479,575,o),
(459,609,o),
(428,629,cs),
(396,649,o),
(356,656,o),
(313,656,cs),
(277,656,o),
(235,652,o),
(199,634,cs),
(166,618,o),
(138,589,o),
(134,546,c),
(68,546,l),
(69,617,o),
(118,666,o),
(178,691,cs),
(223,711,o),
(274,715,o),
(317,715,cs),
(368,715,o),
(416,707,o),
(456,686,cs),
(507,659,o),
(542,614,o),
(542,539,cs),
(542,463,o),
(497,395,o),
(424,372,c),
(517,353,o),
(574,288,o),
(574,192,cs),
(574,124,o),
(545,73,o),
(498,41,cs),
(447,5,o),
(381,-8,o),
(314,-8,cs),
(202,-8,o),
(60,33,o),
(49,165,c)
);
}
);
width = 628;
}
);
unicode = 1047;
},
{
glyphname = uni0418;
layers = (
{
layerId = "ED8FB365-A02F-46D3-A65B-595A86BAB06C";
shapes = (
{
closed = 1;
nodes = (
(92,0,l),
(92,707,l),
(157,707,l),
(157,86,l),
(563,707,l),
(646,707,l),
(646,0,l),
(581,0,l),
(581,616,l),
(175,0,l)
);
}
);
width = 738;
}
);
unicode = 1048;
},
{
glyphname = uni0419;
layers = (
{
layerId = "ED8FB365-A02F-46D3-A65B-595A86BAB06C";
shapes = (
{
closed = 1;
nodes = (
(427,845,o),
(475,865,o),
(486,924,c),
(548,924,l),
(540,824,o),
(458,791,o),
(371,791,cs),
(284,791,o),
(201,823,o),
(193,924,c),
(255,924,l),
(266,865,o),
(315,845,o),
(371,845,cs)
);
},
{
closed = 1;
nodes = (
(92,0,l),
(92,707,l),
(157,707,l),
(157,86,l),
(563,707,l),
(646,707,l),
(646,0,l),
(581,0,l),
(581,616,l),
(175,0,l)
);
}
);
width = 738;
}
);
unicode = 1049;
},
{
glyphname = uni041A;
layers = (
{
layerId = "ED8FB365-A02F-46D3-A65B-595A86BAB06C";
shapes = (
{
closed = 1;
nodes = (
(92,0,l),
(92,707,l),
(157,707,l),
(157,372,l),
(281,372,l),
(518,707,l),
(595,707,l),
(342,355,l),
(597,0,l),
(519,0,l),
(292,312,l),
(157,312,l),
(157,0,l)
);
}
);
width = 616;
}
);
unicode = 1050;
},
{
glyphname = uni0423;
layers = (
{
layerId = "ED8FB365-A02F-46D3-A65B-595A86BAB06C";
shapes = (
{
closed = 1;
nodes = (
(107,63,l),
(154,64,o),
(186,71,o),
(215,90,cs),
(243,109,o),
(263,137,o),
(286,177,c),
(20,707,l),
(100,707,l),
(325,245,l),
(512,707,l),
(587,707,l),
(361,179,ls),
(338,125,o),
(306,76,o),
(258,41,cs),
(214,9,o),
(163,-1,o),
(107,-1,c)
);
}
);
width = 589;
}
);
unicode = 1059;
},
{
glyphname = uni0424;
kernLeft = _kern7;
kernRight = _kern8;
layers = (
{
layerId = "ED8FB365-A02F-46D3-A65B-595A86BAB06C";
shapes = (
{
closed = 1;
nodes = (
(455,736,l),
(455,634,l),
(533,634,ls),
(687,634,o),
(792,528,o),
(792,373,cs),
(792,223,o),
(700,100,o),
(544,100,cs),
(455,100,l),
(455,-20,l),
(390,-20,l),
(390,100,l),
(300,100,ls),
(139,100,o),
(53,218,o),
(53,373,cs),
(53,528,o),
(159,634,o),
(314,634,cs),
(390,634,l),
(390,736,l)
);
},
{
closed = 1;
nodes = (
(390,155,l),
(390,578,l),
(318,578,ls),
(196,578,o),
(119,495,o),
(119,375,cs),
(119,248,o),
(182,155,o),
(318,155,cs)
);
},
{
closed = 1;
nodes = (
(455,155,l),
(528,155,ls),
(665,155,o),
(726,248,o),
(726,375,cs),
(726,495,o),
(648,578,o),
(527,578,cs),
(455,578,l)
);
}
);
width = 845;
}
);
unicode = 1060;
},
{
glyphname = uni0426;
kernRight = _kern12;
layers = (
{
layerId = "ED8FB365-A02F-46D3-A65B-595A86BAB06C";
shapes = (
{
closed = 1;
nodes = (
(92,0,l),
(92,707,l),
(157,707,l),
(157,60,l),
(552,60,l),
(552,707,l),
(617,707,l),
(617,60,l),
(705,60,l),
(705,-201,l),
(640,-201,l),
(640,0,l)
);
}
);
width = 729;
}
);
unicode = 1062;
},
{
glyphname = uni0427;
layers = (
{
layerId = "ED8FB365-A02F-46D3-A65B-595A86BAB06C";
shapes = (
{
closed = 1;
nodes = (
(390,315,o),
(435,318,o),
(491,325,c),
(491,707,l),
(556,707,l),
(556,0,l),
(491,0,l),
(491,266,l),
(440,259,o),
(394,256,o),
(343,256,cs),
(276,256,o),
(204,258,o),
(144,297,cs),
(82,337,o),
(69,415,o),
(69,484,cs),
(69,707,l),
(134,707,l),
(134,504,ls),
(134,448,o),
(137,394,o),
(181,354,cs),
(220,320,o),
(284,315,o),
(334,315,cs)
);
}
);
width = 648;
}
);
unicode = 1063;
},
{
glyphname = uni0428;
layers = (
{
layerId = "ED8FB365-A02F-46D3-A65B-595A86BAB06C";
shapes = (
{
closed = 1;
nodes = (
(92,707,l),
(157,707,l),
(157,60,l),
(455,60,l),
(455,707,l),
(520,707,l),
(520,60,l),
(818,60,l),
(818,707,l),
(883,707,l),
(883,0,l),
(92,0,l)
);
}
);
width = 975;
}
);
unicode = 1064;
},
{
glyphname = uni0429;
kernRight = _kern12;
layers = (
{
layerId = "ED8FB365-A02F-46D3-A65B-595A86BAB06C";
shapes = (
{
closed = 1;
nodes = (
(92,707,l),
(157,707,l),
(157,60,l),
(455,60,l),
(455,707,l),
(520,707,l),
(520,60,l),
(818,60,l),
(818,707,l),
(883,707,l),
(883,60,l),
(971,60,l),
(971,-201,l),
(906,-201,l),
(906,0,l),
(92,0,l)
);
}
);
width = 995;
}
);
unicode = 1065;
},
{
glyphname = uni042A;
layers = (
{
layerId = "ED8FB365-A02F-46D3-A65B-595A86BAB06C";
shapes = (
{
closed = 1;
nodes = (
(185,647,l),
(19,647,l),
(19,707,l),
(250,707,l),
(250,407,l),
(385,407,ls),
(521,407,o),
(673,390,o),
(673,214,cs),
(673,51,o),
(550,0,o),
(407,0,cs),
(185,0,l)
);
},
{
closed = 1;
nodes = (
(250,60,l),
(394,60,ls),
(497,60,o),
(607,80,o),
(607,208,cs),
(607,335,o),
(502,347,o),
(401,347,cs),
(250,347,l)
);
}
);
width = 729;
}
);
unicode = 1066;
},
{
glyphname = uni042B;
layers = (
{
layerId = "ED8FB365-A02F-46D3-A65B-595A86BAB06C";
shapes = (
{
closed = 1;
nodes = (
(92,707,l),
(157,707,l),
(157,407,l),
(270,407,ls),
(409,407,o),
(558,389,o),
(558,214,cs),
(558,51,o),
(435,0,o),
(292,0,cs),
(92,0,l)
);
},
{
closed = 1;
nodes = (
(157,60,l),
(279,60,ls),
(382,60,o),
(492,80,o),
(492,208,cs),
(492,335,o),
(389,347,o),
(288,347,cs),
(157,347,l)
);
},
{
closed = 1;
nodes = (
(665,0,l),
(665,707,l),
(730,707,l),
(730,0,l)
);
}
);
width = 822;
}
);
unicode = 1067;
},
{
glyphname = uni042C;
layers = (
{
layerId = "ED8FB365-A02F-46D3-A65B-595A86BAB06C";
shapes = (
{
closed = 1;
nodes = (
(91,707,l),
(156,707,l),
(156,407,l),
(291,407,ls),
(426,407,o),
(579,389,o),
(579,214,cs),
(579,51,o),
(456,0,o),
(313,0,cs),
(91,0,l)
);
},
{
closed = 1;
nodes = (
(156,60,l),
(300,60,ls),
(403,60,o),
(513,80,o),
(513,208,cs),
(513,335,o),
(407,347,o),
(306,347,cs),
(156,347,l)
);
}
);
width = 634;
}
);
unicode = 1068;
},
{
glyphname = uni042D;
kernLeft = _kern7;
kernRight = _kern8;
layers = (
{
layerId = "ED8FB365-A02F-46D3-A65B-595A86BAB06C";
shapes = (
{
closed = 1;
nodes = (
(256,656,o),
(159,622,o),
(127,539,c),
(59,539,l),
(96,664,o),
(220,715,o),
(343,715,cs),
(559,715,o),
(656,547,o),
(656,348,cs),
(656,140,o),
(553,-8,o),
(333,-8,cs),
(208,-8,o),
(93,43,o),
(53,168,c),
(126,168,l),
(158,84,o),
(255,51,o),
(338,51,cs),
(506,51,o),
(583,167,o),
(588,324,c),
(227,324,l),
(227,384,l),
(588,384,l),
(580,531,o),
(498,656,o),
(339,656,cs)
);
}
);
width = 709;
}
);
unicode = 1069;
},
{
glyphname = uni042E;
kernRight = _kern8;
layers = (
{
layerId = "ED8FB365-A02F-46D3-A65B-595A86BAB06C";
shapes = (
{
closed = 1;
nodes = (
(92,0,l),
(92,707,l),
(157,707,l),
(157,384,l),
(299,384,l),
(310,575,o),
(416,715,o),
(619,715,cs),
(838,715,o),
(950,561,o),
(950,353,cs),
(950,145,o),
(838,-8,o),
(619,-8,cs),
(414,-8,o),
(310,132,o),
(299,324,c),
(157,324,l),
(157,0,l)
);
},
{
closed = 1;
nodes = (
(439,656,o),
(365,516,o),
(365,353,cs),
(365,190,o),
(440,51,o),
(619,51,cs),
(799,51,o),
(882,185,o),
(882,353,cs),
(882,518,o),
(799,656,o),
(619,656,cs)
);
}
);
width = 1003;
}
);
unicode = 1070;
},
{
glyphname = uni042F;
layers = (
{
layerId = "ED8FB365-A02F-46D3-A65B-595A86BAB06C";
shapes = (
{
closed = 1;
nodes = (
(148,0,l),
(72,0,l),
(227,283,l),
(116,306,o),
(60,375,o),
(60,488,cs),
(60,648,o),
(165,707,o),
(313,707,cs),
(571,707,l),
(571,0,l),
(506,0,l),
(506,274,l),
(293,274,l)
);
},
{
closed = 1;
nodes = (
(506,334,l),
(506,647,l),
(312,647,ls),
(200,647,o),
(126,608,o),
(126,491,cs),
(126,374,o),
(211,334,o),
(315,334,cs)
);
}
);
width = 663;
}
);
unicode = 1071;
},
{
glyphname = uni0440;
kernLeft = _kern11;
kernRight = _kern10;
layers = (
{
layerId = "ED8FB365-A02F-46D3-A65B-595A86BAB06C";
shapes = (
{
closed = 1;
nodes = (
(138,-197,l),
(72,-197,l),
(72,527,l),
(138,527,l),
(138,439,l),
(182,507,o),
(251,533,o),
(331,533,cs),
(497,533,o),
(560,401,o),
(560,254,cs),
(560,163,o),
(530,83,o),
(470,38,cs),
(434,10,o),
(383,-6,o),
(323,-6,cs),
(254,-6,o),
(177,14,o),
(138,76,c)
);
},
{
closed = 1;
nodes = (
(443,50,o),
(494,147,o),
(494,260,cs),
(494,376,o),
(447,477,o),
(317,477,cs),
(197,477,o),
(136,370,o),
(136,262,cs),
(136,143,o),
(193,50,o),
(319,50,cs)
);
}
);
width = 609;
}
);
unicode = 1088;
},
{
glyphname = O;
kernLeft = _kern3;
kernRight = _kern4;
layers = (
{
layerId = "ED8FB365-A02F-46D3-A65B-595A86BAB06C";
shapes = (
{
closed = 1;
nodes = (
(165,-8,o),
(53,145,o),
(53,353,cs),
(53,561,o),
(165,715,o),
(384,715,cs),
(602,715,o),
(714,560,o),
(714,353,cs),
(714,146,o),
(602,-8,o),
(384,-8,cs)
);
},
{
closed = 1;
nodes = (
(204,656,o),
(119,518,o),
(119,353,cs),
(119,188,o),
(206,51,o),
(384,51,cs),
(564,51,o),
(647,185,o),
(647,353,cs),
(647,518,o),
(563,656,o),
(384,656,cs)
);
}
);
width = 767;
}
);
unicode = 79;
},
{
glyphname = a;
kernLeft = _kern27;
kernRight = _kern27;
layers = (
{
layerId = "ED8FB365-A02F-46D3-A65B-595A86BAB06C";
shapes = (
{
closed = 1;
nodes = (
(430,76,l),
(379,15,o),
(314,-6,o),
(237,-6,cs),
(145,-6,o),
(54,41,o),
(54,145,cs),
(54,265,o),
(151,301,o),
(254,301,cs),
(427,301,l),
(427,397,o),
(390,477,o),
(283,477,cs),
(232,477,o),
(177,463,o),
(152,414,c),
(80,414,l),
(104,502,o),
(200,533,o),
(285,533,cs),
(441,533,o),
(493,424,o),
(493,286,cs),
(493,0,l),
(439,0,l)
);
},
{
closed = 1;
nodes = (
(288,248,ls),
(219,248,o),
(120,244,o),
(120,152,cs),
(120,81,o),
(181,49,o),
(245,49,cs),
(350,49,o),
(427,103,o),
(427,212,cs),
(427,248,l)
);
}
);
width = 563;
}
);
unicode = 97;
},
{
glyphname = c;
kernLeft = _kern5;
kernRight = _kern6;
layers = (
{
layerId = "ED8FB365-A02F-46D3-A65B-595A86BAB06C";
shapes = (
{
closed = 1;
nodes = (
(135,-6,o),
(52,107,o),
(52,262,cs),
(52,421,o),
(139,533,o),
(304,533,cs),
(400,533,o),
(479,487,o),
(504,391,c),
(437,391,l),
(418,450,o),
(361,477,o),
(300,477,cs),
(175,477,o),
(117,379,o),
(117,262,cs),
(117,147,o),
(174,50,o),
(303,50,cs),
(367,50,o),
(421,70,o),
(444,135,c),
(512,135,l),
(483,37,o),
(394,-6,o),
(299,-6,cs)
);
}
);
width = 558;
}
);
unicode = 99;
},
{
glyphname = e;
kernLeft = _kern5;
kernRight = _kern6;
layers = (
{
layerId = "ED8FB365-A02F-46D3-A65B-595A86BAB06C";
shapes = (
{
closed = 1;
nodes = (
(117,242,l),
(122,131,o),
(183,50,o),
(302,50,cs),
(357,50,o),
(422,69,o),
(446,124,c),
(515,124,l),
(485,30,o),
(390,-6,o),
(299,-6,cs),
(133,-6,o),
(52,106,o),
(52,263,cs),
(52,424,o),
(139,533,o),
(300,533,cs),
(467,533,o),
(530,389,o),
(525,242,c)
);
},
{
closed = 1;
nodes = (
(458,297,l),
(455,394,o),
(402,477,o),
(292,477,cs),
(183,477,o),
(123,390,o),
(118,297,c)
);
}
);
width = 577;
}
);
unicode = 101;
},
{
glyphname = f;
layers = (
{
layerId = "ED8FB365-A02F-46D3-A65B-595A86BAB06C";
shapes = (
{
closed = 1;
nodes = (
(126,472,l),
(37,472,l),
(37,527,l),
(126,527,l),
(126,580,ls),
(126,629,o),
(128,666,o),
(145,697,cs),
(169,740,o),
(208,762,o),
(288,762,cs),
(339,762,l),
(339,707,l),
(295,707,ls),
(264,707,o),
(232,706,o),
(212,681,cs),
(192,654,o),
(192,622,o),
(192,575,cs),
(192,527,l),
(339,527,l),
(339,472,l),
(192,472,l),
(192,0,l),
(127,0,l),
(126,0,l)
);
}
);
width = 366;
}
);
unicode = 102;
},
{
glyphname = g;
kernLeft = _kern5;
layers = (
{
layerId = "ED8FB365-A02F-46D3-A65B-595A86BAB06C";
shapes = (
{
closed = 1;
nodes = (
(479,527,l),
(541,527,l),
(541,17,l),
(542,-72,o),
(525,-131,o),
(487,-176,cs),
(449,-220,o),
(388,-245,o),
(303,-245,cs),
(199,-245,o),
(113,-206,o),
(86,-105,c),
(154,-105,l),
(175,-168,o),
(247,-189,o),
(307,-189,cs),
(442,-189,o),
(475,-101,o),
(475,18,cs),
(475,84,l),
(431,20,o),
(366,-6,o),
(286,-6,cs),
(117,-6,o),
(53,119,o),
(53,269,cs),
(53,415,o),
(140,533,o),
(295,533,cs),
(368,533,o),
(434,509,o),
(475,452,c)
);
},
{
closed = 1;
nodes = (
(170,477,o),
(119,376,o),
(119,265,cs),
(119,149,o),
(166,50,o),
(296,50,cs),
(355,50,o),
(403,79,o),
(434,119,cs),
(465,159,o),
(477,210,o),
(477,265,cs),
(477,330,o),
(460,401,o),
(405,442,cs),
(374,465,o),
(337,477,o),
(294,477,cs)
);
}
);
width = 613;
}
);
unicode = 103;
},
{
glyphname = j;
layers = (
{
layerId = "ED8FB365-A02F-46D3-A65B-595A86BAB06C";
shapes = (
{
closed = 1;
nodes = (
(168,717,o),
(187,698,o),
(187,669,cs),
(187,638,o),
(168,620,o),
(137,620,cs),
(108,620,o),
(88,638,o),
(88,669,cs),
(88,700,o),
(108,717,o),
(137,717,cs)
);
},
{
closed = 1;
nodes = (
(171,0,ls),
(171,-52,o),
(169,-108,o),
(134,-148,cs),
(110,-174,o),
(69,-187,o),
(10,-187,cs),
(-26,-187,l),
(-26,-132,l),
(-1,-132,ls),
(26,-132,o),
(61,-127,o),
(80,-107,cs),
(100,-87,o),
(105,-61,o),
(105,2,cs),
(105,527,l),
(171,527,l)
);
}
);
width = 251;
}
);
unicode = 106;
},
{
glyphname = o;
kernLeft = _kern5;
kernRight = _kern6;
layers = (
{
layerId = "ED8FB365-A02F-46D3-A65B-595A86BAB06C";
shapes = (
{
closed = 1;
nodes = (
(430,50,o),
(485,145,o),
(485,263,cs),
(485,380,o),
(430,477,o),
(301,477,cs),
(172,477,o),
(117,380,o),
(117,263,cs),
(117,145,o),
(172,50,o),
(301,50,cs)
);
},
{
closed = 1;
nodes = (
(465,533,o),
(551,420,o),
(551,263,cs),
(551,106,o),
(465,-6,o),
(301,-6,cs),
(136,-6,o),
(52,106,o),
(52,263,cs),
(52,420,o),
(136,533,o),
(301,533,cs)
);
}
);
width = 603;
}
);
unicode = 111;
},
{
glyphname = r;
kernLeft = _kern29;
kernRight = _kern29;
layers = (
{
layerId = "ED8FB365-A02F-46D3-A65B-595A86BAB06C";
shapes = (
{
closed = 1;
nodes = (
(72,0,l),
(72,527,l),
(136,527,l),
(138,436,l),
(186,516,o),
(260,535,o),
(348,532,c),
(348,472,l),
(330,472,ls),
(266,472,o),
(220,451,o),
(189,418,cs),
(146,374,o),
(138,318,o),
(138,258,cs),
(138,0,l)
);
}
);
width = 370;
}
);
unicode = 114;
},
{
glyphname = t;
kernLeft = _kern21;
kernRight = _kern21;
layers = (
{
layerId = "ED8FB365-A02F-46D3-A65B-595A86BAB06C";
shapes = (
{
closed = 1;
nodes = (
(189,527,l),
(336,527,l),
(336,471,l),
(189,471,l),
(189,175,ls),
(189,139,o),
(192,93,o),
(225,72,cs),
(242,61,o),
(268,57,o),
(291,57,cs),
(331,57,l),
(331,0,l),
(285,0,ls),
(240,0,o),
(192,8,o),
(159,41,c),
(134,68,o),
(123,114,o),
(123,171,cs),
(123,471,l),
(34,471,l),
(34,527,l),
(123,527,l),
(123,678,l),
(189,678,l)
);
}
);
width = 370;
}
);
unicode = 116;
},
{
glyphname = y2_alt;
layers = (
{
layerId = "ED8FB365-A02F-46D3-A65B-595A86BAB06C";
shapes = (
{
closed = 1;
nodes = (
(455,527,l),
(531,527,l),
(355,28,ls),
(334,-33,o),
(290,-142,o),
(244,-185,cs),
(201,-226,o),
(156,-235,o),
(88,-235,c),
(88,-172,l),
(112,-172,o),
(134,-171,o),
(151,-165,cs),
(209,-146,o),
(239,-84,o),
(260,-32,c),
(22,527,l),
(101,527,l),
(298,52,l)
);
}
);
width = 548;
}
);
},
{
glyphname = uni0443;
layers = (
{
layerId = "ED8FB365-A02F-46D3-A65B-595A86BAB06C";
shapes = (
{
closed = 1;
nodes = (
(450,527,l),
(526,527,l),
(350,28,ls),
(329,-33,o),
(284,-141,o),
(239,-185,cs),
(195,-227,o),
(151,-235,o),
(83,-235,c),
(83,-172,l),
(107,-172,o),
(129,-171,o),
(146,-165,cs),
(204,-146,o),
(234,-84,o),
(255,-32,c),
(22,527,l),
(101,527,l),
(293,52,l)
);
}
);
width = 543;
}
);
unicode = 1091;
},
{
glyphname = uni0451;
kernLeft = _kern9;
kernRight = _kern10;
layers = (
{
layerId = "ED8FB365-A02F-46D3-A65B-595A86BAB06C";
shapes = (
{
closed = 1;
nodes = (
(205,705,o),
(228,685,o),
(228,657,cs),
(228,629,o),
(205,609,o),
(178,609,cs),
(151,609,o),
(129,630,o),
(129,657,cs),
(129,684,o),
(151,705,o),
(178,705,cs)
);
},
{
closed = 1;
nodes = (
(435,705,o),
(458,685,o),
(458,657,cs),
(458,629,o),
(435,609,o),
(408,609,cs),
(381,609,o),
(360,630,o),
(360,657,cs),
(360,684,o),
(381,705,o),
(408,705,cs)
);
},
{
closed = 1;
nodes = (
(117,242,l),
(122,131,o),
(183,50,o),
(302,50,cs),
(357,50,o),
(422,69,o),
(446,124,c),
(515,124,l),
(485,30,o),
(390,-6,o),
(299,-6,cs),
(133,-6,o),
(52,106,o),
(52,263,cs),
(52,425,o),
(138,533,o),
(302,533,cs),
(469,533,o),
(530,389,o),
(525,242,c)
);
},
{
closed = 1;
nodes = (
(458,297,l),
(455,394,o),
(402,477,o),
(293,477,cs),
(183,477,o),
(123,393,o),
(118,297,c)
);
}
);
width = 577;
}
);
unicode = 1105;
},
{
glyphname = uni0437;
kernLeft = _kern9;
kernRight = _kern10;
layers = (
{
layerId = "ED8FB365-A02F-46D3-A65B-595A86BAB06C";
shapes = (
{
closed = 1;
nodes = (
(439,259,o),
(470,218,o),
(470,147,cs),
(470,27,o),
(359,-6,o),
(259,-6,cs),
(171,-6,o),
(53,18,o),
(42,125,c),
(107,125,l),
(123,64,o),
(210,50,o),
(260,50,cs),
(326,50,o),
(405,67,o),
(405,147,cs),
(405,227,o),
(333,238,o),
(266,238,cs),
(172,238,l),
(172,293,l),
(240,293,ls),
(271,293,o),
(304,296,o),
(331,309,cs),
(360,324,o),
(384,350,o),
(384,389,cs),
(384,456,o),
(316,477,o),
(260,477,cs),
(209,477,o),
(140,466,o),
(126,406,c),
(61,406,l),
(69,505,o),
(177,533,o),
(259,533,cs),
(344,533,o),
(447,502,o),
(447,397,cs),
(447,340,o),
(423,298,o),
(368,278,c)
);
}
);
width = 518;
}
);
unicode = 1079;
},
{
glyphname = uni044D;
kernLeft = _kern9;
kernRight = _kern10;
layers = (
{
layerId = "ED8FB365-A02F-46D3-A65B-595A86BAB06C";
shapes = (
{
closed = 1;
nodes = (
(438,289,l),
(433,391,o),
(378,477,o),
(266,477,cs),
(206,477,o),
(135,455,o),
(114,392,c),
(50,392,l),
(77,491,o),
(169,533,o),
(265,533,cs),
(430,533,o),
(504,418,o),
(504,263,cs),
(504,106,o),
(429,-6,o),
(262,-6,cs),
(165,-6,o),
(70,35,o),
(44,135,c),
(112,135,l),
(133,72,o),
(206,50,o),
(266,50,cs),
(378,50,o),
(434,131,o),
(437,234,c),
(177,234,l),
(177,289,l)
);
}
);
width = 552;
}
);
unicode = 1101;
},
{
glyphname = C;
kernLeft = _kern3;
kernRight = _kern4;
layers = (
{
layerId = "ED8FB365-A02F-46D3-A65B-595A86BAB06C";
shapes = (
{
closed = 1;
nodes = (
(197,656,o),
(120,518,o),
(120,355,cs),
(120,191,o),
(198,51,o),
(378,51,cs),
(462,51,o),
(553,86,o),
(585,168,c),
(658,168,l),
(618,43,o),
(500,-8,o),
(376,-8,cs),
(155,-8,o),
(53,146,o),
(53,353,cs),
(53,559,o),
(159,715,o),
(378,715,cs),
(502,715,o),
(608,664,o),
(645,539,c),
(579,539,l),
(547,622,o),
(460,656,o),
(377,656,cs)
);
}
);
width = 705;
}
);
unicode = 67;
},
{
glyphname = S;
kernLeft = _kern3;
kernRight = _kern4;
layers = (
{
layerId = "ED8FB365-A02F-46D3-A65B-595A86BAB06C";
shapes = (
{
closed = 1;
nodes = (
(248,656,o),
(154,630,o),
(154,530,cs),
(154,450,o),
(215,418,o),
(284,399,cs),
(337,384,o),
(386,375,o),
(441,360,cs),
(524,336,o),
(589,292,o),
(589,198,cs),
(589,48,o),
(476,-8,o),
(341,-8,cs),
(218,-8,o),
(97,37,o),
(62,168,c),
(132,168,l),
(167,80,o),
(261,51,o),
(348,51,cs),
(431,51,o),
(522,86,o),
(522,182,cs),
(522,258,o),
(465,291,o),
(396,307,cs),
(343,320,o),
(292,329,o),
(239,344,c),
(148,368,o),
(86,423,o),
(86,522,cs),
(86,665,o),
(206,715,o),
(331,715,cs),
(445,715,o),
(553,667,o),
(569,543,c),
(503,543,l),
(487,630,o),
(410,656,o),
(331,656,cs)
);
}
);
width = 652;
}
);
unicode = 83;
},
{
glyphname = uni0421;
kernLeft = _kern7;
kernRight = _kern8;
layers = (
{
layerId = "ED8FB365-A02F-46D3-A65B-595A86BAB06C";
shapes = (
{
closed = 1;
nodes = (
(197,653,o),
(120,519,o),
(120,355,cs),
(120,191,o),
(198,51,o),
(378,51,cs),
(462,51,o),
(553,86,o),
(585,168,c),
(658,168,l),
(618,43,o),
(500,-8,o),
(376,-8,cs),
(155,-8,o),
(53,146,o),
(53,353,cs),
(53,559,o),
(160,715,o),
(378,715,cs),
(502,715,o),
(608,663,o),
(645,539,c),
(579,539,l),
(547,622,o),
(460,656,o),
(377,656,c)
);
}
);
width = 711;
}
);
unicode = 1057;
},
{
glyphname = G;
kernLeft = _kern3;
kernRight = _kern4;
layers = (
{
layerId = "ED8FB365-A02F-46D3-A65B-595A86BAB06C";
shapes = (
{
closed = 1;
nodes = (
(192,656,o),
(118,509,o),
(121,349,cs),
(124,187,o),
(198,51,o),
(377,51,cs),
(524,51,o),
(610,145,o),
(613,286,c),
(373,286,l),
(373,346,l),
(673,346,l),
(673,296,ls),
(673,116,o),
(557,-8,o),
(376,-8,cs),
(160,-8,o),
(57,141,o),
(54,344,cs),
(51,548,o),
(151,715,o),
(374,715,cs),
(499,715,o),
(611,664,o),
(651,539,c),
(578,539,l),
(546,621,o),
(457,656,o),
(375,656,cs)
);
}
);
width = 726;
}
);
unicode = 71;
},
{
glyphname = uni041E;
kernLeft = _kern7;
kernRight = _kern8;
layers = (
{
layerId = "ED8FB365-A02F-46D3-A65B-595A86BAB06C";
shapes = (
{
closed = 1;
nodes = (
(165,-8,o),
(53,145,o),
(53,353,cs),
(53,561,o),
(165,715,o),
(384,715,cs),
(602,715,o),
(714,560,o),
(714,353,cs),
(714,146,o),
(602,-8,o),
(384,-8,cs)
);
},
{
closed = 1;
nodes = (
(204,656,o),
(119,518,o),
(119,353,cs),
(119,188,o),
(206,51,o),
(384,51,cs),
(564,51,o),
(647,185,o),
(647,353,cs),
(647,518,o),
(563,656,o),
(384,656,cs)
);
}
);
width = 767;
}
);
unicode = 1054;
},
{
glyphname = Q;
kernLeft = _kern3;
kernRight = _kern4;
layers = (
{
layerId = "ED8FB365-A02F-46D3-A65B-595A86BAB06C";
shapes = (
{
closed = 1;
nodes = (
(165,-8,o),
(53,145,o),
(53,353,cs),
(53,561,o),
(165,715,o),
(384,715,cs),
(602,715,o),
(714,560,o),
(714,353,cs),
(714,228,o),
(673,122,o),
(592,58,c),
(700,-92,l),
(647,-131,l),
(536,23,l),
(491,2,o),
(441,-8,o),
(384,-8,cs)
);
},
{
closed = 1;
nodes = (
(204,656,o),
(119,518,o),
(119,353,cs),
(119,188,o),
(206,51,o),
(384,51,cs),
(564,51,o),
(647,185,o),
(647,353,cs),
(647,518,o),
(563,656,o),
(384,656,cs)
);
}
);
width = 767;
}
);
unicode = 81;
},
{
glyphname = J;
layers = (
{
layerId = "ED8FB365-A02F-46D3-A65B-595A86BAB06C";
shapes = (
{
closed = 1;
nodes = (
(115,179,l),
(126,91,o),
(178,51,o),
(265,51,cs),
(385,51,o),
(405,140,o),
(405,241,cs),
(405,707,l),
(470,707,l),
(470,239,ls),
(470,114,o),
(430,-8,o),
(260,-8,cs),
(139,-8,o),
(62,47,o),
(47,179,c)
);
}
);
width = 557;
}
);
unicode = 74;
},
{
glyphname = K_alt;
kernLeft = _kern16;
kernRight = _kern16;
layers = (
{
layerId = "ED8FB365-A02F-46D3-A65B-595A86BAB06C";
shapes = (
{
closed = 1;
nodes = (
(92,0,l),
(92,707,l),
(157,707,l),
(157,297,l),
(521,707,l),
(595,707,l),
(310,390,l),
(597,0,l),
(519,0,l),
(264,345,l),
(157,227,l),
(157,0,l)
);
}
);
width = 616;
}
);
},
{
glyphname = K;
kernLeft = _kern1;
kernRight = _kern16;
layers = (
{
layerId = "ED8FB365-A02F-46D3-A65B-595A86BAB06C";
shapes = (
{
closed = 1;
nodes = (
(92,0,l),
(92,707,l),
(157,707,l),
(157,372,l),
(281,372,l),
(518,707,l),
(595,707,l),
(342,355,l),
(597,0,l),
(519,0,l),
(292,312,l),
(157,312,l),
(157,0,l)
);
}
);
width = 616;
}
);
unicode = 75;
},
{
glyphname = k_alt;
kernLeft = _kern17;
kernRight = _kern17;
layers = (
{
layerId = "ED8FB365-A02F-46D3-A65B-595A86BAB06C";
shapes = (
{
closed = 1;
nodes = (
(72,0,l),
(72,707,l),
(138,707,l),
(138,236,l),
(413,527,l),
(488,527,l),
(278,308,l),
(504,0,l),
(428,0,l),
(233,264,l),
(138,164,l),
(138,0,l)
);
}
);
width = 523;
}
);
},
{
glyphname = k;
kernLeft = _kern17;
kernRight = _kern17;
layers = (
{
layerId = "ED8FB365-A02F-46D3-A65B-595A86BAB06C";
shapes = (
{
closed = 1;
nodes = (
(72,0,l),
(72,707,l),
(138,707,l),
(138,291,l),
(251,291,l),
(414,527,l),
(487,527,l),
(310,274,l),
(504,0,l),
(428,0,l),
(258,236,l),
(138,236,l),
(138,0,l)
);
}
);
width = 516;
}
);
unicode = 107;
},
{
glyphname = i_alt;
layers = (
{
layerId = "ED8FB365-A02F-46D3-A65B-595A86BAB06C";
shapes = (
{
closed = 1;
nodes = (
(106,0,l),
(106,472,l),
(17,472,l),
(17,527,l),
(172,527,l),
(172,0,l)
);
},
{
closed = 1;
nodes = (
(164,717,o),
(185,698,o),
(185,669,cs),
(185,638,o),
(164,620,o),
(135,620,cs),
(106,620,o),
(86,638,o),
(86,669,cs),
(86,700,o),
(106,717,o),
(135,717,cs)
);
}
);
width = 249;
}
);
},
{
glyphname = j_alt;
layers = (
{
layerId = "ED8FB365-A02F-46D3-A65B-595A86BAB06C";
shapes = (
{
closed = 1;
nodes = (
(184,-21,ls),
(184,-136,o),
(139,-187,o),
(23,-187,cs),
(-13,-187,l),
(-13,-133,l),
(75,-136,o),
(118,-120,o),
(118,-11,cs),
(118,472,l),
(29,472,l),
(29,527,l),
(184,527,l)
);
},
{
closed = 1;
nodes = (
(176,717,o),
(197,698,o),
(197,669,cs),
(197,638,o),
(176,620,o),
(147,620,cs),
(118,620,o),
(98,638,o),
(98,669,cs),
(98,700,o),
(118,717,o),
(147,717,cs)
);
}
);
width = 261;
}
);
},
{
glyphname = s_alt;
kernLeft = _kern5;
kernRight = _kern6;
layers = (
{
layerId = "ED8FB365-A02F-46D3-A65B-595A86BAB06C";
shapes = (
{
closed = 1;
nodes = (
(214,477,o),
(128,460,o),
(128,389,cs),
(128,333,o),
(178,308,o),
(225,300,cs),
(268,292,o),
(332,285,o),
(375,275,cs),
(447,259,o),
(495,221,o),
(495,144,cs),
(495,27,o),
(377,-6,o),
(277,-6,cs),
(187,-6,o),
(69,28,o),
(48,127,c),
(115,127,l),
(144,67,o),
(219,50,o),
(280,50,cs),
(340,50,o),
(430,62,o),
(430,140,cs),
(430,195,o),
(389,211,o),
(343,221,cs),
(302,230,o),
(232,239,o),
(193,247,cs),
(113,264,o),
(63,307,o),
(63,387,cs),
(63,500,o),
(182,533,o),
(276,533,cs),
(359,533,o),
(461,500,o),
(477,408,c),
(416,408,l),
(397,457,o),
(326,477,o),
(274,477,cs)
);
}
);
width = 544;
}
);
},
{
glyphname = s;
kernLeft = _kern5;
kernRight = _kern6;
layers = (
{
layerId = "ED8FB365-A02F-46D3-A65B-595A86BAB06C";
shapes = (
{
closed = 1;
nodes = (
(197,477,o),
(124,460,o),
(124,389,cs),
(124,332,o),
(173,312,o),
(220,302,cs),
(263,293,o),
(303,285,o),
(346,275,cs),
(417,259,o),
(466,221,o),
(466,144,cs),
(466,26,o),
(359,-6,o),
(260,-6,cs),
(170,-6,o),
(65,28,o),
(44,127,c),
(111,127,l),
(140,67,o),
(202,50,o),
(263,50,cs),
(324,50,o),
(401,62,o),
(401,140,cs),
(401,194,o),
(354,210,o),
(309,221,cs),
(268,230,o),
(229,236,o),
(186,247,cs),
(113,264,o),
(59,307,o),
(59,387,cs),
(59,501,o),
(165,533,o),
(259,533,cs),
(343,533,o),
(432,500,o),
(448,408,c),
(387,408,l),
(368,457,o),
(308,477,o),
(257,477,cs)
);
}
);
width = 510;
}
);
unicode = 115;
},
{
glyphname = c_alt;
kernLeft = _kern5;
kernRight = _kern6;
layers = (
{
layerId = "ED8FB365-A02F-46D3-A65B-595A86BAB06C";
shapes = (
{
closed = 1;
nodes = (
(131,-6,o),
(48,106,o),
(48,263,cs),
(48,423,o),
(137,533,o),
(301,533,cs),
(386,533,o),
(465,502,o),
(497,411,c),
(429,411,l),
(406,455,o),
(356,477,o),
(305,477,cs),
(176,477,o),
(113,384,o),
(113,263,cs),
(113,148,o),
(171,50,o),
(299,50,cs),
(350,50,o),
(402,64,o),
(430,109,c),
(501,109,l),
(466,29,o),
(380,-6,o),
(295,-6,cs)
);
}
);
width = 549;
}
);
},
{
glyphname = copyright;
layers = (
{
layerId = "ED8FB365-A02F-46D3-A65B-595A86BAB06C";
shapes = (
{
closed = 1;
nodes = (
(717,715,o),
(874,540,o),
(874,294,cs),
(874,49,o),
(722,-125,o),
(469,-125,cs),
(216,-125,o),
(64,49,o),
(64,294,cs),
(64,540,o),
(221,715,o),
(469,715,cs)
);
},
{
closed = 1;
nodes = (
(257,654,o),
(129,502,o),
(129,294,cs),
(129,88,o),
(256,-65,o),
(469,-65,cs),
(683,-65,o),
(809,90,o),
(809,294,cs),
(809,499,o),
(682,654,o),
(469,654,cs)
);
},
{
closed = 1;
nodes = (
(353,84,o),
(290,174,o),
(290,295,cs),
(290,412,o),
(353,506,o),
(483,506,cs),
(564,506,o),
(627,472,o),
(646,387,c),
(587,387,l),
(572,434,o),
(533,451,o),
(485,451,cs),
(386,451,o),
(351,379,o),
(351,295,cs),
(351,211,o),
(390,139,o),
(482,139,cs),
(529,139,o),
(573,154,o),
(589,202,c),
(651,202,l),
(628,121,o),
(562,84,o),
(481,84,cs)
);
}
);
width = 938;
}
);
unicode = 169;
},
{
glyphname = ampersand;
layers = (
{
layerId = "ED8FB365-A02F-46D3-A65B-595A86BAB06C";
shapes = (
{
closed = 1;
nodes = (
(489,69,l),
(429,16,o),
(362,-8,o),
(282,-8,cs),
(166,-8,o),
(72,55,o),
(72,178,cs),
(72,278,o),
(149,337,o),
(229,380,c),
(182,424,o),
(143,479,o),
(143,547,cs),
(143,655,o),
(218,715,o),
(322,715,cs),
(414,715,o),
(479,657,o),
(479,565,cs),
(479,472,o),
(408,416,o),
(317,368,c),
(491,163,l),
(522,204,o),
(538,248,o),
(546,299,c),
(609,299,l),
(601,231,o),
(571,174,o),
(534,118,c),
(639,0,l),
(552,0,l)
);
},
{
closed = 1;
nodes = (
(339,438,o),
(419,486,o),
(419,561,cs),
(419,621,o),
(372,657,o),
(315,656,cs),
(247,655,o),
(206,620,o),
(206,552,cs),
(206,484,o),
(242,453,o),
(282,405,c)
);
},
{
closed = 1;
nodes = (
(261,337,l),
(199,305,o),
(141,255,o),
(141,180,cs),
(141,94,o),
(218,51,o),
(296,51,cs),
(353,51,o),
(411,73,o),
(451,116,c)
);
}
);
width = 668;
}
);
unicode = 38;
},
{
glyphname = dollar;
layers = (
{
layerId = "ED8FB365-A02F-46D3-A65B-595A86BAB06C";
shapes = (
{
closed = 1;
nodes = (
(308,848,l),
(374,848,l),
(374,712,l),
(472,701,o),
(558,652,o),
(571,543,c),
(506,543,l),
(490,627,o),
(413,656,o),
(333,656,cs),
(250,656,o),
(156,630,o),
(156,530,cs),
(156,450,o),
(217,418,o),
(286,399,cs),
(339,384,o),
(389,376,o),
(442,361,cs),
(524,337,o),
(591,291,o),
(591,198,cs),
(591,56,o),
(492,0,o),
(368,-8,c),
(368,-142,l),
(303,-142,l),
(303,-7,l),
(194,1,o),
(96,52,o),
(64,168,c),
(134,168,l),
(169,80,o),
(262,51,o),
(350,51,cs),
(433,51,o),
(524,86,o),
(524,182,cs),
(524,257,o),
(466,291,o),
(398,307,cs),
(345,320,o),
(295,331,o),
(241,344,cs),
(150,366,o),
(88,423,o),
(88,522,cs),
(88,655,o),
(192,709,o),
(308,714,c)
);
}
);
width = 656;
}
);
unicode = 36;
},
{
glyphname = parenleft;
layers = (
{
layerId = "ED8FB365-A02F-46D3-A65B-595A86BAB06C";
shapes = (
{
closed = 1;
nodes = (
(250,-218,l),
(135,-79,o),
(70,121,o),
(70,302,cs),
(70,484,o),
(131,681,o),
(248,821,c),
(316,821,l),
(201,658,o),
(135,504,o),
(135,302,cs),
(135,100,o),
(200,-57,o),
(318,-218,c)
);
}
);
width = 293;
}
);
unicode = 40;
},
{
glyphname = parenright;
layers = (
{
layerId = "ED8FB365-A02F-46D3-A65B-595A86BAB06C";
shapes = (
{
closed = 1;
nodes = (
(-25,-218,l),
(92,-58,o),
(158,101,o),
(158,302,cs),
(158,503,o),
(91,659,o),
(-23,821,c),
(45,821,l),
(162,681,o),
(223,484,o),
(223,302,cs),
(223,121,o),
(158,-79,o),
(43,-218,c)
);
}
);
width = 293;
}
);
unicode = 41;
},
{
glyphname = cent;
layers = (
{
layerId = "ED8FB365-A02F-46D3-A65B-595A86BAB06C";
shapes = (
{
closed = 1;
nodes = (
(271,670,l),
(336,670,l),
(336,530,l),
(424,523,o),
(493,478,o),
(517,389,c),
(449,389,l),
(430,448,o),
(373,475,o),
(312,475,cs),
(184,475,o),
(129,377,o),
(129,260,cs),
(129,145,o),
(186,48,o),
(315,48,cs),
(379,48,o),
(433,68,o),
(456,133,c),
(524,133,l),
(500,42,o),
(421,1,o),
(336,-7,c),
(336,-165,l),
(271,-165,l),
(271,-6,l),
(202,4,o),
(151,33,o),
(116,81,cs),
(81,129,o),
(64,189,o),
(64,260,cs),
(64,404,o),
(135,509,o),
(271,528,c)
);
}
);
width = 588;
}
);
unicode = 162;
},
{
glyphname = section;
layers = (
{
layerId = "ED8FB365-A02F-46D3-A65B-595A86BAB06C";
shapes = (
{
closed = 1;
nodes = (
(243,662,o),
(215,658,o),
(189,646,cs),
(163,634,o),
(143,612,o),
(143,576,cs),
(143,535,o),
(178,511,o),
(214,502,cs),
(265,488,o),
(308,478,o),
(359,465,cs),
(427,449,o),
(484,421,o),
(481,343,cs),
(480,298,o),
(461,263,o),
(423,238,c),
(463,221,o),
(483,187,o),
(483,136,cs),
(483,24,o),
(381,-8,o),
(288,-8,cs),
(193,-8,o),
(91,19,o),
(64,123,c),
(131,123,l),
(155,67,o),
(227,47,o),
(279,47,cs),
(331,47,o),
(420,53,o),
(420,130,cs),
(420,183,o),
(372,201,o),
(328,209,cs),
(285,217,o),
(244,225,o),
(205,233,cs),
(128,248,o),
(74,289,o),
(74,366,cs),
(74,413,o),
(98,457,o),
(137,481,c),
(102,501,o),
(84,532,o),
(84,574,cs),
(84,684,o),
(185,715,o),
(278,715,cs),
(361,715,o),
(451,682,o),
(464,591,c),
(405,591,l),
(392,644,o),
(328,661,o),
(276,661,c)
);
},
{
closed = 1;
nodes = (
(154,431,o),
(136,401,o),
(136,370,cs),
(136,308,o),
(206,295,o),
(252,284,cs),
(291,275,o),
(329,271,o),
(369,264,c),
(392,275,o),
(421,300,o),
(421,336,cs),
(421,375,o),
(392,398,o),
(357,408,cs),
(294,426,o),
(242,432,o),
(185,451,c)
);
}
);
width = 548;
}
);
unicode = 167;
},
{
glyphname = uni04C1;
layers = (
{
layerId = "ED8FB365-A02F-46D3-A65B-595A86BAB06C";
shapes = (
{
closed = 1;
nodes = (
(396,0,l),
(396,317,l),
(266,317,l),
(96,0,l),
(19,0,l),
(211,357,l),
(19,707,l),
(92,707,l),
(269,377,l),
(396,377,l),
(396,707,l),
(461,707,l),
(461,377,l),
(589,377,l),
(767,707,l),
(838,707,l),
(646,357,l),
(839,0,l),
(760,0,l),
(591,317,l),
(461,317,l),
(461,0,l)
);
},
{
closed = 1;
nodes = (
(483,848,o),
(537,868,o),
(545,927,c),
(606,927,l),
(598,827,o),
(516,794,o),
(429,794,cs),
(345,794,o),
(259,826,o),
(251,927,c),
(312,927,l),
(323,868,o),
(374,848,o),
(429,848,cs)
);
}
);
width = 858;
}
);
unicode = 1217;
},
{
glyphname = uni04C2;
layers = (
{
layerId = "ED8FB365-A02F-46D3-A65B-595A86BAB06C";
shapes = (
{
closed = 1;
nodes = (
(342,0,l),
(342,237,l),
(239,237,l),
(94,0,l),
(19,0,l),
(189,277,l),
(34,527,l),
(107,527,l),
(249,292,l),
(342,292,l),
(342,527,l),
(408,527,l),
(408,292,l),
(501,292,l),
(643,527,l),
(716,527,l),
(561,277,l),
(732,0,l),
(657,0,l),
(511,237,l),
(408,237,l),
(408,0,l)
);
},
{
closed = 1;
nodes = (
(421,668,o),
(475,680,o),
(483,740,c),
(543,740,l),
(535,647,o),
(456,617,o),
(373,617,cs),
(290,617,o),
(216,647,o),
(208,740,c),
(268,740,l),
(276,680,o),
(329,668,o),
(375,668,cs)
);
}
);
width = 751;
}
);
unicode = 1218;
},
{
glyphname = w_alt;
kernLeft = _kern20;
kernRight = _kern20;
layers = (
{
layerId = "ED8FB365-A02F-46D3-A65B-595A86BAB06C";
shapes = (
{
closed = 1;
nodes = (
(541,55,l),
(672,527,l),
(746,527,l),
(591,0,l),
(495,0,l),
(384,339,l),
(275,0,l),
(178,0,l),
(19,527,l),
(94,527,l),
(228,55,l),
(339,402,l),
(428,402,l)
);
}
);
width = 765;
}
);
},
{
glyphname = W_alt;
kernLeft = _kern19;
kernRight = _kern19;
layers = (
{
layerId = "ED8FB365-A02F-46D3-A65B-595A86BAB06C";
shapes = (
{
closed = 1;
nodes = (
(493,549,l),
(641,60,l),
(809,707,l),
(883,707,l),
(691,0,l),
(590,0,l),
(451,455,l),
(313,0,l),
(211,0,l),
(19,707,l),
(94,707,l),
(262,60,l),
(411,549,l)
);
}
);
width = 902;
}
);
},
{
glyphname = zero;
layers = (
{
layerId = "ED8FB365-A02F-46D3-A65B-595A86BAB06C";
shapes = (
{
closed = 1;
nodes = (
(607,173,o),
(545,-8,o),
(334,-8,cs),
(123,-8,o),
(62,172,o),
(62,353,cs),
(62,532,o),
(124,715,o),
(334,715,cs),
(545,715,o),
(607,532,o),
(607,353,cs)
);
},
{
closed = 1;
nodes = (
(129,213,o),
(162,51,o),
(334,51,cs),
(507,51,o),
(539,213,o),
(539,353,cs),
(539,491,o),
(505,656,o),
(334,656,cs),
(163,656,o),
(129,491,o),
(129,353,cs)
);
}
);
width = 668;
}
);
unicode = 48;
},
{
glyphname = one;
layers = (
{
layerId = "ED8FB365-A02F-46D3-A65B-595A86BAB06C";
shapes = (
{
closed = 1;
nodes = (
(237,0,l),
(172,0,l),
(172,585,l),
(30,585,l),
(30,624,l),
(103,627,o),
(161,635,o),
(193,707,c),
(237,707,l)
);
}
);
width = 349;
}
);
unicode = 49;
},
{
glyphname = two;
layers = (
{
layerId = "ED8FB365-A02F-46D3-A65B-595A86BAB06C";
shapes = (
{
closed = 1;
nodes = (
(438,607,o),
(370,656,o),
(281,656,cs),
(216,656,o),
(154,631,o),
(129,571,c),
(56,571,l),
(83,671,o),
(189,715,o),
(285,715,cs),
(410,715,o),
(504,646,o),
(504,515,cs),
(504,387,o),
(421,310,o),
(330,233,cs),
(128,60,l),
(512,60,l),
(512,0,l),
(35,0,l),
(35,62,l),
(239,236,ls),
(324,308,o),
(438,392,o),
(438,513,cs)
);
}
);
width = 567;
}
);
unicode = 50;
},
{
glyphname = three;
layers = (
{
layerId = "ED8FB365-A02F-46D3-A65B-595A86BAB06C";
shapes = (
{
closed = 1;
nodes = (
(106,141,l),
(127,72,o),
(221,51,o),
(285,51,cs),
(380,51,o),
(469,83,o),
(469,193,cs),
(469,310,o),
(370,330,o),
(274,330,cs),
(201,330,l),
(201,390,l),
(249,390,ls),
(300,390,o),
(351,399,o),
(391,431,cs),
(420,454,o),
(440,489,o),
(441,526,cs),
(444,622,o),
(365,656,o),
(281,656,cs),
(215,656,o),
(142,636,o),
(126,568,c),
(58,568,l),
(71,677,o),
(189,715,o),
(285,715,cs),
(397,715,o),
(504,670,o),
(504,539,cs),
(504,463,o),
(459,395,o),
(386,372,c),
(479,353,o),
(536,289,o),
(536,193,cs),
(536,45,o),
(413,-8,o),
(284,-8,cs),
(180,-8,o),
(60,28,o),
(38,141,c)
);
}
);
width = 598;
}
);
unicode = 51;
},
{
glyphname = four;
layers = (
{
layerId = "ED8FB365-A02F-46D3-A65B-595A86BAB06C";
shapes = (
{
closed = 1;
nodes = (
(428,146,l),
(47,146,l),
(47,198,l),
(397,707,l),
(493,707,l),
(493,206,l),
(581,206,l),
(581,146,l),
(493,146,l),
(493,0,l),
(428,0,l)
);
},
{
closed = 1;
nodes = (
(428,647,l),
(126,206,l),
(428,206,l)
);
}
);
width = 623;
}
);
unicode = 52;
},
{
glyphname = seven;
layers = (
{
layerId = "ED8FB365-A02F-46D3-A65B-595A86BAB06C";
shapes = (
{
closed = 1;
nodes = (
(112,0,l),
(407,647,l),
(17,647,l),
(17,707,l),
(477,707,l),
(477,646,l),
(186,0,l)
);
}
);
width = 505;
}
);
unicode = 55;
},
{
glyphname = eight;
layers = (
{
layerId = "ED8FB365-A02F-46D3-A65B-595A86BAB06C";
shapes = (
{
closed = 1;
nodes = (
(553,48,o),
(435,-8,o),
(307,-8,cs),
(178,-8,o),
(62,45,o),
(62,192,cs),
(62,278,o),
(121,339,o),
(196,363,c),
(124,386,o),
(84,452,o),
(84,532,cs),
(84,661,o),
(194,715,o),
(308,715,cs),
(421,715,o),
(532,661,o),
(532,532,cs),
(532,452,o),
(487,389,o),
(418,366,c),
(498,343,o),
(553,280,o),
(553,192,cs)
);
},
{
closed = 1;
nodes = (
(220,656,o),
(152,617,o),
(152,521,cs),
(152,428,o),
(224,388,o),
(308,388,cs),
(384,388,o),
(464,430,o),
(464,517,cs),
(464,616,o),
(399,656,o),
(308,656,cs)
);
},
{
closed = 1;
nodes = (
(220,331,o),
(129,294,o),
(129,191,cs),
(129,86,o),
(218,51,o),
(308,51,cs),
(398,51,o),
(485,86,o),
(485,191,cs),
(485,294,o),
(395,331,o),
(308,331,cs)
);
}
);
width = 615;
}
);
unicode = 56;
},
{
glyphname = nine;
layers = (
{
layerId = "ED8FB365-A02F-46D3-A65B-595A86BAB06C";
shapes = (
{
closed = 1;
nodes = (
(155,265,o),
(61,353,o),
(61,485,cs),
(61,626,o),
(159,715,o),
(298,715,cs),
(390,715,o),
(459,675,o),
(506,596,cs),
(548,526,o),
(560,427,o),
(560,353,cs),
(561,272,o),
(551,180,o),
(510,108,cs),
(463,24,o),
(386,-8,o),
(291,-8,cs),
(197,-8,o),
(103,31,o),
(73,128,c),
(145,128,l),
(173,75,o),
(232,51,o),
(293,51,cs),
(377,51,o),
(435,90,o),
(467,167,cs),
(491,224,o),
(497,294,o),
(497,355,cs),
(497,364,o),
(496,378,o),
(496,387,c),
(485,355,o),
(462,327,o),
(435,307,cs),
(392,276,o),
(336,264,o),
(283,264,cs)
);
},
{
closed = 1;
nodes = (
(126,389,o),
(191,325,o),
(295,325,cs),
(386,325,o),
(466,388,o),
(466,483,cs),
(466,582,o),
(396,656,o),
(296,656,cs),
(203,656,o),
(126,588,o),
(126,493,cs)
);
}
);
width = 622;
}
);
unicode = 57;
},
{
glyphname = uni0430;
kernLeft = _kern27;
kernRight = _kern27;
layers = (
{
layerId = "ED8FB365-A02F-46D3-A65B-595A86BAB06C";
shapes = (
{
closed = 1;
nodes = (
(430,76,l),
(379,15,o),
(314,-6,o),
(237,-6,cs),
(145,-6,o),
(54,41,o),
(54,145,cs),
(54,265,o),
(151,301,o),
(254,301,cs),
(427,301,l),
(427,397,o),
(390,477,o),
(283,477,cs),
(232,477,o),
(177,463,o),
(152,414,c),
(80,414,l),
(104,502,o),
(200,533,o),
(285,533,cs),
(441,533,o),
(493,424,o),
(493,286,cs),
(493,0,l),
(439,0,l)
);
},
{
closed = 1;
nodes = (
(288,248,ls),
(219,248,o),
(120,244,o),
(120,152,cs),
(120,81,o),
(181,49,o),
(245,49,cs),
(350,49,o),
(427,103,o),
(427,212,cs),
(427,248,l)
);
}
);
width = 563;
}
);
unicode = 1072;
},
{
glyphname = uni0435;
kernLeft = _kern9;
kernRight = _kern10;
layers = (
{
layerId = "ED8FB365-A02F-46D3-A65B-595A86BAB06C";
shapes = (
{
closed = 1;
nodes = (
(117,242,l),
(122,131,o),
(183,50,o),
(302,50,cs),
(357,50,o),
(422,69,o),
(446,124,c),
(515,124,l),
(485,30,o),
(390,-6,o),
(299,-6,cs),
(133,-6,o),
(52,106,o),
(52,263,cs),
(52,424,o),
(139,533,o),
(300,533,cs),
(467,533,o),
(530,389,o),
(525,242,c)
);
},
{
closed = 1;
nodes = (
(458,297,l),
(455,394,o),
(402,477,o),
(292,477,cs),
(183,477,o),
(123,390,o),
(118,297,c)
);
}
);
width = 577;
}
);
unicode = 1077;
},
{
glyphname = uni043E;
kernLeft = _kern9;
kernRight = _kern10;
layers = (
{
layerId = "ED8FB365-A02F-46D3-A65B-595A86BAB06C";
shapes = (
{
closed = 1;
nodes = (
(430,50,o),
(485,145,o),
(485,263,cs),
(485,380,o),
(430,477,o),
(301,477,cs),
(172,477,o),
(117,380,o),
(117,263,cs),
(117,145,o),
(172,50,o),
(301,50,cs)
);
},
{
closed = 1;
nodes = (
(465,533,o),
(551,420,o),
(551,263,cs),
(551,106,o),
(465,-6,o),
(301,-6,cs),
(136,-6,o),
(52,106,o),
(52,263,cs),
(52,420,o),
(136,533,o),
(301,533,cs)
);
}
);
width = 603;
}
);
unicode = 1086;
},
{
glyphname = uni0441;
kernLeft = _kern9;
kernRight = _kern10;
layers = (
{
layerId = "ED8FB365-A02F-46D3-A65B-595A86BAB06C";
shapes = (
{
closed = 1;
nodes = (
(135,-6,o),
(52,107,o),
(52,262,cs),
(52,421,o),
(139,533,o),
(304,533,cs),
(400,533,o),
(479,487,o),
(504,391,c),
(437,391,l),
(418,450,o),
(361,477,o),
(300,477,cs),
(175,477,o),
(117,379,o),
(117,262,cs),
(117,147,o),
(171,50,o),
(300,50,cs),
(364,50,o),
(421,70,o),
(444,135,c),
(512,135,l),
(483,37,o),
(394,-6,o),
(299,-6,cs)
);
}
);
width = 558;
}
);
unicode = 1089;
},
{
glyphname = uni0218;
layers = (
{
layerId = "ED8FB365-A02F-46D3-A65B-595A86BAB06C";
shapes = (
{
closed = 1;
nodes = (
(362,-91,o),
(380,-123,o),
(380,-158,cs),
(380,-218,o),
(345,-280,o),
(288,-304,c),
(272,-278,l),
(301,-259,o),
(321,-232,o),
(328,-193,c),
(293,-196,o),
(274,-174,o),
(274,-142,cs),
(274,-113,o),
(295,-91,o),
(326,-91,cs)
);
},
{
closed = 1;
nodes = (
(239,656,o),
(145,630,o),
(145,530,cs),
(145,450,o),
(206,418,o),
(275,399,cs),
(328,384,o),
(377,375,o),
(432,360,cs),
(515,336,o),
(580,292,o),
(580,198,cs),
(580,48,o),
(467,-8,o),
(332,-8,cs),
(209,-8,o),
(88,37,o),
(53,168,c),
(123,168,l),
(158,80,o),
(252,51,o),
(339,51,cs),
(422,51,o),
(513,86,o),
(513,182,cs),
(513,258,o),
(456,291,o),
(387,307,cs),
(334,320,o),
(283,329,o),
(230,344,c),
(139,368,o),
(77,423,o),
(77,522,cs),
(77,665,o),
(197,715,o),
(322,715,cs),
(436,715,o),
(544,667,o),
(560,543,c),
(494,543,l),
(478,630,o),
(401,656,o),
(322,656,cs)
);
}
);
width = 634;
}
);
unicode = 536;
},
{
glyphname = uni0219;
kernLeft = _kern5;
kernRight = _kern6;
layers = (
{
layerId = "ED8FB365-A02F-46D3-A65B-595A86BAB06C";
shapes = (
{
closed = 1;
nodes = (
(297,-91,o),
(315,-125,o),
(315,-158,cs),
(315,-218,o),
(280,-280,o),
(223,-304,c),
(207,-278,l),
(236,-259,o),
(256,-232,o),
(263,-193,c),
(228,-196,o),
(209,-174,o),
(209,-142,cs),
(209,-113,o),
(230,-91,o),
(261,-91,cs)
);
},
{
closed = 1;
nodes = (
(201,477,o),
(128,460,o),
(128,389,cs),
(128,332,o),
(177,312,o),
(224,302,cs),
(267,293,o),
(307,285,o),
(350,275,cs),
(421,259,o),
(470,221,o),
(470,144,cs),
(470,26,o),
(363,-6,o),
(264,-6,cs),
(174,-6,o),
(69,28,o),
(48,127,c),
(115,127,l),
(144,67,o),
(206,50,o),
(267,50,cs),
(328,50,o),
(405,62,o),
(405,140,cs),
(405,194,o),
(358,210,o),
(313,221,cs),
(272,230,o),
(232,237,o),
(193,246,cs),
(110,265,o),
(63,307,o),
(63,387,cs),
(63,500,o),
(169,533,o),
(263,533,cs),
(347,533,o),
(436,500,o),
(452,408,c),
(391,408,l),
(372,457,o),
(312,477,o),
(261,477,cs)
);
}
);
width = 519;
}
);
unicode = 537;
},
{
glyphname = uni021A;
kernLeft = _kern28;
kernRight = _kern28;
layers = (
{
layerId = "ED8FB365-A02F-46D3-A65B-595A86BAB06C";
shapes = (
{
closed = 1;
nodes = (
(326,-91,o),
(343,-127,o),
(343,-158,cs),
(343,-218,o),
(308,-280,o),
(251,-304,c),
(235,-278,l),
(264,-259,o),
(284,-232,o),
(291,-193,c),
(256,-196,o),
(237,-174,o),
(237,-142,cs),
(237,-113,o),
(258,-91,o),
(289,-91,cs)
);
},
{
closed = 1;
nodes = (
(552,647,l),
(318,647,l),
(318,0,l),
(253,0,l),
(253,647,l),
(19,647,l),
(19,707,l),
(552,707,l)
);
}
);
width = 571;
}
);
unicode = 538;
},
{
glyphname = uni021B;
kernLeft = _kern21;
kernRight = _kern21;
layers = (
{
layerId = "ED8FB365-A02F-46D3-A65B-595A86BAB06C";
shapes = (
{
closed = 1;
nodes = (
(254,-91,o),
(271,-126,o),
(271,-158,cs),
(271,-218,o),
(236,-280,o),
(179,-304,c),
(163,-278,l),
(192,-259,o),
(212,-232,o),
(219,-193,c),
(184,-196,o),
(165,-174,o),
(165,-142,cs),
(165,-113,o),
(186,-91,o),
(217,-91,cs)
);
},
{
closed = 1;
nodes = (
(189,527,l),
(336,527,l),
(336,471,l),
(189,471,l),
(189,175,ls),
(189,139,o),
(192,93,o),
(225,72,cs),
(242,61,o),
(268,57,o),
(291,57,cs),
(331,57,l),
(331,0,l),
(285,0,ls),
(240,0,o),
(192,6,o),
(159,41,cs),
(134,68,o),
(123,114,o),
(123,171,cs),
(123,471,l),
(34,471,l),
(34,527,l),
(123,527,l),
(123,678,l),
(189,678,l)
);
}
);
width = 380;
}
);
unicode = 539;
},
{
glyphname = icircumflex;
layers = (
{
layerId = "ED8FB365-A02F-46D3-A65B-595A86BAB06C";
shapes = (
{
closed = 1;
nodes = (
(82,527,l),
(148,527,l),
(148,0,l),
(82,0,l)
);
},
{
closed = 1;
nodes = (
(114,737,l),
(36,640,l),
(-29,640,l),
(94,786,l),
(135,786,l),
(258,640,l),
(196,640,l)
);
}
);
width = 239;
}
);
unicode = 238;
},
{
glyphname = question;
layers = (
{
layerId = "ED8FB365-A02F-46D3-A65B-595A86BAB06C";
shapes = (
{
closed = 1;
nodes = (
(198,216,l),
(195,248,o),
(204,282,o),
(221,309,cs),
(248,350,o),
(290,382,o),
(324,418,cs),
(358,453,o),
(385,492,o),
(385,539,cs),
(385,616,o),
(323,656,o),
(251,656,cs),
(191,656,o),
(129,637,o),
(111,574,c),
(42,574,l),
(61,672,o),
(160,715,o),
(253,715,cs),
(361,715,o),
(450,659,o),
(450,543,cs),
(450,464,o),
(408,417,o),
(354,365,cs),
(333,346,o),
(311,323,o),
(292,300,cs),
(271,273,o),
(266,248,o),
(265,216,c)
);
},
{
closed = 1;
nodes = (
(262,94,o),
(282,73,o),
(282,44,cs),
(282,15,o),
(262,-8,o),
(231,-8,cs),
(200,-8,o),
(181,15,o),
(181,44,cs),
(181,73,o),
(200,94,o),
(231,94,cs)
);
}
);
width = 510;
}
);
unicode = 63;
},
{
glyphname = uni2116;
layers = (
{
layerId = "ED8FB365-A02F-46D3-A65B-595A86BAB06C";
shapes = (
{
closed = 1;
nodes = (
(756,415,o),
(707,480,o),
(707,565,cs),
(707,653,o),
(756,715,o),
(848,715,cs),
(938,715,o),
(986,650,o),
(986,565,cs),
(986,482,o),
(935,415,o),
(847,415,cs)
);
},
{
closed = 1;
nodes = (
(787,665,o),
(760,621,o),
(760,565,cs),
(760,508,o),
(786,465,o),
(847,465,cs),
(907,465,o),
(930,510,o),
(930,565,cs),
(930,621,o),
(904,664,o),
(847,664,cs)
);
},
{
closed = 1;
nodes = (
(64,0,l),
(64,707,l),
(166,707,l),
(555,64,l),
(555,707,l),
(620,707,l),
(620,0,l),
(520,0,l),
(129,641,l),
(129,0,l)
);
},
{
closed = 1;
nodes = (
(979,282,l),
(714,282,l),
(714,342,l),
(979,342,l)
);
}
);
width = 1050;
}
);
unicode = 8470;
},
{
glyphname = uni0401;
layers = (
{
layerId = "ED8FB365-A02F-46D3-A65B-595A86BAB06C";
shapes = (
{
closed = 1;
nodes = (
(237,925,o),
(257,907,o),
(257,879,cs),
(257,848,o),
(241,830,o),
(210,830,cs),
(179,830,o),
(162,848,o),
(162,879,cs),
(162,907,o),
(183,925,o),
(210,925,cs)
);
},
{
closed = 1;
nodes = (
(476,925,o),
(496,907,o),
(496,879,cs),
(496,848,o),
(480,830,o),
(449,830,cs),
(418,830,o),
(402,848,o),
(402,879,cs),
(402,907,o),
(422,925,o),
(449,925,cs)
);
},
{
closed = 1;
nodes = (
(92,707,l),
(557,707,l),
(557,647,l),
(157,647,l),
(157,381,l),
(517,381,l),
(517,321,l),
(157,321,l),
(157,60,l),
(557,60,l),
(557,0,l),
(92,0,l)
);
}
);
width = 610;
}
);
unicode = 1025;
},
{
glyphname = asciitilde;
layers = (
{
layerId = "ED8FB365-A02F-46D3-A65B-595A86BAB06C";
shapes = (
{
closed = 1;
nodes = (
(316,443,o),
(357,330,o),
(420,330,cs),
(471,330,o),
(477,385,o),
(480,426,c),
(542,426,l),
(537,346,o),
(508,273,o),
(416,273,cs),
(320,273,o),
(282,385,o),
(218,385,cs),
(170,385,o),
(160,328,o),
(160,288,c),
(97,288,l),
(100,368,o),
(132,443,o),
(223,443,cs)
);
}
);
width = 639;
}
);
unicode = 126;
},
{
glyphname = trademark;
layers = (
{
layerId = "ED8FB365-A02F-46D3-A65B-595A86BAB06C";
shapes = (
{
closed = 1;
nodes = (
(152,669,l),
(64,669,l),
(64,707,l),
(282,707,l),
(282,669,l),
(193,669,l),
(193,459,l),
(152,459,l)
);
},
{
closed = 1;
nodes = (
(431,515,l),
(361,668,l),
(361,459,l),
(320,459,l),
(320,707,l),
(385,707,l),
(446,571,l),
(507,707,l),
(570,707,l),
(570,459,l),
(529,459,l),
(529,668,l),
(459,515,l)
);
}
);
width = 634;
}
);
unicode = 8482;
},
{
glyphname = registered;
layers = (
{
layerId = "ED8FB365-A02F-46D3-A65B-595A86BAB06C";
shapes = (
{
closed = 1;
nodes = (
(355,745,o),
(425,669,o),
(425,558,cs),
(425,446,o),
(354,377,o),
(242,377,cs),
(130,377,o),
(57,445,o),
(57,558,cs),
(57,670,o),
(129,745,o),
(242,745,cs)
);
},
{
closed = 1;
nodes = (
(150,711,o),
(94,649,o),
(94,558,cs),
(94,467,o),
(150,412,o),
(242,412,cs),
(333,412,o),
(387,467,o),
(387,558,cs),
(387,649,o),
(334,711,o),
(242,711,cs)
);
},
{
closed = 1;
nodes = (
(288,471,l),
(243,540,l),
(206,540,l),
(206,471,l),
(175,471,l),
(175,656,l),
(254,656,ls),
(293,656,o),
(319,640,o),
(319,599,cs),
(319,568,o),
(302,551,o),
(278,543,c),
(326,471,l)
);
},
{
closed = 1;
nodes = (
(206,625,l),
(206,568,l),
(251,568,ls),
(270,568,o),
(287,575,o),
(287,598,cs),
(287,618,o),
(272,625,o),
(253,625,cs)
);
}
);
width = 482;
}
);
unicode = 174;
},
{
glyphname = degree;
layers = (
{
layerId = "ED8FB365-A02F-46D3-A65B-595A86BAB06C";
shapes = (
{
closed = 1;
nodes = (
(235,617,o),
(264,652,o),
(264,701,cs),
(264,750,o),
(235,786,o),
(184,786,cs),
(133,786,o),
(103,750,o),
(103,701,cs),
(103,650,o),
(133,617,o),
(184,617,cs)
);
},
{
closed = 1;
nodes = (
(108,581,o),
(64,629,o),
(64,701,cs),
(64,772,o),
(110,821,o),
(185,821,cs),
(260,821,o),
(303,770,o),
(303,701,cs),
(303,630,o),
(259,581,o),
(184,581,cs)
);
}
);
width = 367;
}
);
unicode = 176;
},
{
glyphname = bullet;
layers = (
{
layerId = "ED8FB365-A02F-46D3-A65B-595A86BAB06C";
shapes = (
{
closed = 1;
nodes = (
(221,464,o),
(259,422,o),
(259,366,cs),
(259,310,o),
(222,266,o),
(161,266,cs),
(101,266,o),
(64,310,o),
(64,366,cs),
(64,422,o),
(102,464,o),
(161,464,cs)
);
}
);
width = 323;
}
);
unicode = 8226;
},
{
glyphname = uni27F5;
layers = (
{
layerId = "ED8FB365-A02F-46D3-A65B-595A86BAB06C";
shapes = (
{
closed = 1;
nodes = (
(1307,235,l),
(178,235,l),
(415,-1,l),
(372,-47,l),
(64,265,l),
(372,578,l),
(415,532,l),
(178,295,l),
(1307,295,l)
);
}
);
width = 1371;
}
);
unicode = 10229;
},
{
glyphname = uni27F6;
layers = (
{
layerId = "ED8FB365-A02F-46D3-A65B-595A86BAB06C";
shapes = (
{
closed = 1;
nodes = (
(64,295,l),
(1193,295,l),
(956,532,l),
(999,578,l),
(1307,265,l),
(999,-47,l),
(956,-1,l),
(1193,235,l),
(64,235,l)
);
}
);
width = 1371;
}
);
unicode = 10230;
},
{
glyphname = arrowup;
layers = (
{
layerId = "ED8FB365-A02F-46D3-A65B-595A86BAB06C";
shapes = (
{
closed = 1;
nodes = (
(383,0,l),
(325,0,l),
(325,554,l),
(107,294,l),
(64,332,l),
(354,668,l),
(645,332,l),
(601,294,l),
(383,554,l)
);
}
);
width = 709;
}
);
unicode = 8593;
},
{
glyphname = arrowdown;
layers = (
{
layerId = "ED8FB365-A02F-46D3-A65B-595A86BAB06C";
shapes = (
{
closed = 1;
nodes = (
(326,668,l),
(384,668,l),
(384,114,l),
(602,374,l),
(645,336,l),
(355,0,l),
(64,336,l),
(108,374,l),
(326,114,l)
);
}
);
width = 709;
}
);
unicode = 8595;
},
{
glyphname = uni21BA;
layers = (
{
layerId = "ED8FB365-A02F-46D3-A65B-595A86BAB06C";
shapes = (
{
closed = 1;
nodes = (
(614,710,l),
(742,630,o),
(817,492,o),
(817,328,cs),
(817,114,o),
(662,-51,o),
(446,-51,cs),
(218,-51,o),
(65,108,o),
(65,335,cs),
(65,456,o),
(106,568,o),
(193,655,c),
(239,607,l),
(171,531,o),
(132,436,o),
(132,335,cs),
(132,155,o),
(255,13,o),
(440,13,cs),
(627,13,o),
(749,149,o),
(749,331,cs),
(749,456,o),
(683,584,o),
(574,664,c),
(569,424,l),
(505,424,l),
(514,771,l),
(863,761,l),
(861,699,l)
);
}
);
width = 927;
}
);
unicode = 8634;
},
{
glyphname = uni21BB;
layers = (
{
layerId = "ED8FB365-A02F-46D3-A65B-595A86BAB06C";
shapes = (
{
closed = 1;
nodes = (
(66,699,l),
(64,761,l),
(413,771,l),
(422,424,l),
(358,424,l),
(353,664,l),
(244,584,o),
(178,456,o),
(178,331,cs),
(178,149,o),
(300,13,o),
(487,13,cs),
(670,13,o),
(795,155,o),
(795,335,cs),
(795,436,o),
(756,531,o),
(688,607,c),
(734,655,l),
(821,568,o),
(862,456,o),
(862,335,cs),
(862,108,o),
(709,-51,o),
(481,-51,cs),
(265,-51,o),
(110,114,o),
(110,328,cs),
(110,492,o),
(185,630,o),
(313,710,c)
);
}
);
width = 927;
}
);
unicode = 8635;
},
{
glyphname = uni21B7;
layers = (
{
layerId = "ED8FB365-A02F-46D3-A65B-595A86BAB06C";
shapes = (
{
closed = 1;
nodes = (
(935,147,l),
(956,85,l),
(628,-28,l),
(525,306,l),
(584,325,l),
(655,81,l),
(716,169,o),
(742,275,o),
(742,351,cs),
(742,534,o),
(626,673,o),
(437,673,cs),
(267,673,o),
(153,550,o),
(132,388,c),
(64,388,l),
(88,589,o),
(228,739,o),
(437,739,cs),
(667,739,o),
(808,574,o),
(808,351,cs),
(808,249,o),
(772,134,o),
(708,57,c)
);
}
);
width = 1020;
}
);
unicode = 8631;
},
{
glyphname = uni21B6;
layers = (
{
layerId = "ED8FB365-A02F-46D3-A65B-595A86BAB06C";
shapes = (
{
closed = 1;
nodes = (
(309,57,l),
(245,134,o),
(211,249,o),
(211,351,cs),
(211,574,o),
(352,739,o),
(582,739,cs),
(791,739,o),
(931,589,o),
(955,388,c),
(887,388,l),
(866,550,o),
(750,673,o),
(582,673,cs),
(393,673,o),
(277,534,o),
(277,351,cs),
(277,275,o),
(303,169,o),
(364,81,c),
(434,325,l),
(493,306,l),
(391,-30,l),
(64,85,l),
(84,147,l)
);
}
);
width = 1019;
}
);
unicode = 8630;
},
{
glyphname = five;
layers = (
{
layerId = "ED8FB365-A02F-46D3-A65B-595A86BAB06C";
shapes = (
{
closed = 1;
nodes = (
(85,320,l),
(119,707,l),
(530,707,l),
(530,647,l),
(177,647,l),
(153,386,l),
(204,427,o),
(266,446,o),
(334,446,cs),
(467,446,o),
(556,357,o),
(556,224,cs),
(556,73,o),
(445,-8,o),
(304,-8,cs),
(200,-8,o),
(96,34,o),
(67,143,c),
(136,143,l),
(162,83,o),
(239,51,o),
(301,51,cs),
(410,51,o),
(488,104,o),
(488,219,cs),
(488,327,o),
(419,386,o),
(314,386,cs),
(258,386,o),
(202,360,o),
(161,320,c)
);
}
);
width = 615;
}
);
unicode = 53;
},
{
glyphname = six;
layers = (
{
layerId = "ED8FB365-A02F-46D3-A65B-595A86BAB06C";
shapes = (
{
closed = 1;
nodes = (
(474,445,o),
(566,354,o),
(566,223,cs),
(566,84,o),
(466,-8,o),
(328,-8,cs),
(231,-8,o),
(153,34,o),
(108,121,cs),
(73,189,o),
(63,279,o),
(64,352,cs),
(65,453,o),
(89,572,o),
(164,645,cs),
(209,690,o),
(270,715,o),
(345,715,cs),
(438,715,o),
(520,667,o),
(556,579,c),
(486,579,l),
(458,630,o),
(399,656,o),
(343,656,cs),
(259,656,o),
(206,615,o),
(174,556,cs),
(138,489,o),
(129,401,o),
(129,330,c),
(169,405,o),
(254,445,o),
(339,445,cs)
);
},
{
closed = 1;
nodes = (
(500,312,o),
(434,385,o),
(334,385,cs),
(240,385,o),
(152,314,o),
(155,218,cs),
(158,122,o),
(236,51,o),
(329,51,cs),
(421,51,o),
(500,118,o),
(500,214,cs)
);
}
);
width = 626;
}
);
unicode = 54;
},
{
glyphname = dieresis;
layers = (
{
layerId = "ED8FB365-A02F-46D3-A65B-595A86BAB06C";
shapes = (
{
closed = 1;
nodes = (
(421,707,o),
(441,685,o),
(441,656,cs),
(441,628,o),
(422,605,o),
(390,605,cs),
(359,605,o),
(340,628,o),
(340,656,cs),
(340,685,o),
(359,707,o),
(390,707,cs)
);
},
{
closed = 1;
nodes = (
(203,707,o),
(223,685,o),
(223,656,cs),
(223,628,o),
(204,605,o),
(172,605,cs),
(141,605,o),
(122,628,o),
(122,656,cs),
(122,685,o),
(141,707,o),
(172,707,cs)
);
}
);
width = 563;
}
);
unicode = 168;
},
{
glyphname = adieresis;
kernLeft = _kern27;
kernRight = _kern27;
layers = (
{
layerId = "ED8FB365-A02F-46D3-A65B-595A86BAB06C";
shapes = (
{
closed = 1;
nodes = (
(198,719,o),
(221,699,o),
(221,671,cs),
(221,643,o),
(198,623,o),
(171,623,cs),
(144,623,o),
(122,644,o),
(122,671,cs),
(122,698,o),
(144,719,o),
(171,719,cs)
);
},
{
closed = 1;
nodes = (
(428,719,o),
(451,699,o),
(451,671,cs),
(451,643,o),
(428,623,o),
(401,623,cs),
(374,623,o),
(353,644,o),
(353,671,cs),
(353,698,o),
(374,719,o),
(401,719,cs)
);
},
{
closed = 1;
nodes = (
(430,76,l),
(379,13,o),
(314,-6,o),
(237,-6,cs),
(144,-6,o),
(54,42,o),
(54,145,cs),
(54,265,o),
(151,301,o),
(254,301,cs),
(427,301,l),
(427,397,o),
(390,477,o),
(283,477,cs),
(232,477,o),
(177,463,o),
(152,414,c),
(80,414,l),
(104,501,o),
(199,533,o),
(285,533,cs),
(441,533,o),
(493,425,o),
(493,286,cs),
(493,0,l),
(439,0,l)
);
},
{
closed = 1;
nodes = (
(288,248,ls),
(219,248,o),
(120,244,o),
(120,152,cs),
(120,81,o),
(181,49,o),
(245,49,cs),
(350,49,o),
(427,103,o),
(427,212,cs),
(427,248,l)
);
}
);
width = 563;
}
);
unicode = 228;
},
{
glyphname = Adieresis;
kernLeft = _kern30;
kernRight = _kern30;
layers = (
{
layerId = "ED8FB365-A02F-46D3-A65B-595A86BAB06C";
shapes = (
{
closed = 1;
nodes = (
(236,900,o),
(256,882,o),
(256,854,cs),
(256,823,o),
(240,805,o),
(209,805,cs),
(178,805,o),
(161,823,o),
(161,854,cs),
(161,882,o),
(182,900,o),
(209,900,cs)
);
},
{
closed = 1;
nodes = (
(475,900,o),
(495,882,o),
(495,854,cs),
(495,823,o),
(479,805,o),
(448,805,cs),
(417,805,o),
(401,823,o),
(401,854,cs),
(401,882,o),
(421,900,o),
(448,900,cs)
);
},
{
closed = 1;
nodes = (
(146,157,l),
(88,0,l),
(15,0,l),
(279,707,l),
(370,707,l),
(633,0,l),
(560,0,l),
(502,157,l)
);
},
{
closed = 1;
nodes = (
(168,217,l),
(481,217,l),
(324,646,l)
);
}
);
width = 648;
}
);
unicode = 196;
},
{
glyphname = cedilla;
layers = (
{
layerId = "ED8FB365-A02F-46D3-A65B-595A86BAB06C";
shapes = (
{
closed = 1;
nodes = (
(278,-80,l),
(308,-75,o),
(334,-77,o),
(355,-89,cs),
(376,-101,o),
(387,-125,o),
(387,-157,cs),
(387,-248,o),
(296,-273,o),
(222,-262,c),
(222,-222,l),
(245,-225,o),
(273,-223,o),
(296,-215,cs),
(319,-207,o),
(337,-192,o),
(336,-159,cs),
(336,-130,o),
(316,-117,o),
(285,-117,cs),
(268,-117,o),
(241,-120,o),
(225,-124,c),
(254,7,l),
(298,7,l)
);
}
);
width = 593;
}
);
unicode = 184;
},
{
glyphname = Ecircumflex;
layers = (
{
layerId = "ED8FB365-A02F-46D3-A65B-595A86BAB06C";
shapes = (
{
closed = 1;
nodes = (
(329,895,l),
(250,798,l),
(186,798,l),
(309,944,l),
(350,944,l),
(473,798,l),
(411,798,l)
);
},
{
closed = 1;
nodes = (
(92,707,l),
(557,707,l),
(557,647,l),
(157,647,l),
(157,381,l),
(517,381,l),
(517,321,l),
(157,321,l),
(157,60,l),
(557,60,l),
(557,0,l),
(92,0,l)
);
}
);
width = 610;
}
);
unicode = 202;
},
{
glyphname = ecircumflex;
kernLeft = _kern5;
kernRight = _kern6;
layers = (
{
layerId = "ED8FB365-A02F-46D3-A65B-595A86BAB06C";
shapes = (
{
closed = 1;
nodes = (
(113,242,l),
(118,131,o),
(179,50,o),
(298,50,cs),
(353,50,o),
(418,69,o),
(442,124,c),
(511,124,l),
(481,30,o),
(386,-6,o),
(295,-6,cs),
(129,-6,o),
(48,106,o),
(48,263,cs),
(48,424,o),
(135,533,o),
(296,533,cs),
(463,533,o),
(526,389,o),
(521,242,c)
);
},
{
closed = 1;
nodes = (
(454,297,l),
(451,394,o),
(398,477,o),
(288,477,cs),
(179,477,o),
(119,390,o),
(114,297,c)
);
},
{
closed = 1;
nodes = (
(291,720,l),
(213,623,l),
(148,623,l),
(271,769,l),
(312,769,l),
(435,623,l),
(373,623,l)
);
}
);
width = 571;
}
);
unicode = 234;
},
{
glyphname = Odieresis;
kernLeft = _kern3;
kernRight = _kern4;
layers = (
{
layerId = "ED8FB365-A02F-46D3-A65B-595A86BAB06C";
shapes = (
{
closed = 1;
nodes = (
(294,900,o),
(314,882,o),
(314,854,cs),
(314,823,o),
(298,805,o),
(267,805,cs),
(236,805,o),
(219,823,o),
(219,854,cs),
(219,882,o),
(240,900,o),
(267,900,cs)
);
},
{
closed = 1;
nodes = (
(533,900,o),
(553,882,o),
(553,854,cs),
(553,823,o),
(537,805,o),
(506,805,cs),
(475,805,o),
(459,823,o),
(459,854,cs),
(459,882,o),
(479,900,o),
(506,900,cs)
);
},
{
closed = 1;
nodes = (
(165,-8,o),
(53,145,o),
(53,353,cs),
(53,561,o),
(165,715,o),
(384,715,cs),
(602,715,o),
(714,560,o),
(714,353,cs),
(714,146,o),
(602,-8,o),
(384,-8,cs)
);
},
{
closed = 1;
nodes = (
(204,656,o),
(119,518,o),
(119,353,cs),
(119,188,o),
(206,51,o),
(384,51,cs),
(564,51,o),
(647,185,o),
(647,353,cs),
(647,518,o),
(563,656,o),
(384,656,cs)
);
}
);
width = 767;
}
);
unicode = 214;
},
{
glyphname = odieresis;
kernLeft = _kern5;
kernRight = _kern6;
layers = (
{
layerId = "ED8FB365-A02F-46D3-A65B-595A86BAB06C";
shapes = (
{
closed = 1;
nodes = (
(209,719,o),
(232,699,o),
(232,671,cs),
(232,643,o),
(209,623,o),
(182,623,cs),
(155,623,o),
(133,644,o),
(133,671,cs),
(133,698,o),
(155,719,o),
(182,719,cs)
);
},
{
closed = 1;
nodes = (
(439,719,o),
(462,699,o),
(462,671,cs),
(462,643,o),
(439,623,o),
(412,623,cs),
(385,623,o),
(364,644,o),
(364,671,cs),
(364,698,o),
(385,719,o),
(412,719,cs)
);
},
{
closed = 1;
nodes = (
(426,50,o),
(481,145,o),
(481,263,cs),
(481,380,o),
(426,477,o),
(297,477,cs),
(168,477,o),
(113,380,o),
(113,263,cs),
(113,145,o),
(168,50,o),
(297,50,cs)
);
},
{
closed = 1;
nodes = (
(461,533,o),
(547,420,o),
(547,263,cs),
(547,106,o),
(461,-6,o),
(297,-6,cs),
(132,-6,o),
(48,106,o),
(48,263,cs),
(48,420,o),
(132,533,o),
(297,533,cs)
);
}
);
width = 595;
}
);
unicode = 246;
},
{
glyphname = dotlessi;
layers = (
{
layerId = "ED8FB365-A02F-46D3-A65B-595A86BAB06C";
shapes = (
{
closed = 1;
nodes = (
(138,0,l),
(72,0,l),
(72,527,l),
(138,527,l)
);
}
);
width = 210;
}
);
unicode = 305;
},
{
glyphname = Idotaccent;
kernLeft = _kern1;
kernRight = _kern2;
layers = (
{
layerId = "ED8FB365-A02F-46D3-A65B-595A86BAB06C";
shapes = (
{
closed = 1;
nodes = (
(160,0,l),
(95,0,l),
(95,707,l),
(160,707,l)
);
},
{
closed = 1;
nodes = (
(156,904,o),
(177,885,o),
(177,856,cs),
(177,825,o),
(156,807,o),
(127,807,cs),
(98,807,o),
(78,825,o),
(78,856,cs),
(78,887,o),
(98,904,o),
(127,904,cs)
);
}
);
width = 255;
}
);
unicode = 304;
},
{
glyphname = udieresis;
layers = (
{
layerId = "ED8FB365-A02F-46D3-A65B-595A86BAB06C";
shapes = (
{
closed = 1;
nodes = (
(203,719,o),
(226,699,o),
(226,671,cs),
(226,643,o),
(203,623,o),
(176,623,cs),
(149,623,o),
(127,644,o),
(127,671,cs),
(127,698,o),
(149,719,o),
(176,719,cs)
);
},
{
closed = 1;
nodes = (
(433,719,o),
(456,699,o),
(456,671,cs),
(456,643,o),
(433,623,o),
(406,623,cs),
(379,623,o),
(358,644,o),
(358,671,cs),
(358,698,o),
(379,719,o),
(406,719,cs)
);
},
{
closed = 1;
nodes = (
(403,50,o),
(442,125,o),
(442,231,cs),
(442,527,l),
(508,527,l),
(508,229,ls),
(508,80,o),
(443,-6,o),
(288,-6,cs),
(135,-6,o),
(70,80,o),
(70,229,cs),
(70,527,l),
(136,527,l),
(136,231,ls),
(136,130,o),
(176,50,o),
(288,50,cs)
);
}
);
width = 578;
}
);
unicode = 252;
},
{
glyphname = Udieresis;
kernLeft = _kern1;
kernRight = _kern2;
layers = (
{
layerId = "ED8FB365-A02F-46D3-A65B-595A86BAB06C";
shapes = (
{
closed = 1;
nodes = (
(273,900,o),
(293,882,o),
(293,854,cs),
(293,823,o),
(277,805,o),
(246,805,cs),
(215,805,o),
(198,823,o),
(198,854,cs),
(198,882,o),
(219,900,o),
(246,900,cs)
);
},
{
closed = 1;
nodes = (
(512,900,o),
(532,882,o),
(532,854,cs),
(532,823,o),
(516,805,o),
(485,805,cs),
(454,805,o),
(438,823,o),
(438,854,cs),
(438,882,o),
(458,900,o),
(485,900,cs)
);
},
{
closed = 1;
nodes = (
(635,707,l),
(635,301,ls),
(635,121,o),
(554,-8,o),
(361,-8,cs),
(168,-8,o),
(87,121,o),
(87,301,cs),
(87,707,l),
(152,707,l),
(152,305,ls),
(152,163,o),
(207,51,o),
(362,51,cs),
(518,51,o),
(570,165,o),
(570,305,cs),
(570,707,l)
);
}
);
width = 722;
}
);
unicode = 220;
},
{
glyphname = ccedilla;
kernLeft = _kern5;
kernRight = _kern6;
layers = (
{
layerId = "ED8FB365-A02F-46D3-A65B-595A86BAB06C";
shapes = (
{
closed = 1;
nodes = (
(294,-76,l),
(354,-64,o),
(403,-88,o),
(403,-153,cs),
(403,-244,o),
(312,-269,o),
(238,-258,c),
(238,-218,l),
(283,-223,o),
(352,-216,o),
(352,-157,cs),
(352,-125,o),
(329,-113,o),
(301,-113,cs),
(280,-113,o),
(257,-116,o),
(241,-120,c),
(265,-4,l),
(121,9,o),
(49,117,o),
(49,262,cs),
(49,421,o),
(136,533,o),
(301,533,cs),
(397,533,o),
(476,487,o),
(501,391,c),
(434,391,l),
(415,450,o),
(358,477,o),
(297,477,cs),
(172,477,o),
(114,379,o),
(114,262,cs),
(114,147,o),
(171,50,o),
(300,50,cs),
(364,50,o),
(418,70,o),
(441,135,c),
(509,135,l),
(483,41,o),
(397,-3,o),
(308,-6,c)
);
}
);
width = 555;
}
);
unicode = 231;
},
{
glyphname = uni0162;
kernLeft = _kern28;
kernRight = _kern28;
layers = (
{
layerId = "ED8FB365-A02F-46D3-A65B-595A86BAB06C";
shapes = (
{
closed = 1;
nodes = (
(552,647,l),
(318,647,l),
(318,0,l),
(306,0,l),
(290,-80,l),
(350,-68,o),
(399,-92,o),
(399,-157,cs),
(399,-248,o),
(308,-273,o),
(234,-262,c),
(234,-222,l),
(279,-227,o),
(348,-220,o),
(348,-161,cs),
(348,-129,o),
(329,-117,o),
(298,-117,cs),
(275,-117,o),
(253,-120,o),
(237,-124,c),
(263,0,l),
(253,0,l),
(253,647,l),
(19,647,l),
(19,707,l),
(552,707,l)
);
}
);
width = 571;
}
);
unicode = 354;
},
{
glyphname = uni0163;
kernLeft = _kern21;
kernRight = _kern21;
layers = (
{
layerId = "ED8FB365-A02F-46D3-A65B-595A86BAB06C";
shapes = (
{
closed = 1;
nodes = (
(189,527,l),
(336,527,l),
(336,471,l),
(189,471,l),
(189,175,ls),
(189,138,o),
(191,95,o),
(225,72,cs),
(241,61,o),
(268,57,o),
(291,57,cs),
(331,57,l),
(331,0,l),
(285,0,ls),
(268,0,o),
(252,1,o),
(236,3,c),
(218,-73,l),
(278,-61,o),
(327,-85,o),
(327,-150,cs),
(327,-241,o),
(236,-266,o),
(162,-255,c),
(162,-215,l),
(207,-220,o),
(276,-213,o),
(276,-154,cs),
(276,-123,o),
(253,-110,o),
(225,-110,cs),
(204,-110,o),
(181,-113,o),
(165,-117,c),
(195,15,l),
(181,22,o),
(169,30,o),
(159,41,cs),
(134,68,o),
(123,114,o),
(123,171,cs),
(123,471,l),
(34,471,l),
(34,527,l),
(123,527,l),
(123,678,l),
(189,678,l)
);
}
);
width = 380;
}
);
unicode = 355;
},
{
glyphname = Ccedilla;
kernLeft = _kern3;
kernRight = _kern4;
layers = (
{
layerId = "ED8FB365-A02F-46D3-A65B-595A86BAB06C";
shapes = (
{
closed = 1;
nodes = (
(197,656,o),
(120,518,o),
(120,355,cs),
(120,191,o),
(199,51,o),
(380,51,cs),
(463,51,o),
(553,85,o),
(585,168,c),
(658,168,l),
(618,49,o),
(509,-4,o),
(391,-7,c),
(376,-80,l),
(436,-68,o),
(485,-92,o),
(485,-157,cs),
(485,-248,o),
(394,-273,o),
(320,-262,c),
(320,-222,l),
(365,-227,o),
(434,-219,o),
(434,-161,cs),
(434,-129,o),
(411,-117,o),
(383,-117,cs),
(362,-117,o),
(339,-120,o),
(323,-124,c),
(347,-7,l),
(146,6,o),
(53,155,o),
(53,353,cs),
(53,559,o),
(159,715,o),
(378,715,cs),
(502,715,o),
(608,664,o),
(645,539,c),
(579,539,l),
(547,622,o),
(460,656,o),
(377,656,cs)
);
}
);
width = 711;
}
);
unicode = 199;
},
{
glyphname = scedilla;
kernLeft = _kern5;
kernRight = _kern6;
layers = (
{
layerId = "ED8FB365-A02F-46D3-A65B-595A86BAB06C";
shapes = (
{
closed = 1;
nodes = (
(201,477,o),
(128,460,o),
(128,389,cs),
(128,332,o),
(177,312,o),
(224,302,cs),
(267,293,o),
(307,285,o),
(350,275,cs),
(421,259,o),
(470,221,o),
(470,144,cs),
(470,29,o),
(368,-6,o),
(272,-6,c),
(259,-70,l),
(319,-58,o),
(368,-82,o),
(368,-147,cs),
(368,-238,o),
(277,-263,o),
(203,-252,c),
(203,-212,l),
(248,-217,o),
(317,-210,o),
(317,-151,cs),
(317,-123,o),
(293,-108,o),
(266,-107,cs),
(247,-106,o),
(222,-109,o),
(206,-114,c),
(228,-4,l),
(149,4,o),
(66,40,o),
(48,127,c),
(115,127,l),
(144,67,o),
(206,50,o),
(267,50,cs),
(328,50,o),
(405,62,o),
(405,140,cs),
(405,194,o),
(358,210,o),
(313,221,cs),
(272,230,o),
(233,236,o),
(190,247,cs),
(117,264,o),
(63,307,o),
(63,387,cs),
(63,501,o),
(169,533,o),
(263,533,cs),
(347,533,o),
(436,500,o),
(452,408,c),
(391,408,l),
(372,457,o),
(312,477,o),
(261,477,cs)
);
}
);
width = 519;
}
);
unicode = 351;
},
{
glyphname = uni21A9;
layers = (
{
layerId = "ED8FB365-A02F-46D3-A65B-595A86BAB06C";
shapes = (
{
closed = 1;
nodes = (
(761,60,ls),
(927,60,o),
(1023,181,o),
(1023,340,cs),
(1023,498,o),
(926,618,o),
(761,618,cs),
(201,618,l),
(201,678,l),
(769,678,ls),
(973,678,o),
(1087,535,o),
(1087,340,cs),
(1087,143,o),
(973,0,o),
(769,0,cs),
(178,0,l),
(415,-237,l),
(372,-283,l),
(64,30,l),
(372,342,l),
(415,296,l),
(178,60,l)
);
}
);
width = 1151;
}
);
unicode = 8617;
},
{
glyphname = uni2713;
layers = (
{
layerId = "ED8FB365-A02F-46D3-A65B-595A86BAB06C";
shapes = (
{
closed = 1;
nodes = (
(937,820,l),
(996,774,l),
(378,7,l),
(64,370,l),
(122,417,l),
(378,118,l)
);
}
);
width = 1060;
}
);
unicode = 10003;
},
{
glyphname = divide;
layers = (
{
layerId = "ED8FB365-A02F-46D3-A65B-595A86BAB06C";
shapes = (
{
closed = 1;
nodes = (
(266,232,o),
(286,210,o),
(286,181,cs),
(286,152,o),
(267,129,o),
(235,129,cs),
(204,129,o),
(185,152,o),
(185,181,cs),
(185,210,o),
(204,232,o),
(235,232,cs)
);
},
{
closed = 1;
nodes = (
(266,587,o),
(286,566,o),
(286,537,cs),
(286,508,o),
(267,485,o),
(235,485,cs),
(204,485,o),
(185,508,o),
(185,537,cs),
(185,566,o),
(204,587,o),
(235,587,cs)
);
},
{
closed = 1;
nodes = (
(407,328,l),
(64,328,l),
(64,388,l),
(407,388,l)
);
}
);
width = 471;
}
);
unicode = 247;
},
{
glyphname = multiply;
layers = (
{
layerId = "ED8FB365-A02F-46D3-A65B-595A86BAB06C";
shapes = (
{
closed = 1;
nodes = (
(230,316,l),
(88,174,l),
(50,212,l),
(193,353,l),
(50,495,l),
(88,533,l),
(230,390,l),
(371,533,l),
(409,495,l),
(267,353,l),
(409,212,l),
(371,174,l)
);
}
);
width = 459;
}
);
unicode = 215;
},
{
glyphname = yen;
layers = (
{
layerId = "ED8FB365-A02F-46D3-A65B-595A86BAB06C";
shapes = (
{
closed = 1;
nodes = (
(534,707,l),
(610,707,l),
(386,312,l),
(507,312,l),
(507,253,l),
(359,253,l),
(359,157,l),
(507,157,l),
(507,98,l),
(359,98,l),
(359,0,l),
(294,0,l),
(294,98,l),
(145,98,l),
(145,157,l),
(294,157,l),
(294,253,l),
(145,253,l),
(145,312,l),
(268,312,l),
(44,707,l),
(120,707,l),
(329,330,l)
);
}
);
width = 654;
}
);
unicode = 165;
},
{
glyphname = uni20BD;
layers = (
{
layerId = "ED8FB365-A02F-46D3-A65B-595A86BAB06C";
shapes = (
{
closed = 1;
nodes = (
(165,707,l),
(403,707,ls),
(557,707,o),
(650,643,o),
(650,484,cs),
(650,324,o),
(534,257,o),
(385,257,cs),
(230,257,l),
(230,154,l),
(517,154,l),
(517,94,l),
(230,94,l),
(230,0,l),
(165,0,l),
(165,94,l),
(64,94,l),
(64,154,l),
(165,154,l),
(165,257,l),
(64,257,l),
(64,317,l),
(165,317,l)
);
},
{
closed = 1;
nodes = (
(383,317,ls),
(504,317,o),
(583,362,o),
(583,487,cs),
(583,604,o),
(514,647,o),
(399,647,cs),
(230,647,l),
(230,317,l)
);
}
);
width = 704;
}
);
unicode = 8381;
},
{
glyphname = uni20B4;
layers = (
{
layerId = "ED8FB365-A02F-46D3-A65B-595A86BAB06C";
shapes = (
{
closed = 1;
nodes = (
(413,715,o),
(506,667,o),
(507,562,cs),
(507,514,o),
(488,475,o),
(457,446,c),
(538,446,l),
(538,387,l),
(406,387,l),
(255,279,l),
(538,279,l),
(538,220,l),
(191,220,l),
(174,201,o),
(165,179,o),
(165,154,cs),
(165,79,o),
(232,49,o),
(296,49,cs),
(353,49,o),
(415,59,o),
(439,119,c),
(508,119,l),
(484,22,o),
(384,-8,o),
(295,-8,cs),
(198,-8,o),
(101,32,o),
(101,143,cs),
(101,167,o),
(108,199,o),
(123,220,c),
(52,220,l),
(52,279,l),
(171,279,l),
(319,387,l),
(52,387,l),
(52,446,l),
(388,446,l),
(415,462,o),
(447,510,o),
(447,549,cs),
(447,626,o),
(384,656,o),
(316,656,cs),
(257,656,o),
(197,643,o),
(179,580,c),
(108,580,l),
(129,678,o),
(229,715,o),
(319,715,cs)
);
}
);
width = 590;
}
);
unicode = 8372;
},
{
glyphname = sterling;
layers = (
{
layerId = "ED8FB365-A02F-46D3-A65B-595A86BAB06C";
shapes = (
{
closed = 1;
nodes = (
(426,365,l),
(426,307,l),
(212,307,l),
(212,60,l),
(520,60,l),
(520,0,l),
(64,0,l),
(64,60,l),
(149,60,l),
(149,307,l),
(64,307,l),
(64,367,l),
(149,367,l),
(149,525,ls),
(149,650,o),
(221,715,o),
(344,715,cs),
(429,715,o),
(503,674,o),
(516,585,c),
(452,585,l),
(439,636,o),
(392,656,o),
(345,656,cs),
(253,656,o),
(212,610,o),
(212,518,cs),
(212,367,l),
(426,367,l)
);
}
);
width = 584;
}
);
unicode = 163;
},
{
glyphname = Scedilla;
kernLeft = _kern3;
kernRight = _kern4;
layers = (
{
layerId = "ED8FB365-A02F-46D3-A65B-595A86BAB06C";
shapes = (
{
closed = 1;
nodes = (
(321,-80,l),
(381,-68,o),
(430,-93,o),
(430,-157,cs),
(430,-247,o),
(341,-273,o),
(265,-262,c),
(265,-222,l),
(310,-227,o),
(379,-219,o),
(379,-162,cs),
(379,-145,o),
(372,-132,o),
(361,-125,cs),
(353,-120,o),
(342,-118,o),
(328,-117,c),
(307,-117,o),
(284,-120,o),
(268,-124,c),
(292,-6,l),
(183,2,o),
(84,53,o),
(53,168,c),
(123,168,l),
(158,80,o),
(252,51,o),
(339,51,cs),
(422,51,o),
(513,86,o),
(513,182,cs),
(513,258,o),
(456,291,o),
(387,307,cs),
(334,320,o),
(283,329,o),
(230,344,cs),
(139,369,o),
(77,423,o),
(77,522,cs),
(77,665,o),
(197,715,o),
(322,715,cs),
(436,715,o),
(544,667,o),
(560,543,c),
(494,543,l),
(478,630,o),
(401,656,o),
(322,656,cs),
(239,656,o),
(145,630,o),
(145,530,cs),
(145,450,o),
(206,418,o),
(275,399,cs),
(328,384,o),
(377,375,o),
(432,360,cs),
(515,336,o),
(580,292,o),
(580,198,cs),
(580,50,o),
(469,-8,o),
(336,-8,c)
);
}
);
width = 634;
}
);
unicode = 350;
},
{
glyphname = t_alt;
kernLeft = _kern21;
kernRight = _kern21;
layers = (
{
layerId = "ED8FB365-A02F-46D3-A65B-595A86BAB06C";
shapes = (
{
closed = 1;
nodes = (
(189,527,l),
(336,527,l),
(336,471,l),
(189,471,l),
(189,175,ls),
(189,139,o),
(192,93,o),
(225,72,cs),
(242,61,o),
(268,57,o),
(291,57,cs),
(331,57,l),
(331,0,l),
(285,0,ls),
(240,0,o),
(192,8,o),
(159,41,c),
(134,68,o),
(123,114,o),
(123,171,cs),
(123,471,l),
(34,471,l),
(34,527,l),
(122,527,l),
(136,678,l),
(189,678,l)
);
}
);
width = 380;
}
);
},
{
glyphname = alt_1;
layers = (
{
layerId = "ED8FB365-A02F-46D3-A65B-595A86BAB06C";
shapes = (
{
closed = 1;
nodes = (
(308,60,l),
(469,60,l),
(469,0,l),
(52,0,l),
(52,60,l),
(243,60,l),
(243,585,l),
(96,585,l),
(96,626,l),
(192,629,o),
(240,650,o),
(266,707,c),
(308,707,l)
);
}
);
width = 493;
}
);
},
{
glyphname = uni2117;
layers = (
{
layerId = "ED8FB365-A02F-46D3-A65B-595A86BAB06C";
shapes = (
{
closed = 1;
nodes = (
(717,715,o),
(874,540,o),
(874,294,cs),
(874,49,o),
(722,-125,o),
(469,-125,cs),
(216,-125,o),
(64,49,o),
(64,294,cs),
(64,540,o),
(221,715,o),
(469,715,cs)
);
},
{
closed = 1;
nodes = (
(257,654,o),
(129,502,o),
(129,294,cs),
(129,88,o),
(256,-65,o),
(469,-65,cs),
(683,-65,o),
(809,90,o),
(809,294,cs),
(809,499,o),
(682,654,o),
(469,654,cs)
);
},
{
closed = 1;
nodes = (
(403,75,l),
(346,75,l),
(346,500,l),
(496,500,ls),
(589,500,o),
(651,458,o),
(652,359,c),
(652,258,o),
(584,213,o),
(483,213,cs),
(403,213,l)
);
},
{
closed = 1;
nodes = (
(485,266,ls),
(549,266,o),
(595,290,o),
(595,359,cs),
(595,422,o),
(553,447,o),
(494,447,cs),
(403,447,l),
(403,266,l)
);
}
);
width = 938;
}
);
unicode = 8471;
},
{
glyphname = colon.uc;
layers = (
{
layerId = "ED8FB365-A02F-46D3-A65B-595A86BAB06C";
shapes = (
{
closed = 1;
nodes = (
(154,577,o),
(173,555,o),
(173,526,cs),
(173,497,o),
(154,474,o),
(123,474,cs),
(92,474,o),
(72,497,o),
(72,526,cs),
(72,555,o),
(92,577,o),
(123,577,cs)
);
},
{
closed = 1;
nodes = (
(154,212,o),
(173,191,o),
(173,162,cs),
(173,133,o),
(154,110,o),
(123,110,cs),
(92,110,o),
(72,133,o),
(72,162,cs),
(72,191,o),
(92,212,o),
(123,212,cs)
);
}
);
width = 245;
}
);
},
{
glyphname = y_alt;
layers = (
{
layerId = "ED8FB365-A02F-46D3-A65B-595A86BAB06C";
shapes = (
{
closed = 1;
nodes = (
(532,527,l),
(532,-12,ls),
(532,-167,o),
(446,-245,o),
(294,-245,cs),
(193,-245,o),
(103,-204,o),
(76,-105,c),
(146,-105,l),
(167,-166,o),
(242,-189,o),
(301,-189,cs),
(465,-189,o),
(467,-57,o),
(467,90,c),
(422,11,o),
(341,-7,o),
(276,-7,cs),
(120,-7,o),
(72,94,o),
(72,234,cs),
(72,527,l),
(138,527,l),
(138,256,ls),
(138,152,o),
(153,49,o),
(285,49,cs),
(421,49,o),
(466,160,o),
(466,267,cs),
(466,527,l)
);
}
);
width = 604;
}
);
},
{
glyphname = u_alt;
layers = (
{
layerId = "ED8FB365-A02F-46D3-A65B-595A86BAB06C";
shapes = (
{
closed = 1;
nodes = (
(521,527,l),
(521,0,l),
(462,0,l),
(457,74,l),
(409,10,o),
(337,-9,o),
(269,-9,cs),
(118,-9,o),
(67,95,o),
(67,232,cs),
(67,527,l),
(133,527,l),
(133,255,ls),
(133,151,o),
(145,50,o),
(280,50,cs),
(345,50,o),
(391,76,o),
(420,115,cs),
(449,154,o),
(455,212,o),
(455,271,cs),
(455,527,l)
);
}
);
width = 593;
}
);
},
{
glyphname = be_alt;
layers = (
{
layerId = "ED8FB365-A02F-46D3-A65B-595A86BAB06C";
shapes = (
{
closed = 1;
nodes = (
(49,470,o),
(66,560,o),
(140,623,cs),
(197,673,o),
(280,694,o),
(347,714,cs),
(403,731,o),
(447,742,o),
(487,779,c),
(525,730,l),
(504,695,o),
(440,679,o),
(368,656,cs),
(280,629,o),
(218,612,o),
(177,575,cs),
(136,538,o),
(115,484,o),
(114,388,c),
(157,460,o),
(241,485,o),
(310,485,cs),
(451,485,o),
(526,380,o),
(526,247,cs),
(526,100,o),
(439,-6,o),
(288,-6,cs),
(97,-6,o),
(49,141,o),
(49,309,cs)
);
},
{
closed = 1;
nodes = (
(404,49,o),
(460,141,o),
(460,244,cs),
(460,343,o),
(403,429,o),
(295,429,cs),
(184,429,o),
(120,336,o),
(120,235,cs),
(120,135,o),
(183,49,o),
(289,49,cs)
);
}
);
width = 574;
}
);
},
{
glyphname = g_alt;
layers = (
{
layerId = "ED8FB365-A02F-46D3-A65B-595A86BAB06C";
shapes = (
{
closed = 1;
nodes = (
(475,527,l),
(537,527,l),
(537,17,ls),
(537,-147,o),
(471,-245,o),
(299,-245,cs),
(202,-245,o),
(140,-214,o),
(92,-179,c),
(121,-125,l),
(180,-170,o),
(243,-189,o),
(303,-189,cs),
(438,-189,o),
(471,-101,o),
(471,18,cs),
(471,86,l),
(430,22,o),
(359,-6,o),
(279,-6,cs),
(112,-6,o),
(45,127,o),
(49,277,cs),
(53,422,o),
(135,533,o),
(291,533,cs),
(363,533,o),
(431,510,o),
(471,450,c)
);
},
{
closed = 1;
nodes = (
(166,477,o),
(115,376,o),
(115,265,cs),
(115,149,o),
(162,50,o),
(292,50,cs),
(351,50,o),
(399,79,o),
(430,119,cs),
(461,159,o),
(473,210,o),
(473,265,cs),
(473,330,o),
(456,401,o),
(401,442,cs),
(370,465,o),
(333,477,o),
(290,477,cs)
);
}
);
width = 609;
}
);
},
{
glyphname = y;
layers = (
{
layerId = "ED8FB365-A02F-46D3-A65B-595A86BAB06C";
shapes = (
{
closed = 1;
nodes = (
(532,527,l),
(532,0,ls),
(532,-83,o),
(516,-138,o),
(475,-183,cs),
(430,-232,o),
(361,-246,o),
(297,-246,cs),
(225,-246,o),
(145,-226,o),
(89,-179,c),
(118,-125,l),
(171,-165,o),
(233,-188,o),
(297,-188,cs),
(420,-188,o),
(466,-117,o),
(466,1,cs),
(466,80,l),
(425,15,o),
(348,-8,o),
(276,-8,cs),
(204,-8,o),
(153,17,o),
(122,53,cs),
(83,96,o),
(72,166,o),
(72,242,cs),
(72,527,l),
(138,527,l),
(138,267,ls),
(138,207,o),
(140,146,o),
(167,106,cs),
(190,71,o),
(230,49,o),
(291,50,cs),
(367,51,o),
(414,86,o),
(441,141,cs),
(460,180,o),
(466,226,o),
(466,274,cs),
(466,527,l)
);
}
);
width = 604;
}
);
unicode = 121;
},
{
glyphname = t2.alt;
layers = (
{
layerId = "ED8FB365-A02F-46D3-A65B-595A86BAB06C";
shapes = (
{
closed = 1;
nodes = (
(189,527,l),
(358,527,l),
(358,471,l),
(189,471,l),
(189,174,ls),
(189,114,o),
(197,50,o),
(277,50,cs),
(302,50,o),
(331,57,o),
(347,72,c),
(373,25,l),
(342,1,o),
(309,-6,o),
(268,-6,cs),
(158,-6,o),
(123,59,o),
(123,163,cs),
(123,471,l),
(34,471,l),
(34,527,l),
(123,527,l),
(123,678,l),
(189,678,l)
);
}
);
width = 393;
}
);
},
{
glyphname = f_alt;
layers = (
{
layerId = "ED8FB365-A02F-46D3-A65B-595A86BAB06C";
shapes = (
{
closed = 1;
nodes = (
(123,0,l),
(123,472,l),
(34,472,l),
(34,527,l),
(123,527,l),
(123,580,l),
(124,640,o),
(127,682,o),
(160,721,cs),
(180,744,o),
(218,763,o),
(270,763,cs),
(310,763,o),
(340,758,o),
(368,738,c),
(344,684,l),
(327,699,o),
(304,708,o),
(275,708,cs),
(198,707,o),
(189,645,o),
(189,587,cs),
(189,527,l),
(355,527,l),
(355,472,l),
(189,472,l),
(189,0,l)
);
}
);
width = 375;
}
);
},
{
glyphname = hyphen.uc;
layers = (
{
layerId = "ED8FB365-A02F-46D3-A65B-595A86BAB06C";
shapes = (
{
closed = 1;
nodes = (
(79,367,l),
(374,367,l),
(374,307,l),
(79,307,l)
);
}
);
width = 453;
}
);
},
{
glyphname = uni00AD.uc;
layers = (
{
layerId = "ED8FB365-A02F-46D3-A65B-595A86BAB06C";
shapes = (
{
closed = 1;
nodes = (
(79,367,l),
(374,367,l),
(374,307,l),
(79,307,l)
);
}
);
width = 453;
}
);
},
{
glyphname = endash.uc;
layers = (
{
layerId = "ED8FB365-A02F-46D3-A65B-595A86BAB06C";
shapes = (
{
closed = 1;
nodes = (
(79,367,l),
(497,367,l),
(497,307,l),
(79,307,l)
);
}
);
width = 576;
}
);
},
{
glyphname = emdash.uc;
layers = (
{
layerId = "ED8FB365-A02F-46D3-A65B-595A86BAB06C";
shapes = (
{
closed = 1;
nodes = (
(79,367,l),
(684,367,l),
(684,307,l),
(79,307,l)
);
}
);
width = 763;
}
);
},
{
glyphname = a_alt;
kernLeft = _kern27;
kernRight = _kern27;
layers = (
{
layerId = "ED8FB365-A02F-46D3-A65B-595A86BAB06C";
shapes = (
{
closed = 1;
nodes = (
(122,71,o),
(186,49,o),
(240,49,cs),
(340,49,o),
(429,100,o),
(429,212,cs),
(429,255,l),
(356,252,o),
(251,249,o),
(186,225,cs),
(146,210,o),
(122,180,o),
(122,138,cs)
);
},
{
closed = 1;
nodes = (
(430,76,l),
(379,16,o),
(310,-6,o),
(233,-6,cs),
(137,-6,o),
(54,38,o),
(54,142,cs),
(54,198,o),
(88,243,o),
(131,264,cs),
(172,285,o),
(212,293,o),
(251,298,cs),
(296,304,o),
(355,308,o),
(427,310,c),
(427,406,o),
(390,477,o),
(283,477,cs),
(232,477,o),
(177,463,o),
(152,414,c),
(80,414,l),
(104,501,o),
(199,533,o),
(285,533,cs),
(441,533,o),
(493,425,o),
(493,286,cs),
(493,0,l),
(439,0,l)
);
}
);
width = 563;
}
);
},
{
glyphname = uni0490;
kernLeft = _kern23;
kernRight = _kern23;
layers = (
{
associatedMasterId = "ED8FB365-A02F-46D3-A65B-595A86BAB06C";
layerId = "6663C206-CE18-4A3D-86E3-5F35C28711DA";
name = img;
width = 569;
},
{
layerId = "ED8FB365-A02F-46D3-A65B-595A86BAB06C";
shapes = (
{
closed = 1;
nodes = (
(92,0,l),
(92,707,l),
(472,707,l),
(472,856,l),
(537,856,l),
(537,647,l),
(157,647,l),
(157,0,l)
);
}
);
width = 569;
}
);
unicode = 1168;
},
{
glyphname = uni0491;
kernLeft = _kern24;
kernRight = _kern24;
layers = (
{
associatedMasterId = "ED8FB365-A02F-46D3-A65B-595A86BAB06C";
layerId = "6663C206-CE18-4A3D-86E3-5F35C28711DA";
name = img;
width = 454;
},
{
layerId = "ED8FB365-A02F-46D3-A65B-595A86BAB06C";
shapes = (
{
closed = 1;
nodes = (
(72,0,l),
(72,527,l),
(362,527,l),
(362,675,l),
(426,675,l),
(426,472,l),
(138,472,l),
(138,0,l)
);
}
);
width = 454;
}
);
unicode = 1169;
},
{
glyphname = uni0406;
layers = (
{
layerId = "ED8FB365-A02F-46D3-A65B-595A86BAB06C";
shapes = (
{
closed = 1;
nodes = (
(157,0,l),
(92,0,l),
(92,707,l),
(157,707,l)
);
}
);
width = 249;
}
);
unicode = 1030;
},
{
glyphname = uni0456;
layers = (
{
layerId = "ED8FB365-A02F-46D3-A65B-595A86BAB06C";
shapes = (
{
closed = 1;
nodes = (
(142,717,o),
(163,698,o),
(163,669,cs),
(163,638,o),
(142,620,o),
(113,620,cs),
(84,620,o),
(64,638,o),
(64,669,cs),
(64,700,o),
(84,717,o),
(113,717,cs)
);
},
{
closed = 1;
nodes = (
(80,527,l),
(146,527,l),
(146,0,l),
(80,0,l)
);
}
);
width = 227;
}
);
unicode = 1110;
},
{
glyphname = uni0404;
layers = (
{
associatedMasterId = "ED8FB365-A02F-46D3-A65B-595A86BAB06C";
layerId = "6663C206-CE18-4A3D-86E3-5F35C28711DA";
name = img;
width = 709;
},
{
layerId = "ED8FB365-A02F-46D3-A65B-595A86BAB06C";
shapes = (
{
closed = 1;
nodes = (
(211,656,o),
(129,531,o),
(121,384,c),
(482,384,l),
(482,324,l),
(121,324,l),
(126,167,o),
(206,51,o),
(374,51,cs),
(457,51,o),
(552,84,o),
(584,168,c),
(656,168,l),
(616,43,o),
(494,-8,o),
(370,-8,cs),
(150,-8,o),
(53,140,o),
(53,348,cs),
(53,561,o),
(162,715,o),
(385,715,cs),
(503,715,o),
(610,660,o),
(648,539,c),
(581,539,l),
(549,622,o),
(453,656,o),
(371,656,cs)
);
}
);
width = 709;
}
);
unicode = 1028;
},
{
glyphname = uni0454;
layers = (
{
associatedMasterId = "ED8FB365-A02F-46D3-A65B-595A86BAB06C";
layerId = "6663C206-CE18-4A3D-86E3-5F35C28711DA";
name = img;
width = 553;
},
{
layerId = "ED8FB365-A02F-46D3-A65B-595A86BAB06C";
shapes = (
{
closed = 1;
nodes = (
(375,289,l),
(375,234,l),
(115,234,l),
(118,130,o),
(178,50,o),
(287,50,cs),
(346,50,o),
(420,72,o),
(441,135,c),
(509,135,l),
(485,39,o),
(379,-6,o),
(289,-6,cs),
(121,-6,o),
(48,103,o),
(48,263,cs),
(48,418,o),
(127,533,o),
(291,533,cs),
(387,533,o),
(474,489,o),
(501,392,c),
(438,392,l),
(417,453,o),
(348,477,o),
(288,477,cs),
(177,477,o),
(119,395,o),
(114,289,c)
);
}
);
width = 553;
}
);
unicode = 1108;
},
{
glyphname = uni0407;
layers = (
{
associatedMasterId = "ED8FB365-A02F-46D3-A65B-595A86BAB06C";
layerId = "6663C206-CE18-4A3D-86E3-5F35C28711DA";
name = img;
width = 248;
},
{
layerId = "ED8FB365-A02F-46D3-A65B-595A86BAB06C";
shapes = (
{
closed = 1;
nodes = (
(156,0,l),
(91,0,l),
(91,707,l),
(156,707,l)
);
},
{
closed = 1;
nodes = (
(83,843,o),
(103,825,o),
(103,797,cs),
(103,768,o),
(84,750,o),
(56,750,cs),
(28,750,o),
(10,768,o),
(10,797,cs),
(10,826,o),
(28,843,o),
(56,843,cs)
);
},
{
closed = 1;
nodes = (
(218,843,o),
(238,825,o),
(238,797,cs),
(238,768,o),
(219,750,o),
(191,750,cs),
(162,750,o),
(145,768,o),
(145,797,cs),
(145,828,o),
(160,843,o),
(191,843,cs)
);
}
);
width = 248;
}
);
unicode = 1031;
},
{
glyphname = uni0457;
layers = (
{
associatedMasterId = "ED8FB365-A02F-46D3-A65B-595A86BAB06C";
layerId = "6663C206-CE18-4A3D-86E3-5F35C28711DA";
name = img;
width = 228;
},
{
layerId = "ED8FB365-A02F-46D3-A65B-595A86BAB06C";
shapes = (
{
closed = 1;
nodes = (
(81,527,l),
(147,527,l),
(147,0,l),
(81,0,l)
);
},
{
closed = 1;
nodes = (
(75,704,o),
(95,686,o),
(95,658,cs),
(95,629,o),
(76,611,o),
(48,611,cs),
(20,611,o),
(2,629,o),
(2,658,cs),
(2,687,o),
(20,704,o),
(48,704,cs)
);
},
{
closed = 1;
nodes = (
(206,704,o),
(226,686,o),
(226,658,cs),
(226,629,o),
(207,611,o),
(179,611,cs),
(150,611,o),
(133,629,o),
(133,658,cs),
(133,689,o),
(148,704,o),
(179,704,cs)
);
}
);
width = 228;
}
);
unicode = 1111;
},
{
glyphname = t0163.alt;
layers = (
{
layerId = "ED8FB365-A02F-46D3-A65B-595A86BAB06C";
shapes = (
{
closed = 1;
nodes = (
(189,527,l),
(358,527,l),
(358,471,l),
(189,471,l),
(189,174,ls),
(189,114,o),
(197,50,o),
(277,50,cs),
(302,50,o),
(331,57,o),
(347,72,c),
(373,25,l),
(342,1,o),
(309,-6,o),
(268,-6,cs),
(257,-6,o),
(248,-5,o),
(239,-4,c),
(223,-73,l),
(283,-61,o),
(332,-85,o),
(332,-150,cs),
(332,-241,o),
(241,-266,o),
(167,-255,c),
(167,-215,l),
(212,-220,o),
(281,-213,o),
(281,-154,cs),
(281,-123,o),
(258,-110,o),
(230,-110,cs),
(209,-110,o),
(186,-113,o),
(170,-117,c),
(198,6,l),
(179,14,o),
(165,25,o),
(154,39,cs),
(131,68,o),
(123,111,o),
(123,163,cs),
(123,471,l),
(34,471,l),
(34,527,l),
(123,527,l),
(123,678,l),
(189,678,l)
);
}
);
width = 391;
}
);
},
{
glyphname = t021b.alt;
layers = (
{
layerId = "ED8FB365-A02F-46D3-A65B-595A86BAB06C";
shapes = (
{
closed = 1;
nodes = (
(265,-91,o),
(282,-126,o),
(282,-158,cs),
(282,-218,o),
(247,-280,o),
(190,-304,c),
(174,-278,l),
(203,-259,o),
(223,-232,o),
(230,-193,c),
(195,-196,o),
(176,-174,o),
(176,-142,cs),
(176,-113,o),
(197,-91,o),
(228,-91,cs)
);
},
{
closed = 1;
nodes = (
(189,527,l),
(358,527,l),
(358,471,l),
(189,471,l),
(189,174,ls),
(189,114,o),
(197,50,o),
(277,50,cs),
(302,50,o),
(331,57,o),
(347,72,c),
(373,25,l),
(342,1,o),
(309,-6,o),
(268,-6,cs),
(158,-6,o),
(123,59,o),
(123,163,cs),
(123,471,l),
(34,471,l),
(34,527,l),
(123,527,l),
(123,678,l),
(189,678,l)
);
}
);
width = 391;
}
);
},
{
glyphname = map;
layers = (
{
layerId = "ED8FB365-A02F-46D3-A65B-595A86BAB06C";
shapes = (
{
closed = 1;
nodes = (
(65,684,ls),
(66,685,o),
(68,686,o),
(69,686,c),
(108,686,ls),
(110,686,o),
(111,686,o),
(112,687,cs),
(131,706,ls),
(132,707,o),
(134,708,o),
(135,708,c),
(231,708,l),
(232,708,o),
(234,707,o),
(235,706,cs),
(281,660,ls),
(282,659,o),
(283,659,o),
(284,659,c),
(317,659,ls),
(320,659,o),
(322,657,o),
(322,654,cs),
(322,629,ls),
(322,626,o),
(324,624,o),
(328,624,cs),
(334,624,ls),
(336,624,o),
(337,624,o),
(338,625,c),
(354,642,l),
(355,643,o),
(356,643,o),
(358,643,cs),
(390,643,ls),
(393,643,o),
(395,641,o),
(395,638,cs),
(395,612,l),
(395,611,o),
(396,609,o),
(397,608,cs),
(417,588,l),
(419,585,o),
(421,585,o),
(424,588,cs),
(434,598,ls),
(435,599,o),
(436,599,o),
(438,599,cs),
(444,599,ls),
(448,599,o),
(450,597,o),
(450,594,cs),
(450,515,l),
(450,514,o),
(449,512,o),
(448,511,cs),
(442,505,ls),
(439,502,o),
(439,500,o),
(442,497,cs),
(501,438,ls),
(502,437,o),
(503,437,o),
(504,437,c),
(516,437,ls),
(519,437,o),
(521,435,o),
(521,432,cs),
(521,398,l),
(521,361,l),
(521,360,o),
(522,358,o),
(523,357,cs),
(545,335,ls),
(546,334,o),
(548,333,o),
(549,333,c),
(561,333,ls),
(563,333,o),
(564,333,o),
(565,332,c),
(581,315,l),
(582,314,o),
(583,312,o),
(583,311,c),
(583,274,l),
(583,273,o),
(582,271,o),
(581,270,c),
(575,265,ls),
(572,262,o),
(572,260,o),
(575,257,cs),
(596,237,ls),
(597,236,o),
(597,235,o),
(597,233,cs),
(597,230,o),
(595,228,o),
(592,228,cs),
(573,228,l),
(559,228,l),
(558,228,o),
(557,228,o),
(556,229,cs),
(547,238,l),
(544,240,o),
(542,240,o),
(540,238,cs),
(529,227,l),
(526,225,o),
(523,225,o),
(521,227,cs),
(506,242,ls),
(504,244,o),
(501,244,o),
(498,242,c),
(471,215,ls),
(470,214,o),
(469,213,o),
(468,213,c),
(459,213,ls),
(456,213,o),
(454,215,o),
(454,219,cs),
(454,253,ls),
(454,258,o),
(448,260,o),
(445,257,cs),
(423,235,ls),
(422,234,o),
(422,233,o),
(422,232,c),
(422,205,ls),
(422,203,o),
(422,202,o),
(423,201,cs),
(433,191,l),
(435,188,o),
(435,186,o),
(433,184,cs),
(413,164,ls),
(412,163,o),
(412,162,o),
(412,160,cs),
(412,135,l),
(412,134,o),
(411,132,o),
(410,131,cs),
(388,109,ls),
(387,108,o),
(387,107,o),
(387,106,c),
(387,94,l),
(387,93,o),
(386,91,o),
(385,90,cs),
(373,78,ls),
(372,77,o),
(371,76,o),
(370,76,c),
(361,76,l),
(360,76,o),
(359,76,o),
(358,75,cs),
(348,65,ls),
(347,64,o),
(346,62,o),
(346,61,c),
(346,23,ls),
(346,19,o),
(344,17,o),
(341,17,cs),
(321,17,ls),
(319,17,o),
(318,17,o),
(317,16,c),
(303,1,l),
(302,1,o),
(302,0,o),
(299,0,cs),
(296,0,ls),
(293,0,o),
(291,2,o),
(291,5,cs),
(291,28,l),
(291,29,o),
(290,31,o),
(289,32,cs),
(280,41,l),
(277,43,o),
(277,45,o),
(280,48,cs),
(292,60,l),
(296,63,o),
(296,65,o),
(292,68,c),
(280,80,ls),
(279,81,o),
(279,82,o),
(279,84,cs),
(279,169,ls),
(279,171,o),
(279,172,o),
(280,173,c),
(294,186,l),
(295,187,o),
(295,188,o),
(295,190,cs),
(295,309,ls),
(295,311,o),
(295,312,o),
(294,313,c),
(281,325,l),
(280,326,o),
(280,327,o),
(280,329,cs),
(280,352,ls),
(280,354,o),
(279,355,o),
(278,355,c),
(232,402,ls),
(231,403,o),
(230,405,o),
(230,406,c),
(230,427,ls),
(230,429,o),
(230,430,o),
(229,431,cs),
(183,477,ls),
(182,478,o),
(181,479,o),
(181,480,c),
(181,506,ls),
(181,508,o),
(181,509,o),
(180,510,cs),
(149,540,ls),
(148,541,o),
(148,542,o),
(148,544,cs),
(148,573,l),
(148,574,o),
(147,576,o),
(146,577,cs),
(125,598,ls),
(124,599,o),
(123,601,o),
(123,602,c),
(123,628,ls),
(123,630,o),
(123,631,o),
(122,632,cs),
(99,655,ls),
(98,656,o),
(96,657,o),
(95,657,c),
(53,657,ls),
(50,657,o),
(48,659,o),
(48,662,cs),
(48,664,ls),
(48,666,o),
(48,667,o),
(49,668,cs)
);
}
);
width = 685;
}
);
},
{
glyphname = logo;
layers = (
{
layerId = "ED8FB365-A02F-46D3-A65B-595A86BAB06C";
shapes = (
{
closed = 1;
nodes = (
(796,499,o),
(792,495,o),
(785,493,c),
(785,482,o),
(776,474,o),
(765,474,c),
(763,464,o),
(757,459,o),
(746,459,cs),
(741,459,o),
(737,461,o),
(732,464,c),
(720,477,ls),
(716,481,o),
(714,486,o),
(714,491,cs),
(714,517,l),
(689,537,l),
(571,537,l),
(545,511,l),
(545,475,l),
(689,475,ls),
(695,475,o),
(700,473,o),
(703,470,cs),
(728,444,ls),
(732,440,o),
(734,435,o),
(734,430,cs),
(734,419,o),
(726,411,o),
(715,411,cs),
(677,411,ls),
(672,411,o),
(667,413,o),
(663,417,cs),
(643,436,l),
(534,436,l),
(440,342,l),
(437,342,o),
(432,335,o),
(425,335,cs),
(417,335,o),
(412,342,o),
(409,342,c),
(316,436,l),
(206,436,l),
(186,417,l),
(183,413,o),
(178,411,o),
(172,411,cs),
(135,411,ls),
(124,411,o),
(114,419,o),
(114,430,cs),
(114,435,o),
(116,439,o),
(121,444,cs),
(146,470,l),
(151,473,o),
(155,475,o),
(160,475,cs),
(197,475,l),
(198,475,l),
(304,475,l),
(304,511,l),
(278,537,l),
(160,537,l),
(135,517,l),
(135,491,ls),
(135,486,o),
(133,481,o),
(129,477,cs),
(117,464,l),
(112,461,o),
(108,459,o),
(103,459,cs),
(92,459,o),
(85,464,o),
(84,474,c),
(73,474,o),
(65,482,o),
(65,493,c),
(56,496,o),
(48,501,o),
(48,512,cs),
(48,517,o),
(50,521,o),
(55,526,cs),
(67,539,ls),
(71,543,o),
(76,545,o),
(81,545,cs),
(108,545,l),
(108,545,o),
(109,546,o),
(110,547,c),
(141,572,ls),
(144,575,o),
(148,576,o),
(153,576,cs),
(192,576,l),
(195,585,o),
(201,589,o),
(210,589,cs),
(215,589,o),
(220,587,o),
(224,583,cs),
(231,576,l),
(286,576,ls),
(291,576,o),
(295,574,o),
(300,571,c),
(304,566,l),
(304,586,l),
(278,613,l),
(143,613,l),
(123,593,l),
(118,590,o),
(114,588,o),
(109,588,cs),
(97,588,ls),
(92,588,o),
(88,590,o),
(83,593,c),
(70,606,l),
(67,611,o),
(65,615,o),
(65,620,cs),
(65,625,o),
(66,629,o),
(69,632,c),
(66,635,o),
(65,640,o),
(65,645,cs),
(65,650,o),
(67,654,o),
(70,659,c),
(83,671,ls),
(87,675,o),
(92,677,o),
(97,677,cs),
(109,677,ls),
(114,677,o),
(119,675,o),
(123,671,cs),
(143,652,l),
(178,652,l),
(178,680,l),
(162,680,o),
(153,706,o),
(153,721,cs),
(153,758,ls),
(153,769,o),
(161,778,o),
(172,778,cs),
(223,778,ls),
(234,778,o),
(242,769,o),
(242,758,cs),
(242,721,ls),
(242,706,o),
(233,680,o),
(217,680,c),
(217,652,l),
(242,652,l),
(241,653,o),
(241,655,o),
(241,657,cs),
(241,668,o),
(249,677,o),
(261,677,cs),
(266,677,o),
(271,675,o),
(275,671,cs),
(311,635,l),
(314,638,o),
(319,639,o),
(324,639,cs),
(335,639,o),
(343,631,o),
(343,620,cs),
(343,464,l),
(405,402,l),
(405,473,l),
(373,505,ls),
(369,509,o),
(367,514,o),
(367,519,cs),
(367,530,o),
(376,538,o),
(387,538,cs),
(392,538,o),
(396,536,o),
(401,533,c),
(405,528,l),
(405,612,l),
(310,707,l),
(306,710,o),
(304,714,o),
(304,721,cs),
(304,739,l),
(298,739,ls),
(287,739,o),
(279,747,o),
(279,758,cs),
(279,769,o),
(287,778,o),
(298,778,cs),
(304,778,l),
(304,784,ls),
(304,795,o),
(313,803,o),
(324,803,cs),
(335,803,o),
(343,795,o),
(343,784,cs),
(343,778,l),
(349,778,ls),
(360,778,o),
(368,769,o),
(368,758,cs),
(368,747,o),
(360,739,o),
(349,739,cs),
(343,739,l),
(343,729,l),
(405,667,l),
(405,787,l),
(404,788,o),
(403,789,o),
(403,790,c),
(348,845,ls),
(344,849,o),
(342,854,o),
(342,859,cs),
(342,864,o),
(344,869,o),
(348,873,cs),
(360,886,ls),
(363,889,o),
(364,889,o),
(367,890,c),
(367,910,ls),
(367,915,o),
(369,920,o),
(373,924,cs),
(386,936,l),
(389,940,o),
(393,942,o),
(399,942,cs),
(403,942,o),
(407,941,o),
(410,939,c),
(414,943,o),
(419,945,o),
(425,945,cs),
(430,945,o),
(435,943,o),
(439,939,c),
(442,941,o),
(445,942,o),
(450,942,cs),
(455,942,o),
(460,940,o),
(464,936,cs),
(476,924,ls),
(480,920,o),
(482,915,o),
(482,910,cs),
(482,890,l),
(485,889,o),
(487,887,o),
(489,886,c),
(501,873,ls),
(505,869,o),
(507,864,o),
(507,859,cs),
(507,854,o),
(505,849,o),
(501,845,cs),
(446,790,l),
(446,789,o),
(445,788,o),
(444,787,c),
(444,667,l),
(506,729,l),
(506,739,l),
(500,739,ls),
(489,739,o),
(481,747,o),
(481,758,cs),
(481,769,o),
(489,778,o),
(500,778,cs),
(506,778,l),
(506,784,ls),
(506,795,o),
(514,803,o),
(525,803,cs),
(536,803,o),
(545,795,o),
(545,784,cs),
(545,778,l),
(551,778,ls),
(562,778,o),
(570,769,o),
(570,758,cs),
(570,747,o),
(562,739,o),
(551,739,cs),
(545,739,l),
(545,721,ls),
(545,714,o),
(543,710,o),
(539,707,c),
(444,612,l),
(444,528,l),
(449,533,ls),
(452,536,o),
(457,538,o),
(462,538,cs),
(477,538,o),
(482,528,o),
(482,519,cs),
(482,514,o),
(480,509,o),
(476,505,cs),
(444,473,l),
(444,402,l),
(506,464,l),
(506,620,ls),
(506,631,o),
(514,639,o),
(525,639,cs),
(530,639,o),
(535,638,o),
(538,635,c),
(575,671,l),
(578,675,o),
(582,677,o),
(589,677,cs),
(600,677,o),
(608,668,o),
(608,657,c),
(608,656,o),
(607,655,o),
(607,652,c),
(632,652,l),
(632,680,l),
(616,680,o),
(607,706,o),
(607,721,cs),
(607,758,ls),
(607,769,o),
(615,778,o),
(626,778,cs),
(677,778,ls),
(688,778,o),
(696,769,o),
(696,758,cs),
(696,721,ls),
(696,706,o),
(687,680,o),
(671,680,c),
(671,652,l),
(707,652,l),
(726,671,ls),
(730,675,o),
(735,677,o),
(740,677,cs),
(752,677,ls),
(757,677,o),
(762,675,o),
(766,671,cs),
(779,659,ls),
(783,655,o),
(785,650,o),
(785,645,cs),
(785,641,o),
(783,637,o),
(780,632,c),
(783,629,o),
(785,625,o),
(785,620,cs),
(785,615,o),
(783,610,o),
(779,606,cs),
(766,593,l),
(761,590,o),
(757,588,o),
(752,588,cs),
(740,588,ls),
(735,588,o),
(731,590,o),
(726,593,c),
(707,613,l),
(571,613,l),
(545,586,l),
(545,566,l),
(549,571,l),
(554,574,o),
(558,576,o),
(563,576,cs),
(618,576,l),
(625,583,ls),
(629,587,o),
(634,589,o),
(639,589,cs),
(648,589,o),
(654,585,o),
(657,576,c),
(696,576,ls),
(701,576,o),
(705,575,o),
(708,572,cs),
(739,547,l),
(740,546,o),
(741,546,o),
(742,545,c),
(768,545,ls),
(773,545,o),
(778,543,o),
(782,539,cs),
(794,526,ls),
(798,522,o),
(800,517,o),
(800,512,cs),
(800,509,o),
(800,506,o),
(799,505,c)
);
},
{
closed = 1;
nodes = (
(276,13,ls),
(276,4,o),
(272,0,o),
(264,0,cs),
(203,0,ls),
(195,0,o),
(191,4,o),
(191,13,cs),
(191,362,ls),
(191,371,o),
(195,375,o),
(203,375,cs),
(264,375,ls),
(272,375,o),
(279,372,o),
(285,366,cs),
(417,234,ls),
(418,233,o),
(420,232,o),
(423,232,cs),
(426,232,o),
(429,233,o),
(430,234,cs),
(562,366,ls),
(568,372,o),
(575,375,o),
(583,375,cs),
(644,375,ls),
(652,375,o),
(656,371,o),
(656,362,cs),
(656,13,ls),
(656,4,o),
(652,0,o),
(644,0,cs),
(583,0,ls),
(574,0,o),
(570,4,o),
(570,13,cs),
(570,232,ls),
(570,234,o),
(569,235,o),
(566,235,c),
(565,235,o),
(565,235,o),
(564,234,cs),
(446,116,l),
(439,110,o),
(431,107,o),
(424,107,c),
(423,107,l),
(416,107,o),
(408,110,o),
(401,116,c),
(283,234,ls),
(282,235,o),
(281,235,o),
(280,235,c),
(277,235,o),
(276,234,o),
(276,232,cs)
);
},
{
closed = 1;
nodes = (
(1018,381,o),
(1102,307,o),
(1102,188,cs),
(1102,74,o),
(1018,-6,o),
(903,-6,cs),
(788,-6,o),
(704,68,o),
(704,188,cs),
(704,296,o),
(784,381,o),
(903,381,cs)
);
},
{
closed = 1;
nodes = (
(974,74,o),
(1011,125,o),
(1011,188,cs),
(1011,256,o),
(963,301,o),
(903,301,cs),
(840,301,o),
(795,256,o),
(795,188,cs),
(795,123,o),
(843,74,o),
(903,74,cs)
);
},
{
closed = 1;
nodes = (
(1146,366,ls),
(1146,372,o),
(1149,375,o),
(1155,375,cs),
(1222,375,ls),
(1228,375,o),
(1231,372,o),
(1231,366,cs),
(1231,85,ls),
(1231,82,o),
(1233,81,o),
(1236,81,cs),
(1375,81,ls),
(1381,81,o),
(1384,78,o),
(1384,72,cs),
(1384,9,ls),
(1384,3,o),
(1381,0,o),
(1375,0,cs),
(1155,0,ls),
(1149,0,o),
(1146,3,o),
(1146,9,cs)
);
},
{
closed = 1;
nodes = (
(1432,366,ls),
(1432,372,o),
(1435,375,o),
(1441,375,cs),
(1462,375,o),
(1527,376,o),
(1550,376,cs),
(1700,376,o),
(1760,290,o),
(1760,191,cs),
(1760,86,o),
(1687,-1,o),
(1546,-1,cs),
(1526,-1,o),
(1477,0,o),
(1441,0,cs),
(1435,0,o),
(1432,3,o),
(1432,9,cs)
);
},
{
closed = 1;
nodes = (
(1519,295,o),
(1517,293,o),
(1517,290,cs),
(1517,85,ls),
(1517,77,o),
(1537,80,o),
(1548,80,cs),
(1623,80,o),
(1669,119,o),
(1669,191,cs),
(1669,260,o),
(1618,296,o),
(1549,296,cs),
(1541,296,o),
(1531,296,o),
(1522,295,c)
);
},
{
closed = 1;
nodes = (
(2117,381,o),
(2201,307,o),
(2201,188,cs),
(2201,74,o),
(2117,-6,o),
(2002,-6,cs),
(1887,-6,o),
(1803,68,o),
(1803,188,cs),
(1803,296,o),
(1883,381,o),
(2002,381,cs)
);
},
{
closed = 1;
nodes = (
(2073,74,o),
(2110,125,o),
(2110,188,cs),
(2110,256,o),
(2062,301,o),
(2002,301,cs),
(1939,301,o),
(1894,256,o),
(1894,188,cs),
(1894,123,o),
(1942,74,o),
(2002,74,cs)
);
},
{
closed = 1;
nodes = (
(2419,9,l),
(2416,3,o),
(2412,0,o),
(2406,0,cs),
(2357,0,ls),
(2352,0,o),
(2348,3,o),
(2345,9,cs),
(2199,366,l),
(2198,367,o),
(2198,368,o),
(2198,369,c),
(2198,373,o),
(2200,375,o),
(2204,375,cs),
(2280,375,ls),
(2285,375,o),
(2289,372,o),
(2292,366,c),
(2383,132,l),
(2383,131,o),
(2384,130,o),
(2385,130,c),
(2386,131,o),
(2386,131,o),
(2386,132,c),
(2473,366,l),
(2476,372,o),
(2480,375,o),
(2486,375,cs),
(2556,375,ls),
(2560,375,o),
(2562,373,o),
(2562,369,c),
(2562,368,o),
(2561,367,o),
(2561,366,c)
);
},
{
closed = 1;
nodes = (
(2632,367,l),
(2635,372,o),
(2639,375,o),
(2644,375,cs),
(2700,375,ls),
(2705,375,o),
(2709,372,o),
(2712,367,c),
(2853,9,l),
(2853,8,o),
(2854,7,o),
(2854,6,c),
(2854,2,o),
(2852,0,o),
(2848,0,cs),
(2778,0,ls),
(2772,0,o),
(2768,3,o),
(2767,9,c),
(2742,75,ls),
(2741,78,o),
(2739,79,o),
(2736,79,cs),
(2603,79,ls),
(2600,79,o),
(2598,78,o),
(2597,75,cs),
(2573,9,l),
(2570,3,o),
(2566,0,o),
(2561,0,cs),
(2496,0,ls),
(2492,0,o),
(2490,2,o),
(2490,6,c),
(2490,7,o),
(2490,8,o),
(2491,9,c)
);
},
{
closed = 1;
nodes = (
(2631,163,l),
(2631,162,l),
(2631,160,o),
(2632,159,o),
(2634,159,cs),
(2705,159,ls),
(2707,159,o),
(2708,160,o),
(2708,162,c),
(2708,163,l),
(2671,261,l),
(2670,262,l),
(2669,261,o),
(2668,261,o),
(2668,261,c)
);
}
);
width = 2942;
}
);
},
{
glyphname = a00E2.alt;
kernLeft = _kern27;
kernRight = _kern27;
layers = (
{
layerId = "ED8FB365-A02F-46D3-A65B-595A86BAB06C";
shapes = (
{
closed = 1;
nodes = (
(288,734,l),
(210,637,l),
(145,637,l),
(268,783,l),
(309,783,l),
(432,637,l),
(370,637,l)
);
},
{
closed = 1;
nodes = (
(123,71,o),
(186,49,o),
(240,49,cs),
(340,49,o),
(429,100,o),
(429,212,cs),
(429,255,l),
(356,252,o),
(251,249,o),
(186,225,cs),
(146,210,o),
(122,178,o),
(122,138,cs)
);
},
{
closed = 1;
nodes = (
(430,76,l),
(378,15,o),
(310,-6,o),
(233,-6,cs),
(137,-6,o),
(54,38,o),
(54,142,cs),
(54,253,o),
(163,287,o),
(253,298,cs),
(297,304,o),
(355,308,o),
(427,310,c),
(427,406,o),
(390,477,o),
(283,477,cs),
(232,477,o),
(177,463,o),
(152,414,c),
(80,414,l),
(104,501,o),
(199,533,o),
(285,533,cs),
(441,533,o),
(493,425,o),
(493,286,cs),
(493,0,l),
(439,0,l)
);
}
);
width = 563;
}
);
},
{
glyphname = a0103.alt;
kernLeft = _kern27;
kernRight = _kern27;
layers = (
{
layerId = "ED8FB365-A02F-46D3-A65B-595A86BAB06C";
shapes = (
{
closed = 1;
nodes = (
(337,666,o),
(390,678,o),
(398,738,c),
(459,738,l),
(451,645,o),
(371,615,o),
(289,615,cs),
(205,615,o),
(131,645,o),
(123,738,c),
(184,738,l),
(192,678,o),
(245,666,o),
(291,666,cs)
);
},
{
closed = 1;
nodes = (
(122,71,o),
(186,49,o),
(240,49,cs),
(340,49,o),
(429,100,o),
(429,212,cs),
(429,255,l),
(356,252,o),
(251,249,o),
(186,225,cs),
(146,210,o),
(121,178,o),
(122,138,c)
);
},
{
closed = 1;
nodes = (
(430,76,l),
(378,15,o),
(310,-6,o),
(233,-6,cs),
(137,-6,o),
(54,38,o),
(54,142,cs),
(54,253,o),
(163,287,o),
(253,298,cs),
(297,304,o),
(355,308,o),
(427,310,c),
(427,406,o),
(390,477,o),
(283,477,cs),
(232,477,o),
(177,463,o),
(152,414,c),
(80,414,l),
(104,501,o),
(199,533,o),
(285,533,cs),
(441,533,o),
(493,425,o),
(493,286,cs),
(493,0,l),
(439,0,l)
);
}
);
width = 563;
}
);
},
{
glyphname = a00E4.alt;
kernLeft = _kern27;
kernRight = _kern27;
layers = (
{
layerId = "ED8FB365-A02F-46D3-A65B-595A86BAB06C";
shapes = (
{
closed = 1;
nodes = (
(207,719,o),
(230,699,o),
(230,671,cs),
(230,643,o),
(207,623,o),
(180,623,cs),
(153,623,o),
(131,644,o),
(131,671,cs),
(131,698,o),
(153,719,o),
(180,719,cs)
);
},
{
closed = 1;
nodes = (
(428,719,o),
(451,699,o),
(451,671,cs),
(451,643,o),
(428,623,o),
(401,623,cs),
(374,623,o),
(353,644,o),
(353,671,cs),
(353,698,o),
(374,719,o),
(401,719,cs)
);
},
{
closed = 1;
nodes = (
(123,71,o),
(186,49,o),
(240,49,cs),
(340,49,o),
(429,100,o),
(429,212,cs),
(429,255,l),
(356,252,o),
(251,249,o),
(186,225,cs),
(146,210,o),
(122,178,o),
(122,138,cs)
);
},
{
closed = 1;
nodes = (
(430,76,l),
(378,15,o),
(310,-6,o),
(233,-6,cs),
(137,-6,o),
(54,38,o),
(54,142,cs),
(54,253,o),
(163,287,o),
(253,298,cs),
(297,304,o),
(355,308,o),
(427,310,c),
(427,406,o),
(390,477,o),
(283,477,cs),
(232,477,o),
(176,463,o),
(151,414,c),
(80,414,l),
(104,501,o),
(199,533,o),
(285,533,cs),
(441,533,o),
(493,425,o),
(493,286,cs),
(493,0,l),
(439,0,l)
);
}
);
width = 563;
}
);
},
{
glyphname = a2_alt;
kernLeft = _kern9;
layers = (
{
layerId = "ED8FB365-A02F-46D3-A65B-595A86BAB06C";
shapes = (
{
closed = 1;
nodes = (
(475,527,l),
(541,527,l),
(541,0,l),
(475,0,l),
(475,82,l),
(460,59,o),
(444,46,o),
(425,33,cs),
(385,5,o),
(335,-6,o),
(282,-6,cs),
(117,-6,o),
(53,117,o),
(53,267,cs),
(53,413,o),
(141,533,o),
(292,533,cs),
(335,533,o),
(372,527,o),
(407,508,cs),
(432,495,o),
(456,477,o),
(475,449,c)
);
},
{
closed = 1;
nodes = (
(170,477,o),
(119,376,o),
(119,265,cs),
(119,149,o),
(166,50,o),
(296,50,cs),
(355,50,o),
(403,78,o),
(434,118,cs),
(465,158,o),
(477,206,o),
(477,265,cs),
(477,330,o),
(460,401,o),
(405,442,cs),
(374,465,o),
(337,477,o),
(295,477,cs)
);
}
);
width = 613;
}
);
},
{
glyphname = logom;
layers = (
{
layerId = "ED8FB365-A02F-46D3-A65B-595A86BAB06C";
shapes = (
{
closed = 1;
nodes = (
(797,502,o),
(792,498,o),
(785,496,c),
(785,485,o),
(777,477,o),
(766,477,c),
(765,470,o),
(761,465,o),
(753,463,cs),
(737,458,o),
(726,474,o),
(721,479,cs),
(712,488,o),
(714,493,o),
(714,520,c),
(689,540,l),
(571,540,l),
(544,514,l),
(544,478,l),
(690,478,ls),
(695,478,o),
(700,476,o),
(704,472,cs),
(729,447,ls),
(741,435,o),
(732,413,o),
(715,413,cs),
(661,413,o),
(675,407,o),
(643,439,c),
(533,439,l),
(438,344,l),
(429,333,o),
(416,333,o),
(408,344,c),
(313,439,l),
(203,439,l),
(183,419,ls),
(179,415,o),
(174,413,o),
(169,413,cs),
(131,413,ls),
(114,413,o),
(105,434,o),
(117,447,c),
(142,472,ls),
(146,476,o),
(151,478,o),
(156,478,cs),
(302,478,l),
(302,514,l),
(275,540,l),
(157,540,l),
(132,520,l),
(132,493,o),
(134,488,o),
(125,479,cs),
(122,476,o),
(118,472,o),
(113,467,cs),
(102,456,o),
(83,461,o),
(80,477,c),
(69,477,o),
(61,485,o),
(61,496,c),
(53,498,o),
(48,502,o),
(46,510,cs),
(42,525,o),
(58,536,o),
(63,541,cs),
(72,550,o),
(77,548,o),
(104,548,c),
(138,575,ls),
(141,578,o),
(145,580,o),
(150,580,cs),
(189,580,l),
(194,593,o),
(210,596,o),
(221,587,c),
(228,580,l),
(283,580,ls),
(292,580,o),
(295,576,o),
(302,569,c),
(302,590,l),
(275,616,l),
(139,616,l),
(113,590,o),
(119,591,o),
(93,591,cs),
(82,591,o),
(75,600,o),
(66,609,c),
(59,618,o),
(58,627,o),
(65,636,c),
(51,653,o),
(70,666,o),
(79,675,cs),
(86,683,o),
(95,681,o),
(106,681,cs),
(111,681,o),
(116,679,o),
(120,675,cs),
(139,656,l),
(175,656,l),
(175,684,l),
(159,691,o),
(149,706,o),
(149,725,cs),
(149,763,ls),
(149,774,o),
(158,783,o),
(169,783,cs),
(220,783,ls),
(231,783,o),
(240,774,o),
(240,763,cs),
(240,725,ls),
(240,706,o),
(230,691,o),
(214,684,c),
(214,656,l),
(239,656,l),
(234,675,o),
(258,692,o),
(272,675,c),
(309,639,l),
(310,640,o),
(311,640,o),
(312,641,c),
(315,642,o),
(318,643,o),
(321,643,cs),
(332,643,o),
(341,634,o),
(341,623,cs),
(341,467,l),
(403,404,l),
(403,476,l),
(371,508,ls),
(353,526,o),
(380,555,o),
(399,536,c),
(403,531,l),
(403,615,l),
(308,711,ls),
(300,719,o),
(302,730,o),
(302,743,c),
(296,743,ls),
(269,743,o),
(269,783,o),
(296,783,cs),
(302,783,l),
(302,788,ls),
(302,814,o),
(341,814,o),
(341,788,cs),
(341,783,l),
(347,783,ls),
(373,783,o),
(373,743,o),
(347,743,cs),
(341,743,l),
(341,733,l),
(403,671,l),
(403,792,ls),
(403,795,o),
(353,844,o),
(346,851,cs),
(338,858,o),
(338,871,o),
(346,879,cs),
(351,884,o),
(358,893,o),
(365,896,c),
(365,927,o),
(362,920,o),
(384,942,cs),
(391,950,o),
(399,951,o),
(408,945,c),
(419,954,o),
(433,952,o),
(438,945,c),
(453,955,o),
(465,939,o),
(475,929,cs),
(483,921,o),
(481,909,o),
(481,896,c),
(488,893,o),
(495,884,o),
(500,879,cs),
(508,871,o),
(508,858,o),
(500,851,cs),
(493,844,o),
(443,795,o),
(443,792,cs),
(443,671,l),
(505,733,l),
(505,743,l),
(499,743,ls),
(472,743,o),
(472,783,o),
(499,783,cs),
(505,783,l),
(505,788,ls),
(505,814,o),
(544,814,o),
(544,788,cs),
(544,783,l),
(550,783,ls),
(576,783,o),
(576,743,o),
(550,743,cs),
(544,743,l),
(544,730,o),
(546,719,o),
(539,711,c),
(443,615,l),
(443,531,l),
(448,538,o),
(452,542,o),
(461,542,cs),
(480,542,o),
(487,520,o),
(475,508,cs),
(443,476,l),
(443,404,l),
(505,467,l),
(505,623,ls),
(505,640,o),
(524,650,o),
(537,639,c),
(574,675,l),
(588,692,o),
(612,675,o),
(607,656,c),
(632,656,l),
(632,684,l),
(616,691,o),
(606,706,o),
(606,725,cs),
(606,763,ls),
(606,774,o),
(615,783,o),
(626,783,cs),
(677,783,ls),
(688,783,o),
(697,774,o),
(697,763,cs),
(697,725,ls),
(697,706,o),
(687,691,o),
(671,684,c),
(671,656,l),
(707,656,l),
(733,682,o),
(727,681,o),
(753,681,cs),
(764,681,o),
(771,672,o),
(780,663,c),
(787,654,o),
(788,645,o),
(781,636,c),
(794,620,o),
(776,606,o),
(767,597,cs),
(760,590,o),
(751,591,o),
(740,591,cs),
(735,591,o),
(730,593,o),
(726,597,cs),
(707,616,l),
(571,616,l),
(544,590,l),
(544,569,l),
(551,576,o),
(554,580,o),
(563,580,cs),
(618,580,l),
(625,587,o),
(628,592,o),
(639,592,cs),
(648,592,o),
(654,588,o),
(657,580,c),
(696,580,ls),
(701,580,o),
(705,578,o),
(708,575,cs),
(742,548,l),
(781,548,o),
(773,551,o),
(795,529,cs),
(802,523,o),
(803,516,o),
(800,508,cs)
);
},
{
closed = 1;
nodes = (
(274,13,ls),
(274,4,o),
(270,0,o),
(261,0,cs),
(200,0,ls),
(191,0,o),
(187,4,o),
(187,13,cs),
(187,364,ls),
(187,373,o),
(191,377,o),
(200,377,cs),
(261,377,ls),
(268,377,o),
(276,374,o),
(283,368,c),
(415,235,l),
(420,231,o),
(424,231,o),
(428,235,cs),
(561,368,l),
(568,374,o),
(576,377,o),
(583,377,cs),
(644,377,ls),
(652,377,o),
(656,373,o),
(656,364,cs),
(656,13,ls),
(656,4,o),
(652,0,o),
(644,0,cs),
(583,0,ls),
(574,0,o),
(570,4,o),
(570,13,cs),
(570,233,ls),
(570,236,o),
(566,239,o),
(563,236,cs),
(444,116,l),
(432,105,o),
(412,105,o),
(400,116,c),
(280,236,ls),
(277,239,o),
(274,236,o),
(274,233,cs)
);
}
);
width = 847;
}
);
},
{
glyphname = plusminus;
layers = (
{
associatedMasterId = "ED8FB365-A02F-46D3-A65B-595A86BAB06C";
layerId = "6663C206-CE18-4A3D-86E3-5F35C28711DA";
name = img;
width = 508;
},
{
layerId = "ED8FB365-A02F-46D3-A65B-595A86BAB06C";
shapes = (
{
closed = 1;
nodes = (
(285,620,l),
(285,463,l),
(434,463,l),
(434,403,l),
(285,403,l),
(285,251,l),
(220,251,l),
(220,403,l),
(74,403,l),
(74,463,l),
(220,463,l),
(220,620,l)
);
},
{
closed = 1;
nodes = (
(434,201,l),
(434,141,l),
(74,141,l),
(74,201,l)
);
}
);
width = 508;
}
);
unicode = 177;
},
{
glyphname = notequal;
layers = (
{
associatedMasterId = "ED8FB365-A02F-46D3-A65B-595A86BAB06C";
layerId = "6663C206-CE18-4A3D-86E3-5F35C28711DA";
name = img;
width = 539;
},
{
layerId = "ED8FB365-A02F-46D3-A65B-595A86BAB06C";
shapes = (
{
closed = 1;
nodes = (
(74,507,l),
(307,507,l),
(398,703,l),
(465,703,l),
(375,507,l),
(465,507,l),
(465,447,l),
(347,447,l),
(257,251,l),
(465,251,l),
(465,191,l),
(229,191,l),
(141,0,l),
(74,0,l),
(162,191,l),
(74,191,l),
(74,251,l),
(190,251,l),
(280,447,l),
(74,447,l)
);
}
);
width = 539;
}
);
unicode = 8800;
},
{
glyphname = greaterequal;
layers = (
{
associatedMasterId = "ED8FB365-A02F-46D3-A65B-595A86BAB06C";
layerId = "6663C206-CE18-4A3D-86E3-5F35C28711DA";
name = img;
width = 539;
},
{
layerId = "ED8FB365-A02F-46D3-A65B-595A86BAB06C";
shapes = (
{
closed = 1;
nodes = (
(465,418,l),
(74,213,l),
(74,279,l),
(371,432,l),
(74,586,l),
(74,655,l),
(465,449,l)
);
},
{
closed = 1;
nodes = (
(74,201,l),
(465,201,l),
(465,141,l),
(74,141,l)
);
}
);
width = 539;
}
);
unicode = 8805;
},
{
glyphname = lessequal;
layers = (
{
associatedMasterId = "ED8FB365-A02F-46D3-A65B-595A86BAB06C";
layerId = "6663C206-CE18-4A3D-86E3-5F35C28711DA";
name = img;
width = 539;
},
{
layerId = "ED8FB365-A02F-46D3-A65B-595A86BAB06C";
shapes = (
{
closed = 1;
nodes = (
(74,450,l),
(465,655,l),
(465,588,l),
(168,435,l),
(465,281,l),
(465,213,l),
(74,419,l)
);
},
{
closed = 1;
nodes = (
(74,201,l),
(465,201,l),
(465,141,l),
(74,141,l)
);
}
);
width = 539;
}
);
unicode = 8804;
},
{
glyphname = approxequal;
layers = (
{
associatedMasterId = "ED8FB365-A02F-46D3-A65B-595A86BAB06C";
layerId = "6663C206-CE18-4A3D-86E3-5F35C28711DA";
name = img;
width = 593;
},
{
layerId = "ED8FB365-A02F-46D3-A65B-595A86BAB06C";
shapes = (
{
closed = 1;
nodes = (
(293,336,o),
(334,223,o),
(397,223,cs),
(448,223,o),
(454,273,o),
(457,314,c),
(519,314,l),
(514,234,o),
(485,166,o),
(393,166,cs),
(297,166,o),
(259,278,o),
(195,278,cs),
(147,278,o),
(137,227,o),
(137,187,c),
(74,187,l),
(77,267,o),
(109,336,o),
(200,336,cs)
);
},
{
closed = 1;
nodes = (
(293,531,o),
(334,418,o),
(397,418,cs),
(448,418,o),
(454,468,o),
(457,509,c),
(519,509,l),
(514,429,o),
(485,361,o),
(393,361,cs),
(297,361,o),
(259,473,o),
(195,473,cs),
(147,473,o),
(137,422,o),
(137,382,c),
(74,382,l),
(77,462,o),
(109,531,o),
(200,531,cs)
);
}
);
width = 593;
}
);
unicode = 8776;
},
{
glyphname = twosuperior;
layers = (
{
associatedMasterId = "ED8FB365-A02F-46D3-A65B-595A86BAB06C";
layerId = "6663C206-CE18-4A3D-86E3-5F35C28711DA";
name = img;
width = 357;
},
{
layerId = "ED8FB365-A02F-46D3-A65B-595A86BAB06C";
shapes = (
{
closed = 1;
nodes = (
(156,549,ls),
(186,574,o),
(239,614,o),
(240,661,cs),
(240,700,o),
(218,720,o),
(179,720,cs),
(152,720,o),
(127,709,o),
(120,680,c),
(63,680,l),
(71,743,o),
(124,772,o),
(183,772,cs),
(246,772,o),
(297,735,o),
(297,668,cs),
(297,600,o),
(247,560,o),
(199,520,cs),
(179,503,o),
(157,487,o),
(138,470,c),
(297,470,l),
(297,419,l),
(60,419,l),
(60,466,l)
);
}
);
width = 357;
}
);
unicode = 178;
},
{
glyphname = threesuperior;
layers = (
{
associatedMasterId = "ED8FB365-A02F-46D3-A65B-595A86BAB06C";
layerId = "6663C206-CE18-4A3D-86E3-5F35C28711DA";
name = img;
width = 378;
},
{
layerId = "ED8FB365-A02F-46D3-A65B-595A86BAB06C";
shapes = (
{
closed = 1;
nodes = (
(130,415,o),
(65,441,o),
(60,508,c),
(118,508,l),
(129,476,o),
(160,466,o),
(191,466,cs),
(227,466,o),
(261,478,o),
(261,521,cs),
(261,563,o),
(224,571,o),
(189,571,cs),
(156,571,l),
(156,620,l),
(177,620,ls),
(210,620,o),
(248,631,o),
(248,670,cs),
(248,707,o),
(221,720,o),
(188,720,cs),
(160,720,o),
(134,710,o),
(127,679,c),
(71,679,l),
(79,744,o),
(132,772,o),
(193,772,cs),
(249,772,o),
(304,743,o),
(304,680,cs),
(304,645,o),
(288,620,o),
(257,605,c),
(298,594,o),
(318,565,o),
(318,522,cs),
(318,446,o),
(259,415,o),
(191,415,cs)
);
}
);
width = 378;
}
);
unicode = 179;
},
{
glyphname = I_alt;
layers = (
{
layerId = "ED8FB365-A02F-46D3-A65B-595A86BAB06C";
shapes = (
{
closed = 1;
nodes = (
(536,647,l),
(322,647,l),
(322,60,l),
(536,60,l),
(536,0,l),
(45,0,l),
(45,60,l),
(257,60,l),
(257,647,l),
(45,647,l),
(45,707,l),
(536,707,l)
);
}
);
width = 581;
}
);
},
{
glyphname = tab_1;
layers = (
{
layerId = "ED8FB365-A02F-46D3-A65B-595A86BAB06C";
shapes = (
{
closed = 1;
nodes = (
(370,60,l),
(554,60,l),
(554,0,l),
(114,0,l),
(114,60,l),
(305,60,l),
(305,585,l),
(142,585,l),
(142,627,l),
(179,627,o),
(234,629,o),
(269,646,cs),
(298,660,o),
(315,679,o),
(328,707,c),
(370,707,l)
);
}
);
width = 671;
}
);
},
{
glyphname = l_alt;
layers = (
{
layerId = "ED8FB365-A02F-46D3-A65B-595A86BAB06C";
shapes = (
{
closed = 1;
nodes = (
(138,175,ls),
(138,138,o),
(140,93,o),
(174,72,cs),
(193,60,o),
(221,57,o),
(242,57,cs),
(267,57,l),
(267,0,l),
(234,0,ls),
(187,0,o),
(141,6,o),
(108,41,cs),
(77,73,o),
(72,128,o),
(72,171,cs),
(72,707,l),
(138,707,l)
);
}
);
width = 301;
}
);
},
{
glyphname = l2_alt;
layers = (
{
layerId = "ED8FB365-A02F-46D3-A65B-595A86BAB06C";
shapes = (
{
closed = 1;
nodes = (
(138,174,ls),
(138,146,o),
(139,114,o),
(152,89,cs),
(167,60,o),
(197,50,o),
(228,50,cs),
(253,50,o),
(277,56,o),
(296,73,c),
(322,25,l),
(290,0,o),
(258,-6,o),
(219,-6,cs),
(176,-6,o),
(132,4,o),
(104,39,cs),
(77,74,o),
(72,122,o),
(72,163,cs),
(72,707,l),
(138,707,l)
);
}
);
width = 342;
}
);
},
{
glyphname = uniE000;
layers = (
{
layerId = "ED8FB365-A02F-46D3-A65B-595A86BAB06C";
shapes = (
{
closed = 1;
nodes = (
(608,173,o),
(546,-8,o),
(335,-8,cs),
(124,-8,o),
(63,172,o),
(63,353,cs),
(63,532,o),
(125,715,o),
(335,715,cs),
(546,715,o),
(608,532,o),
(608,353,cs)
);
},
{
closed = 1;
nodes = (
(130,213,o),
(163,51,o),
(335,51,cs),
(508,51,o),
(540,213,o),
(540,353,cs),
(540,491,o),
(506,656,o),
(335,656,cs),
(164,656,o),
(130,491,o),
(130,353,cs)
);
}
);
width = 671;
}
);
unicode = 57344;
},
{
glyphname = uniE001;
layers = (
{
layerId = "ED8FB365-A02F-46D3-A65B-595A86BAB06C";
shapes = (
{
closed = 1;
nodes = (
(370,0,l),
(305,0,l),
(305,585,l),
(163,585,l),
(163,624,l),
(236,627,o),
(294,635,o),
(326,707,c),
(370,707,l)
);
}
);
width = 671;
}
);
unicode = 57345;
},
{
glyphname = uniE002;
layers = (
{
layerId = "ED8FB365-A02F-46D3-A65B-595A86BAB06C";
shapes = (
{
closed = 1;
nodes = (
(495,607,o),
(427,656,o),
(338,656,cs),
(273,656,o),
(211,631,o),
(186,571,c),
(113,571,l),
(140,671,o),
(246,715,o),
(342,715,cs),
(467,715,o),
(561,646,o),
(561,515,cs),
(561,387,o),
(478,310,o),
(387,233,cs),
(185,60,l),
(569,60,l),
(569,0,l),
(92,0,l),
(92,62,l),
(296,236,ls),
(381,308,o),
(495,392,o),
(495,513,cs)
);
}
);
width = 671;
}
);
unicode = 57346;
},
{
glyphname = uniE003;
layers = (
{
layerId = "ED8FB365-A02F-46D3-A65B-595A86BAB06C";
shapes = (
{
closed = 1;
nodes = (
(160,141,l),
(181,72,o),
(275,51,o),
(339,51,cs),
(434,51,o),
(523,83,o),
(523,193,cs),
(523,310,o),
(424,330,o),
(328,330,cs),
(255,330,l),
(255,390,l),
(303,390,ls),
(354,390,o),
(405,399,o),
(445,431,cs),
(474,454,o),
(494,489,o),
(495,526,cs),
(498,622,o),
(419,656,o),
(335,656,cs),
(269,656,o),
(196,636,o),
(180,568,c),
(112,568,l),
(125,677,o),
(243,715,o),
(339,715,cs),
(451,715,o),
(558,670,o),
(558,539,cs),
(558,463,o),
(513,400,o),
(440,372,c),
(533,353,o),
(590,289,o),
(590,193,cs),
(590,45,o),
(467,-8,o),
(338,-8,cs),
(234,-8,o),
(114,28,o),
(92,141,c)
);
}
);
width = 671;
}
);
unicode = 57347;
},
{
glyphname = uniE004;
layers = (
{
layerId = "ED8FB365-A02F-46D3-A65B-595A86BAB06C";
shapes = (
{
closed = 1;
nodes = (
(438,146,l),
(57,146,l),
(57,198,l),
(407,707,l),
(503,707,l),
(503,206,l),
(591,206,l),
(591,146,l),
(503,146,l),
(503,0,l),
(438,0,l)
);
},
{
closed = 1;
nodes = (
(438,647,l),
(136,206,l),
(438,206,l)
);
}
);
width = 671;
}
);
unicode = 57348;
},
{
glyphname = uniE005;
layers = (
{
layerId = "ED8FB365-A02F-46D3-A65B-595A86BAB06C";
shapes = (
{
closed = 1;
nodes = (
(117,320,l),
(151,707,l),
(562,707,l),
(562,647,l),
(209,647,l),
(185,386,l),
(236,427,o),
(298,446,o),
(366,446,cs),
(499,446,o),
(588,357,o),
(588,224,cs),
(588,73,o),
(477,-8,o),
(336,-8,cs),
(232,-8,o),
(128,34,o),
(99,143,c),
(168,143,l),
(194,83,o),
(271,51,o),
(333,51,cs),
(442,51,o),
(520,104,o),
(520,219,cs),
(520,327,o),
(451,386,o),
(346,386,cs),
(290,386,o),
(234,360,o),
(193,320,c)
);
}
);
width = 671;
}
);
unicode = 57349;
},
{
glyphname = uniE006;
layers = (
{
layerId = "ED8FB365-A02F-46D3-A65B-595A86BAB06C";
shapes = (
{
closed = 1;
nodes = (
(475,445,o),
(567,354,o),
(567,223,cs),
(567,84,o),
(467,-8,o),
(329,-8,cs),
(232,-8,o),
(155,34,o),
(110,121,cs),
(75,189,o),
(65,279,o),
(65,352,cs),
(65,452,o),
(90,572,o),
(165,645,cs),
(210,690,o),
(271,715,o),
(346,715,cs),
(439,715,o),
(521,667,o),
(557,579,c),
(487,579,l),
(459,630,o),
(400,656,o),
(344,656,cs),
(260,656,o),
(207,615,o),
(175,556,cs),
(139,489,o),
(130,401,o),
(130,330,c),
(170,405,o),
(255,445,o),
(340,445,cs)
);
},
{
closed = 1;
nodes = (
(501,312,o),
(435,385,o),
(335,385,cs),
(241,385,o),
(153,314,o),
(156,218,cs),
(159,122,o),
(237,51,o),
(330,51,cs),
(422,51,o),
(501,118,o),
(501,214,cs)
);
}
);
width = 671;
}
);
unicode = 57350;
},
{
glyphname = uniE007;
layers = (
{
layerId = "ED8FB365-A02F-46D3-A65B-595A86BAB06C";
shapes = (
{
closed = 1;
nodes = (
(221,0,l),
(516,647,l),
(126,647,l),
(126,707,l),
(586,707,l),
(586,646,l),
(295,0,l)
);
}
);
width = 671;
}
);
unicode = 57351;
},
{
glyphname = uniE008;
layers = (
{
layerId = "ED8FB365-A02F-46D3-A65B-595A86BAB06C";
shapes = (
{
closed = 1;
nodes = (
(583,48,o),
(465,-8,o),
(337,-8,cs),
(208,-8,o),
(92,45,o),
(92,192,cs),
(92,278,o),
(151,339,o),
(226,363,c),
(154,386,o),
(114,452,o),
(114,532,cs),
(114,661,o),
(224,715,o),
(338,715,cs),
(451,715,o),
(562,661,o),
(562,532,cs),
(562,452,o),
(517,389,o),
(448,366,c),
(528,343,o),
(583,280,o),
(583,192,cs)
);
},
{
closed = 1;
nodes = (
(250,656,o),
(182,617,o),
(182,521,cs),
(182,428,o),
(254,388,o),
(338,388,cs),
(414,388,o),
(494,430,o),
(494,517,cs),
(494,616,o),
(429,656,o),
(338,656,cs)
);
},
{
closed = 1;
nodes = (
(250,331,o),
(159,294,o),
(159,191,cs),
(159,86,o),
(248,51,o),
(338,51,cs),
(428,51,o),
(515,86,o),
(515,191,cs),
(515,294,o),
(425,331,o),
(338,331,cs)
);
}
);
width = 671;
}
);
unicode = 57352;
},
{
glyphname = uniE009;
layers = (
{
layerId = "ED8FB365-A02F-46D3-A65B-595A86BAB06C";
shapes = (
{
closed = 1;
nodes = (
(196,265,o),
(102,353,o),
(102,485,cs),
(102,626,o),
(200,715,o),
(339,715,cs),
(431,715,o),
(500,675,o),
(547,596,cs),
(589,526,o),
(601,427,o),
(601,353,cs),
(602,272,o),
(592,180,o),
(551,108,cs),
(504,24,o),
(427,-8,o),
(332,-8,cs),
(238,-8,o),
(142,31,o),
(112,128,c),
(186,128,l),
(214,75,o),
(273,51,o),
(334,51,cs),
(418,51,o),
(476,90,o),
(508,167,cs),
(532,224,o),
(538,294,o),
(538,355,cs),
(538,364,o),
(537,378,o),
(537,387,c),
(526,355,o),
(503,327,o),
(476,307,cs),
(433,276,o),
(377,264,o),
(324,264,cs)
);
},
{
closed = 1;
nodes = (
(167,389,o),
(232,325,o),
(336,325,cs),
(427,325,o),
(507,388,o),
(507,483,cs),
(507,582,o),
(437,656,o),
(337,656,cs),
(244,656,o),
(167,588,o),
(167,493,cs)
);
}
);
width = 671;
}
);
unicode = 57353;
},
{
glyphname = arrowright;
layers = (
{
layerId = "ED8FB365-A02F-46D3-A65B-595A86BAB06C";
shapes = (
{
closed = 1;
nodes = (
(20,305,l),
(20,363,l),
(574,363,l),
(314,581,l),
(352,624,l),
(688,334,l),
(352,43,l),
(314,87,l),
(574,305,l)
);
}
);
width = 709;
}
);
unicode = 8594;
},
{
glyphname = arrowleft;
layers = (
{
layerId = "ED8FB365-A02F-46D3-A65B-595A86BAB06C";
shapes = (
{
closed = 1;
nodes = (
(688,363,l),
(688,305,l),
(134,305,l),
(394,87,l),
(356,44,l),
(20,334,l),
(356,625,l),
(394,581,l),
(134,363,l)
);
}
);
width = 709;
}
);
unicode = 8592;
},
{
glyphname = uni2197;
layers = (
{
layerId = "ED8FB365-A02F-46D3-A65B-595A86BAB06C";
shapes = (
{
closed = 1;
nodes = (
(138,77,l),
(97,118,l),
(489,510,l),
(151,480,l),
(148,538,l),
(590,570,l),
(558,127,l),
(500,131,l),
(530,469,l)
);
}
);
width = 709;
}
);
unicode = 8599;
},
{
glyphname = uni2196;
layers = (
{
layerId = "ED8FB365-A02F-46D3-A65B-595A86BAB06C";
shapes = (
{
closed = 1;
nodes = (
(611,118,l),
(570,77,l),
(178,469,l),
(208,131,l),
(150,128,l),
(118,570,l),
(561,538,l),
(557,480,l),
(219,510,l)
);
}
);
width = 709;
}
);
unicode = 8598;
},
{
glyphname = uni2198;
layers = (
{
layerId = "ED8FB365-A02F-46D3-A65B-595A86BAB06C";
shapes = (
{
closed = 1;
nodes = (
(97,550,l),
(138,591,l),
(530,199,l),
(500,537,l),
(558,540,l),
(590,98,l),
(147,130,l),
(151,188,l),
(489,158,l)
);
}
);
width = 709;
}
);
unicode = 8600;
},
{
glyphname = uni2199;
layers = (
{
layerId = "ED8FB365-A02F-46D3-A65B-595A86BAB06C";
shapes = (
{
closed = 1;
nodes = (
(570,591,l),
(611,550,l),
(219,158,l),
(557,188,l),
(560,130,l),
(118,98,l),
(150,541,l),
(208,537,l),
(178,199,l)
);
}
);
width = 709;
}
);
unicode = 8601;
},
{
glyphname = uniE010;
layers = (
{
layerId = "ED8FB365-A02F-46D3-A65B-595A86BAB06C";
shapes = (
{
closed = 1;
nodes = (
(157,94,o),
(176,73,o),
(176,44,cs),
(176,15,o),
(157,-8,o),
(126,-8,cs),
(95,-8,o),
(75,15,o),
(75,44,cs),
(75,73,o),
(95,94,o),
(126,94,cs)
);
}
);
width = 251;
}
);
unicode = 57360;
},
{
glyphname = uniE011;
layers = (
{
layerId = "ED8FB365-A02F-46D3-A65B-595A86BAB06C";
shapes = (
{
closed = 1;
nodes = (
(161,93,o),
(175,63,o),
(175,27,cs),
(175,-33,o),
(141,-95,o),
(84,-119,c),
(68,-93,l),
(97,-74,o),
(117,-47,o),
(124,-8,c),
(89,-11,o),
(70,11,o),
(70,44,cs),
(70,73,o),
(91,94,o),
(122,94,cs)
);
}
);
width = 252;
}
);
unicode = 57361;
},
{
glyphname = uniE012;
layers = (
{
layerId = "ED8FB365-A02F-46D3-A65B-595A86BAB06C";
shapes = (
{
closed = 1;
nodes = (
(157,459,o),
(176,437,o),
(176,408,cs),
(176,379,o),
(157,356,o),
(126,356,cs),
(95,356,o),
(75,379,o),
(75,408,cs),
(75,437,o),
(95,459,o),
(126,459,cs)
);
},
{
closed = 1;
nodes = (
(157,94,o),
(176,73,o),
(176,44,cs),
(176,15,o),
(157,-8,o),
(126,-8,cs),
(95,-8,o),
(75,15,o),
(75,44,cs),
(75,73,o),
(95,94,o),
(126,94,cs)
);
}
);
width = 251;
}
);
unicode = 57362;
},
{
glyphname = uniE013;
layers = (
{
layerId = "ED8FB365-A02F-46D3-A65B-595A86BAB06C";
shapes = (
{
closed = 1;
nodes = (
(155,459,o),
(175,437,o),
(175,408,cs),
(175,379,o),
(156,356,o),
(124,356,cs),
(93,356,o),
(74,379,o),
(74,408,cs),
(74,437,o),
(93,459,o),
(124,459,cs)
);
},
{
closed = 1;
nodes = (
(162,93,o),
(176,63,o),
(176,27,cs),
(176,-33,o),
(142,-95,o),
(85,-119,c),
(69,-93,l),
(98,-74,o),
(118,-47,o),
(125,-8,c),
(90,-11,o),
(71,11,o),
(71,44,cs),
(71,73,o),
(92,94,o),
(123,94,cs)
);
}
);
width = 252;
}
);
unicode = 57363;
},
{
glyphname = uniE014;
layers = (
{
layerId = "ED8FB365-A02F-46D3-A65B-595A86BAB06C";
shapes = (
{
closed = 1;
nodes = (
(146,486,l),
(100,486,l),
(91,707,l),
(156,707,l)
);
}
);
width = 247;
}
);
unicode = 57364;
},
{
glyphname = uniE015;
layers = (
{
layerId = "ED8FB365-A02F-46D3-A65B-595A86BAB06C";
shapes = (
{
closed = 1;
nodes = (
(106,486,l),
(60,486,l),
(50,707,l),
(115,707,l)
);
},
{
closed = 1;
nodes = (
(248,486,l),
(202,486,l),
(192,707,l),
(257,707,l)
);
}
);
width = 307;
}
);
unicode = 57365;
},
{
glyphname = uniE016;
layers = (
{
layerId = "ED8FB365-A02F-46D3-A65B-595A86BAB06C";
shapes = (
{
closed = 1;
nodes = (
(161,731,o),
(175,696,o),
(175,665,cs),
(175,605,o),
(141,543,o),
(84,518,c),
(68,544,l),
(97,564,o),
(117,591,o),
(124,630,c),
(89,627,o),
(70,649,o),
(70,681,cs),
(70,710,o),
(91,732,o),
(122,732,cs)
);
}
);
width = 252;
}
);
unicode = 57366;
},
{
glyphname = uniE017;
layers = (
{
layerId = "ED8FB365-A02F-46D3-A65B-595A86BAB06C";
shapes = (
{
closed = 1;
nodes = (
(115,731,o),
(129,698,o),
(129,665,cs),
(129,605,o),
(95,543,o),
(38,518,c),
(22,544,l),
(51,564,o),
(71,591,o),
(78,630,c),
(43,627,o),
(24,649,o),
(24,681,cs),
(24,710,o),
(45,732,o),
(76,732,cs)
);
},
{
closed = 1;
nodes = (
(299,731,o),
(313,698,o),
(313,665,cs),
(313,605,o),
(278,543,o),
(222,518,c),
(206,544,l),
(234,564,o),
(255,591,o),
(262,630,c),
(227,627,o),
(207,649,o),
(207,681,cs),
(207,710,o),
(229,732,o),
(260,732,cs)
);
}
);
width = 337;
}
);
unicode = 57367;
},
{
glyphname = uniE018;
layers = (
{
layerId = "ED8FB365-A02F-46D3-A65B-595A86BAB06C";
shapes = (
{
closed = 1;
nodes = (
(87,527,o),
(70,559,o),
(70,594,cs),
(70,653,o),
(106,716,o),
(161,740,c),
(177,714,l),
(149,695,o),
(129,668,o),
(122,629,c),
(155,632,o),
(176,610,o),
(176,578,cs),
(176,549,o),
(155,527,o),
(122,527,cs)
);
}
);
width = 252;
}
);
unicode = 57368;
},
{
glyphname = uniE019;
layers = (
{
layerId = "ED8FB365-A02F-46D3-A65B-595A86BAB06C";
shapes = (
{
closed = 1;
nodes = (
(221,527,o),
(207,561,o),
(207,594,cs),
(207,653,o),
(243,716,o),
(298,740,c),
(314,714,l),
(285,695,o),
(265,668,o),
(258,629,c),
(293,632,o),
(312,610,o),
(312,578,cs),
(312,549,o),
(291,527,o),
(260,527,cs)
);
},
{
closed = 1;
nodes = (
(37,527,o),
(23,561,o),
(23,594,cs),
(23,653,o),
(59,716,o),
(114,740,c),
(130,714,l),
(102,695,o),
(82,668,o),
(75,629,c),
(108,632,o),
(129,610,o),
(129,578,cs),
(129,549,o),
(107,527,o),
(76,527,cs)
);
}
);
width = 337;
}
);
unicode = 57369;
},
{
glyphname = uniE020;
layers = (
{
layerId = "ED8FB365-A02F-46D3-A65B-595A86BAB06C";
shapes = (
{
closed = 1;
nodes = (
(157,94,o),
(175,61,o),
(175,29,cs),
(175,-34,o),
(141,-95,o),
(84,-119,c),
(68,-93,l),
(97,-74,o),
(117,-47,o),
(124,-8,c),
(89,-11,o),
(70,11,o),
(70,44,cs),
(70,73,o),
(93,94,o),
(122,94,cs)
);
}
);
width = 252;
}
);
unicode = 57376;
},
{
glyphname = uniE021;
layers = (
{
layerId = "ED8FB365-A02F-46D3-A65B-595A86BAB06C";
shapes = (
{
closed = 1;
nodes = (
(111,94,o),
(129,61,o),
(129,29,cs),
(129,-34,o),
(95,-95,o),
(38,-119,c),
(22,-93,l),
(51,-74,o),
(71,-47,o),
(78,-8,c),
(43,-11,o),
(24,11,o),
(24,44,cs),
(24,73,o),
(47,94,o),
(76,94,cs)
);
},
{
closed = 1;
nodes = (
(294,94,o),
(312,61,o),
(312,29,cs),
(312,-34,o),
(278,-95,o),
(221,-119,c),
(205,-93,l),
(234,-74,o),
(254,-47,o),
(261,-8,c),
(226,-11,o),
(207,11,o),
(207,44,cs),
(207,73,o),
(230,94,o),
(259,94,cs)
);
}
);
width = 336;
}
);
unicode = 57377;
},
{
glyphname = uniE022;
layers = (
{
layerId = "ED8FB365-A02F-46D3-A65B-595A86BAB06C";
shapes = (
{
closed = 1;
nodes = (
(157,577,o),
(176,555,o),
(176,526,cs),
(176,497,o),
(157,474,o),
(126,474,cs),
(95,474,o),
(75,497,o),
(75,526,cs),
(75,555,o),
(95,577,o),
(126,577,cs)
);
},
{
closed = 1;
nodes = (
(157,212,o),
(176,191,o),
(176,162,cs),
(176,133,o),
(157,110,o),
(126,110,cs),
(95,110,o),
(75,133,o),
(75,162,cs),
(75,191,o),
(95,212,o),
(126,212,cs)
);
}
);
width = 251;
}
);
unicode = 57378;
},
{
glyphname = paragraph;
layers = (
{
associatedMasterId = "ED8FB365-A02F-46D3-A65B-595A86BAB06C";
layerId = "6663C206-CE18-4A3D-86E3-5F35C28711DA";
name = img;
width = 562;
},
{
layerId = "ED8FB365-A02F-46D3-A65B-595A86BAB06C";
shapes = (
{
closed = 1;
nodes = (
(450,647,l),
(450,0,l),
(385,0,l),
(385,647,l),
(291,647,l),
(291,0,l),
(226,0,l),
(226,400,l),
(182,400,ls),
(111,400,o),
(30,437,o),
(30,555,cs),
(30,658,o),
(107,707,o),
(187,707,cs),
(532,707,l),
(532,647,l)
);
}
);
width = 562;
}
);
unicode = 182;
},
{
glyphname = ordfeminine;
layers = (
{
associatedMasterId = "ED8FB365-A02F-46D3-A65B-595A86BAB06C";
layerId = "6663C206-CE18-4A3D-86E3-5F35C28711DA";
name = img;
width = 362;
},
{
layerId = "ED8FB365-A02F-46D3-A65B-595A86BAB06C";
shapes = (
{
closed = 1;
nodes = (
(259,424,l),
(253,461,l),
(231,435,o),
(199,421,o),
(158,421,cs),
(104,420,o),
(55,447,o),
(55,507,cs),
(55,574,o),
(109,593,o),
(167,593,cs),
(250,593,l),
(247,640,o),
(234,670,o),
(182,673,cs),
(157,674,o),
(129,668,o),
(118,641,c),
(66,641,l),
(81,697,o),
(127,718,o),
(182,718,cs),
(270,718,o),
(297,660,o),
(297,581,cs),
(297,424,l)
);
},
{
closed = 1;
nodes = (
(221,466,o),
(250,495,o),
(250,554,c),
(190,554,ls),
(157,554,o),
(103,556,o),
(103,511,cs),
(103,476,o),
(135,465,o),
(162,465,cs)
);
}
);
width = 362;
}
);
unicode = 170;
},
{
glyphname = hungarumlaut;
layers = (
{
layerId = "ED8FB365-A02F-46D3-A65B-595A86BAB06C";
shapes = (
{
closed = 1;
nodes = (
(223,769,l),
(291,769,l),
(192,628,l),
(137,628,l)
);
},
{
closed = 1;
nodes = (
(359,769,l),
(427,769,l),
(328,628,l),
(273,628,l)
);
}
);
width = 512;
}
);
unicode = 733;
},
{
glyphname = macron;
layers = (
{
associatedMasterId = "ED8FB365-A02F-46D3-A65B-595A86BAB06C";
layerId = "6663C206-CE18-4A3D-86E3-5F35C28711DA";
name = img;
width = 563;
},
{
layerId = "ED8FB365-A02F-46D3-A65B-595A86BAB06C";
shapes = (
{
closed = 1;
nodes = (
(122,707,l),
(441,707,l),
(441,652,l),
(122,652,l)
);
}
);
width = 563;
}
);
unicode = 175;
},
{
glyphname = periodcentered;
layers = (
{
associatedMasterId = "ED8FB365-A02F-46D3-A65B-595A86BAB06C";
layerId = "6663C206-CE18-4A3D-86E3-5F35C28711DA";
name = img;
width = 243;
},
{
layerId = "ED8FB365-A02F-46D3-A65B-595A86BAB06C";
shapes = (
{
closed = 1;
nodes = (
(151,402,o),
(171,385,o),
(171,354,cs),
(171,323,o),
(152,305,o),
(121,305,cs),
(90,305,o),
(72,323,o),
(72,354,cs),
(72,383,o),
(91,402,o),
(122,402,cs)
);
}
);
width = 243;
}
);
unicode = 183;
},
{
glyphname = exclamdown;
layers = (
{
associatedMasterId = "ED8FB365-A02F-46D3-A65B-595A86BAB06C";
layerId = "6663C206-CE18-4A3D-86E3-5F35C28711DA";
name = img;
width = 263;
},
{
layerId = "ED8FB365-A02F-46D3-A65B-595A86BAB06C";
shapes = (
{
closed = 1;
nodes = (
(102,432,o),
(82,454,o),
(82,482,cs),
(82,511,o),
(100,533,o),
(131,533,cs),
(162,533,o),
(181,513,o),
(181,482,cs),
(181,451,o),
(162,432,o),
(131,432,cs)
);
},
{
closed = 1;
nodes = (
(161,330,l),
(163,-182,l),
(99,-182,l),
(101,330,l)
);
}
);
width = 263;
}
);
unicode = 161;
},
{
glyphname = questiondown;
layers = (
{
associatedMasterId = "ED8FB365-A02F-46D3-A65B-595A86BAB06C";
layerId = "6663C206-CE18-4A3D-86E3-5F35C28711DA";
name = img;
width = 510;
},
{
layerId = "ED8FB365-A02F-46D3-A65B-595A86BAB06C";
shapes = (
{
closed = 1;
nodes = (
(248,431,o),
(228,450,o),
(228,481,cs),
(228,512,o),
(248,533,o),
(279,533,cs),
(310,533,o),
(329,512,o),
(329,481,cs),
(329,450,o),
(310,431,o),
(279,431,cs)
);
},
{
closed = 1;
nodes = (
(312,309,l),
(315,277,o),
(306,243,o),
(289,216,cs),
(261,173,o),
(221,142,o),
(186,107,cs),
(154,74,o),
(125,34,o),
(125,-14,cs),
(125,-91,o),
(187,-131,o),
(259,-131,cs),
(317,-131,o),
(381,-112,o),
(399,-49,c),
(467,-49,l),
(448,-148,o),
(350,-190,o),
(259,-190,cs),
(151,-190,o),
(60,-134,o),
(60,-18,cs),
(60,59,o),
(102,108,o),
(156,160,cs),
(178,180,o),
(199,202,o),
(218,225,cs),
(239,252,o),
(242,276,o),
(245,309,c)
);
}
);
width = 510;
}
);
unicode = 191;
},
{
glyphname = ordmasculine;
layers = (
{
associatedMasterId = "ED8FB365-A02F-46D3-A65B-595A86BAB06C";
layerId = "6663C206-CE18-4A3D-86E3-5F35C28711DA";
name = img;
width = 383;
},
{
layerId = "ED8FB365-A02F-46D3-A65B-595A86BAB06C";
shapes = (
{
closed = 1;
nodes = (
(318,486,o),
(279,421,o),
(191,421,cs),
(100,421,o),
(65,488,o),
(65,569,cs),
(65,650,o),
(100,718,o),
(191,718,cs),
(279,718,o),
(318,650,o),
(318,569,cs)
);
},
{
closed = 1;
nodes = (
(116,518,o),
(132,466,o),
(191,466,cs),
(250,466,o),
(266,518,o),
(266,569,cs),
(266,620,o),
(250,672,o),
(191,672,cs),
(132,672,o),
(116,620,o),
(116,569,cs)
);
}
);
width = 383;
}
);
unicode = 186;
},
{
glyphname = caron;
layers = (
{
layerId = "ED8FB365-A02F-46D3-A65B-595A86BAB06C";
shapes = (
{
closed = 1;
nodes = (
(265,676,l),
(343,769,l),
(408,769,l),
(285,628,l),
(244,628,l),
(121,769,l),
(185,769,l)
);
}
);
width = 529;
}
);
unicode = 711;
},
{
glyphname = dotaccent;
layers = (
{
layerId = "ED8FB365-A02F-46D3-A65B-595A86BAB06C";
shapes = (
{
closed = 1;
nodes = (
(315,717,o),
(335,698,o),
(335,669,cs),
(335,638,o),
(316,620,o),
(285,620,cs),
(254,620,o),
(236,638,o),
(236,669,cs),
(236,698,o),
(255,717,o),
(286,717,cs)
);
}
);
width = 571;
}
);
unicode = 729;
},
{
glyphname = tilde;
layers = (
{
layerId = "ED8FB365-A02F-46D3-A65B-595A86BAB06C";
shapes = (
{
closed = 1;
nodes = (
(445,740,l),
(445,676,o),
(421,619,o),
(347,619,cs),
(281,619,o),
(252,694,o),
(214,694,cs),
(178,694,o),
(174,649,o),
(174,622,c),
(118,622,l),
(115,689,o),
(141,743,o),
(215,743,cs),
(280,743,o),
(308,667,o),
(348,667,cs),
(385,667,o),
(388,712,o),
(388,740,c)
);
}
);
width = 562;
}
);
unicode = 732;
},
{
glyphname = ogonek;
layers = (
{
layerId = "ED8FB365-A02F-46D3-A65B-595A86BAB06C";
shapes = (
{
closed = 1;
nodes = (
(349,-201,l),
(328,-212,o),
(308,-215,o),
(285,-215,cs),
(218,-215,o),
(165,-182,o),
(165,-110,cs),
(165,-54,o),
(205,-12,o),
(254,7,c),
(295,0,l),
(259,-23,o),
(224,-58,o),
(224,-101,cs),
(224,-144,o),
(254,-166,o),
(295,-167,cs),
(310,-167,o),
(325,-165,o),
(338,-158,c)
);
}
);
width = 514;
}
);
unicode = 731;
},
{
glyphname = ring;
layers = (
{
layerId = "ED8FB365-A02F-46D3-A65B-595A86BAB06C";
shapes = (
{
closed = 1;
nodes = (
(316,646,o),
(334,666,o),
(334,697,cs),
(334,728,o),
(316,749,o),
(284,749,cs),
(253,749,o),
(235,728,o),
(235,697,cs),
(235,666,o),
(253,646,o),
(284,646,cs)
);
},
{
closed = 1;
nodes = (
(342,791,o),
(379,752,o),
(379,696,cs),
(379,640,o),
(340,606,o),
(284,606,cs),
(228,606,o),
(191,640,o),
(191,696,cs),
(191,752,o),
(229,791,o),
(285,791,cs)
);
}
);
width = 570;
}
);
unicode = 730;
},
{
glyphname = gravecomb;
layers = (
{
associatedMasterId = "ED8FB365-A02F-46D3-A65B-595A86BAB06C";
layerId = "6663C206-CE18-4A3D-86E3-5F35C28711DA";
name = img;
width = -4;
},
{
layerId = "ED8FB365-A02F-46D3-A65B-595A86BAB06C";
shapes = (
{
closed = 1;
nodes = (
(-312,769,l),
(-228,628,l),
(-283,628,l),
(-380,769,l)
);
}
);
width = 0;
}
);
unicode = 768;
},
{
glyphname = acutecomb;
layers = (
{
associatedMasterId = "ED8FB365-A02F-46D3-A65B-595A86BAB06C";
layerId = "6663C206-CE18-4A3D-86E3-5F35C28711DA";
name = img;
width = 0;
},
{
layerId = "ED8FB365-A02F-46D3-A65B-595A86BAB06C";
shapes = (
{
closed = 1;
nodes = (
(-254,769,l),
(-186,769,l),
(-285,628,l),
(-340,628,l)
);
}
);
width = 0;
}
);
unicode = 769;
},
{
glyphname = uni0302;
layers = (
{
associatedMasterId = "ED8FB365-A02F-46D3-A65B-595A86BAB06C";
layerId = "6663C206-CE18-4A3D-86E3-5F35C28711DA";
name = img;
width = 0;
},
{
layerId = "ED8FB365-A02F-46D3-A65B-595A86BAB06C";
shapes = (
{
closed = 1;
nodes = (
(-282,721,l),
(-360,628,l),
(-425,628,l),
(-302,769,l),
(-261,769,l),
(-138,628,l),
(-202,628,l)
);
}
);
width = 0;
}
);
unicode = 770;
},
{
glyphname = tildecomb;
layers = (
{
associatedMasterId = "ED8FB365-A02F-46D3-A65B-595A86BAB06C";
layerId = "6663C206-CE18-4A3D-86E3-5F35C28711DA";
name = img;
width = 0;
},
{
layerId = "ED8FB365-A02F-46D3-A65B-595A86BAB06C";
shapes = (
{
closed = 1;
nodes = (
(-112,740,l),
(-112,676,o),
(-136,619,o),
(-210,619,cs),
(-276,619,o),
(-305,694,o),
(-343,694,cs),
(-379,694,o),
(-383,649,o),
(-383,622,c),
(-439,622,l),
(-442,689,o),
(-416,743,o),
(-342,743,cs),
(-277,743,o),
(-249,667,o),
(-209,667,cs),
(-172,667,o),
(-169,712,o),
(-169,740,c)
);
}
);
width = 0;
}
);
unicode = 771;
},
{
glyphname = uni0304;
layers = (
{
associatedMasterId = "ED8FB365-A02F-46D3-A65B-595A86BAB06C";
layerId = "6663C206-CE18-4A3D-86E3-5F35C28711DA";
name = img;
width = 0;
},
{
layerId = "ED8FB365-A02F-46D3-A65B-595A86BAB06C";
shapes = (
{
closed = 1;
nodes = (
(-442,707,l),
(-123,707,l),
(-123,652,l),
(-442,652,l)
);
}
);
width = 0;
}
);
unicode = 772;
},
{
glyphname = uni0306;
layers = (
{
associatedMasterId = "ED8FB365-A02F-46D3-A65B-595A86BAB06C";
layerId = "6663C206-CE18-4A3D-86E3-5F35C28711DA";
name = img;
width = 0;
},
{
layerId = "ED8FB365-A02F-46D3-A65B-595A86BAB06C";
shapes = (
{
closed = 1;
nodes = (
(-234,668,o),
(-193,681,o),
(-185,740,c),
(-125,740,l),
(-133,647,o),
(-204,618,o),
(-286,618,cs),
(-370,618,o),
(-437,647,o),
(-445,740,c),
(-385,740,l),
(-377,681,o),
(-337,668,o),
(-285,668,cs)
);
}
);
width = 0;
}
);
unicode = 774;
},
{
glyphname = uni0307;
layers = (
{
associatedMasterId = "ED8FB365-A02F-46D3-A65B-595A86BAB06C";
layerId = "6663C206-CE18-4A3D-86E3-5F35C28711DA";
name = img;
width = 0;
},
{
layerId = "ED8FB365-A02F-46D3-A65B-595A86BAB06C";
shapes = (
{
closed = 1;
nodes = (
(-261,717,o),
(-241,698,o),
(-241,669,cs),
(-241,638,o),
(-260,620,o),
(-291,620,cs),
(-322,620,o),
(-340,638,o),
(-340,669,cs),
(-340,698,o),
(-321,717,o),
(-290,717,cs)
);
}
);
width = 0;
}
);
unicode = 775;
},
{
glyphname = uni0308;
layers = (
{
associatedMasterId = "ED8FB365-A02F-46D3-A65B-595A86BAB06C";
layerId = "6663C206-CE18-4A3D-86E3-5F35C28711DA";
name = img;
width = 0;
},
{
layerId = "ED8FB365-A02F-46D3-A65B-595A86BAB06C";
shapes = (
{
closed = 1;
nodes = (
(-365,717,o),
(-342,697,o),
(-342,669,cs),
(-342,641,o),
(-365,621,o),
(-392,621,cs),
(-419,621,o),
(-441,642,o),
(-441,669,cs),
(-441,696,o),
(-419,717,o),
(-392,717,cs)
);
},
{
closed = 1;
nodes = (
(-139,717,o),
(-116,697,o),
(-116,669,cs),
(-116,641,o),
(-139,621,o),
(-166,621,cs),
(-193,621,o),
(-214,642,o),
(-214,669,cs),
(-214,696,o),
(-193,717,o),
(-166,717,cs)
);
}
);
width = 0;
}
);
unicode = 776;
},
{
glyphname = uni030A;
layers = (
{
associatedMasterId = "ED8FB365-A02F-46D3-A65B-595A86BAB06C";
layerId = "6663C206-CE18-4A3D-86E3-5F35C28711DA";
name = img;
width = 0;
},
{
layerId = "ED8FB365-A02F-46D3-A65B-595A86BAB06C";
shapes = (
{
closed = 1;
nodes = (
(-255,646,o),
(-237,666,o),
(-237,697,cs),
(-237,728,o),
(-255,749,o),
(-287,749,cs),
(-318,749,o),
(-336,728,o),
(-336,697,cs),
(-336,666,o),
(-318,646,o),
(-287,646,cs)
);
},
{
closed = 1;
nodes = (
(-229,791,o),
(-192,752,o),
(-192,696,cs),
(-192,640,o),
(-231,606,o),
(-287,606,cs),
(-343,606,o),
(-380,640,o),
(-380,696,cs),
(-380,752,o),
(-342,791,o),
(-286,791,cs)
);
}
);
width = 0;
}
);
unicode = 778;
},
{
glyphname = uni030B;
layers = (
{
associatedMasterId = "ED8FB365-A02F-46D3-A65B-595A86BAB06C";
layerId = "6663C206-CE18-4A3D-86E3-5F35C28711DA";
name = img;
width = 0;
},
{
layerId = "ED8FB365-A02F-46D3-A65B-595A86BAB06C";
shapes = (
{
closed = 1;
nodes = (
(-304,769,l),
(-236,769,l),
(-335,628,l),
(-390,628,l)
);
},
{
closed = 1;
nodes = (
(-168,769,l),
(-100,769,l),
(-199,628,l),
(-254,628,l)
);
}
);
width = 0;
}
);
unicode = 779;
},
{
glyphname = uni030C;
layers = (
{
associatedMasterId = "ED8FB365-A02F-46D3-A65B-595A86BAB06C";
layerId = "6663C206-CE18-4A3D-86E3-5F35C28711DA";
name = img;
width = 0;
},
{
layerId = "ED8FB365-A02F-46D3-A65B-595A86BAB06C";
shapes = (
{
closed = 1;
nodes = (
(-286,676,l),
(-208,769,l),
(-143,769,l),
(-266,628,l),
(-307,628,l),
(-430,769,l),
(-366,769,l)
);
}
);
width = 0;
}
);
unicode = 780;
},
{
glyphname = uni0312;
layers = (
{
associatedMasterId = "ED8FB365-A02F-46D3-A65B-595A86BAB06C";
layerId = "6663C206-CE18-4A3D-86E3-5F35C28711DA";
name = img;
width = 0;
},
{
layerId = "ED8FB365-A02F-46D3-A65B-595A86BAB06C";
shapes = (
{
closed = 1;
nodes = (
(-322,615,o),
(-339,647,o),
(-339,682,cs),
(-339,741,o),
(-303,804,o),
(-248,828,c),
(-232,802,l),
(-260,783,o),
(-280,756,o),
(-287,717,c),
(-254,720,o),
(-233,698,o),
(-233,666,cs),
(-233,637,o),
(-254,615,o),
(-287,615,cs)
);
}
);
width = 0;
}
);
unicode = 786;
},
{
glyphname = uni0327;
layers = (
{
associatedMasterId = "ED8FB365-A02F-46D3-A65B-595A86BAB06C";
layerId = "6663C206-CE18-4A3D-86E3-5F35C28711DA";
name = img;
width = 0;
},
{
layerId = "ED8FB365-A02F-46D3-A65B-595A86BAB06C";
shapes = (
{
closed = 1;
nodes = (
(-286,-80,l),
(-256,-75,o),
(-230,-77,o),
(-209,-89,cs),
(-188,-101,o),
(-177,-125,o),
(-177,-157,cs),
(-177,-248,o),
(-268,-273,o),
(-342,-262,c),
(-342,-222,l),
(-319,-225,o),
(-291,-223,o),
(-268,-215,cs),
(-245,-207,o),
(-227,-192,o),
(-228,-159,cs),
(-228,-130,o),
(-248,-117,o),
(-279,-117,cs),
(-296,-117,o),
(-323,-120,o),
(-339,-124,c),
(-307,7,l),
(-264,7,l)
);
}
);
width = 0;
}
);
unicode = 807;
},
{
glyphname = uni0328;
layers = (
{
associatedMasterId = "ED8FB365-A02F-46D3-A65B-595A86BAB06C";
layerId = "6663C206-CE18-4A3D-86E3-5F35C28711DA";
name = img;
width = 0;
},
{
layerId = "ED8FB365-A02F-46D3-A65B-595A86BAB06C";
shapes = (
{
closed = 1;
nodes = (
(-31,-201,l),
(-52,-212,o),
(-72,-215,o),
(-95,-215,cs),
(-162,-215,o),
(-215,-182,o),
(-215,-110,cs),
(-215,-54,o),
(-175,-12,o),
(-126,7,c),
(-85,0,l),
(-121,-23,o),
(-156,-58,o),
(-156,-101,cs),
(-156,-144,o),
(-126,-166,o),
(-85,-167,cs),
(-70,-167,o),
(-55,-165,o),
(-42,-158,c)
);
}
);
width = 0;
}
);
unicode = 808;
},
{
glyphname = AE;
layers = (
{
associatedMasterId = "ED8FB365-A02F-46D3-A65B-595A86BAB06C";
layerId = "6663C206-CE18-4A3D-86E3-5F35C28711DA";
name = img;
width = 913;
},
{
layerId = "ED8FB365-A02F-46D3-A65B-595A86BAB06C";
shapes = (
{
closed = 1;
nodes = (
(433,157,l),
(173,157,l),
(92,0,l),
(15,0,l),
(388,707,l),
(860,707,l),
(860,647,l),
(498,647,l),
(498,381,l),
(820,381,l),
(820,321,l),
(498,321,l),
(498,60,l),
(860,60,l),
(860,0,l),
(433,0,l)
);
},
{
closed = 1;
nodes = (
(204,217,l),
(433,217,l),
(433,647,l),
(427,647,l)
);
}
);
width = 913;
}
);
unicode = 198;
},
{
glyphname = Oslash;
kernLeft = _kern3;
kernRight = _kern4;
layers = (
{
associatedMasterId = "ED8FB365-A02F-46D3-A65B-595A86BAB06C";
layerId = "6663C206-CE18-4A3D-86E3-5F35C28711DA";
name = img;
width = 767;
},
{
layerId = "ED8FB365-A02F-46D3-A65B-595A86BAB06C";
shapes = (
{
closed = 1;
nodes = (
(470,644,l),
(444,652,o),
(415,656,o),
(384,656,cs),
(204,656,o),
(119,518,o),
(119,353,cs),
(119,254,o),
(151,148,o),
(238,92,c)
);
},
{
closed = 1;
nodes = (
(297,63,l),
(323,55,o),
(352,51,o),
(384,51,cs),
(564,51,o),
(647,185,o),
(647,353,cs),
(647,452,o),
(614,557,o),
(529,616,c)
);
},
{
closed = 1;
nodes = (
(343,-8,o),
(306,-3,o),
(273,7,c),
(225,-110,l),
(154,-110,l),
(213,32,l),
(95,96,o),
(53,226,o),
(53,353,cs),
(53,560,o),
(165,715,o),
(384,715,cs),
(423,715,o),
(460,710,o),
(493,700,c),
(542,816,l),
(613,816,l),
(553,674,l),
(670,610,o),
(714,480,o),
(714,353,cs),
(714,146,o),
(601,-8,o),
(384,-8,cs)
);
}
);
width = 767;
}
);
unicode = 216;
},
{
glyphname = ae;
layers = (
{
associatedMasterId = "ED8FB365-A02F-46D3-A65B-595A86BAB06C";
layerId = "6663C206-CE18-4A3D-86E3-5F35C28711DA";
name = img;
width = 952;
},
{
layerId = "ED8FB365-A02F-46D3-A65B-595A86BAB06C";
shapes = (
{
closed = 1;
nodes = (
(154,-6,o),
(54,37,o),
(54,148,cs),
(54,267,o),
(150,297,o),
(254,297,cs),
(428,297,l),
(428,395,o),
(390,477,o),
(282,477,cs),
(230,477,o),
(176,463,o),
(152,414,c),
(80,414,l),
(104,503,o),
(201,533,o),
(284,533,cs),
(364,533,o),
(437,497,o),
(468,421,c),
(509,497,o),
(592,533,o),
(676,533,cs),
(842,533,o),
(906,389,o),
(901,242,c),
(493,242,l),
(498,129,o),
(560,50,o),
(678,50,cs),
(733,50,o),
(798,69,o),
(822,124,c),
(891,124,l),
(861,30,o),
(766,-6,o),
(675,-6,cs),
(593,-6,o),
(507,22,o),
(462,101,c),
(417,22,o),
(338,-6,o),
(251,-6,cs)
);
},
{
closed = 1;
nodes = (
(834,297,l),
(831,398,o),
(775,477,o),
(668,477,cs),
(563,477,o),
(499,397,o),
(494,297,c)
);
},
{
closed = 1;
nodes = (
(288,242,ls),
(219,242,o),
(120,244,o),
(120,152,cs),
(120,81,o),
(183,49,o),
(247,49,cs),
(351,49,o),
(427,102,o),
(427,214,cs),
(427,242,l)
);
}
);
width = 952;
}
);
unicode = 230;
},
{
glyphname = oslash;
kernLeft = _kern5;
kernRight = _kern6;
layers = (
{
associatedMasterId = "ED8FB365-A02F-46D3-A65B-595A86BAB06C";
layerId = "6663C206-CE18-4A3D-86E3-5F35C28711DA";
name = img;
width = 603;
},
{
layerId = "ED8FB365-A02F-46D3-A65B-595A86BAB06C";
shapes = (
{
closed = 1;
nodes = (
(372,465,l),
(351,473,o),
(327,477,o),
(301,477,cs),
(172,477,o),
(117,380,o),
(117,263,cs),
(117,203,o),
(130,137,o),
(177,94,c)
);
},
{
closed = 1;
nodes = (
(230,61,l),
(252,54,o),
(276,50,o),
(301,50,cs),
(430,50,o),
(485,144,o),
(485,263,cs),
(485,323,o),
(472,388,o),
(425,431,c)
);
},
{
closed = 1;
nodes = (
(339,533,o),
(372,528,o),
(399,517,c),
(453,618,l),
(524,618,l),
(455,487,l),
(524,435,o),
(551,348,o),
(551,263,cs),
(551,106,o),
(465,-6,o),
(301,-6,cs),
(264,-6,o),
(231,-1,o),
(203,10,c),
(150,-91,l),
(79,-91,l),
(148,39,l),
(76,91,o),
(52,176,o),
(52,263,cs),
(52,420,o),
(136,533,o),
(301,533,cs)
);
}
);
width = 603;
}
);
unicode = 248;
},
{
glyphname = germandbls;
kernLeft = _kern1;
layers = (
{
associatedMasterId = "ED8FB365-A02F-46D3-A65B-595A86BAB06C";
layerId = "6663C206-CE18-4A3D-86E3-5F35C28711DA";
name = img;
width = 598;
},
{
layerId = "ED8FB365-A02F-46D3-A65B-595A86BAB06C";
shapes = (
{
closed = 1;
nodes = (
(72,0,l),
(72,549,ls),
(72,672,o),
(137,738,o),
(261,738,cs),
(346,738,o),
(431,690,o),
(431,597,cs),
(431,546,o),
(404,510,o),
(374,470,cs),
(353,443,o),
(315,402,o),
(315,364,cs),
(315,315,o),
(363,302,o),
(403,290,cs),
(423,284,o),
(441,278,o),
(453,274,cs),
(516,251,o),
(554,215,o),
(554,147,cs),
(554,40,o),
(480,-6,o),
(381,-6,cs),
(293,-6,o),
(228,38,o),
(212,127,c),
(280,127,l),
(293,75,o),
(333,50,o),
(385,50,cs),
(442,49,o),
(487,75,o),
(487,138,cs),
(487,186,o),
(459,209,o),
(419,224,cs),
(388,235,o),
(357,242,o),
(326,255,cs),
(279,274,o),
(251,305,o),
(251,364,cs),
(251,411,o),
(284,447,o),
(313,486,cs),
(338,518,o),
(361,550,o),
(361,594,cs),
(361,651,o),
(309,681,o),
(254,681,cs),
(179,681,o),
(138,629,o),
(138,560,cs),
(138,0,l)
);
}
);
width = 598;
}
);
unicode = 223;
},
{
glyphname = uni1E9E;
layers = (
{
layerId = "ED8FB365-A02F-46D3-A65B-595A86BAB06C";
shapes = (
{
closed = 1;
nodes = (
(87,0,l),
(87,526,ls),
(87,651,o),
(183,715,o),
(315,715,cs),
(407,715,o),
(509,668,o),
(525,577,c),
(369,379,l),
(425,355,o),
(486,328,o),
(535,296,cs),
(586,263,o),
(623,217,o),
(623,146,cs),
(623,49,o),
(545,-8,o),
(442,-8,cs),
(349,-8,o),
(264,38,o),
(248,123,c),
(318,123,l),
(333,71,o),
(385,51,o),
(445,51,cs),
(504,51,o),
(559,85,o),
(559,142,cs),
(559,215,o),
(482,263,o),
(402,298,cs),
(280,350,l),
(453,582,l),
(429,633,o),
(358,656,o),
(307,656,cs),
(216,656,o),
(151,604,o),
(151,520,cs),
(151,0,l)
);
}
);
width = 680;
}
);
unicode = 7838;
},
{
glyphname = Eth;
kernLeft = _kern1;
kernRight = _kern4;
layers = (
{
associatedMasterId = "ED8FB365-A02F-46D3-A65B-595A86BAB06C";
layerId = "6663C206-CE18-4A3D-86E3-5F35C28711DA";
name = img;
width = 724;
},
{
layerId = "ED8FB365-A02F-46D3-A65B-595A86BAB06C";
shapes = (
{
closed = 1;
nodes = (
(157,381,l),
(326,381,l),
(326,321,l),
(157,321,l),
(157,59,l),
(332,59,ls),
(409,59,o),
(483,81,o),
(535,141,cs),
(586,200,o),
(603,277,o),
(603,353,cs),
(603,428,o),
(587,504,o),
(538,563,cs),
(487,624,o),
(415,648,o),
(338,648,cs),
(157,648,l)
);
},
{
closed = 1;
nodes = (
(92,707,l),
(339,707,ls),
(434,707,o),
(523,681,o),
(587,609,cs),
(650,540,o),
(670,445,o),
(670,353,cs),
(670,261,o),
(649,169,o),
(586,98,cs),
(522,26,o),
(432,0,o),
(339,0,cs),
(92,0,l),
(92,321,l),
(7,321,l),
(7,381,l),
(92,381,l)
);
}
);
width = 724;
}
);
unicode = 208;
},
{
glyphname = OE;
kernLeft = _kern3;
layers = (
{
associatedMasterId = "ED8FB365-A02F-46D3-A65B-595A86BAB06C";
layerId = "6663C206-CE18-4A3D-86E3-5F35C28711DA";
name = img;
width = 1096;
},
{
layerId = "ED8FB365-A02F-46D3-A65B-595A86BAB06C";
shapes = (
{
closed = 1;
nodes = (
(578,707,l),
(1043,707,l),
(1043,647,l),
(643,647,l),
(643,381,l),
(1003,381,l),
(1003,321,l),
(643,321,l),
(643,60,l),
(1043,60,l),
(1043,0,l),
(578,0,l),
(578,67,l),
(527,15,o),
(457,-8,o),
(376,-8,cs),
(155,-8,o),
(53,146,o),
(53,353,cs),
(53,559,o),
(159,715,o),
(378,715,cs),
(458,715,o),
(529,692,o),
(578,643,c)
);
},
{
closed = 1;
nodes = (
(578,545,l),
(546,627,o),
(456,656,o),
(377,656,cs),
(198,656,o),
(120,519,o),
(120,355,cs),
(120,191,o),
(198,51,o),
(378,51,cs),
(460,51,o),
(546,82,o),
(578,163,c)
);
}
);
width = 1096;
}
);
unicode = 338;
},
{
glyphname = oe;
kernLeft = _kern5;
kernRight = _kern6;
layers = (
{
associatedMasterId = "ED8FB365-A02F-46D3-A65B-595A86BAB06C";
layerId = "6663C206-CE18-4A3D-86E3-5F35C28711DA";
name = img;
width = 1007;
},
{
layerId = "ED8FB365-A02F-46D3-A65B-595A86BAB06C";
shapes = (
{
closed = 1;
nodes = (
(548,242,l),
(553,129,o),
(615,50,o),
(733,50,cs),
(788,50,o),
(853,69,o),
(877,124,c),
(946,124,l),
(916,30,o),
(821,-6,o),
(730,-6,cs),
(622,-6,o),
(552,41,o),
(517,118,c),
(480,41,o),
(409,-6,o),
(301,-6,cs),
(136,-6,o),
(52,106,o),
(52,263,cs),
(52,420,o),
(136,533,o),
(301,533,cs),
(409,533,o),
(480,485,o),
(517,408,c),
(553,485,o),
(623,533,o),
(731,533,cs),
(895,533,o),
(961,391,o),
(956,242,c)
);
},
{
closed = 1;
nodes = (
(430,50,o),
(485,144,o),
(485,263,cs),
(485,380,o),
(428,477,o),
(301,477,cs),
(172,477,o),
(117,380,o),
(117,263,cs),
(117,144,o),
(172,50,o),
(301,50,cs)
);
},
{
closed = 1;
nodes = (
(889,297,l),
(886,398,o),
(830,477,o),
(723,477,cs),
(618,477,o),
(554,397,o),
(549,297,c)
);
}
);
width = 1007;
}
);
unicode = 339;
},
{
glyphname = Thorn;
kernLeft = _kern1;
layers = (
{
associatedMasterId = "ED8FB365-A02F-46D3-A65B-595A86BAB06C";
layerId = "6663C206-CE18-4A3D-86E3-5F35C28711DA";
name = img;
width = 626;
},
{
layerId = "ED8FB365-A02F-46D3-A65B-595A86BAB06C";
shapes = (
{
closed = 1;
nodes = (
(305,177,ls),
(424,177,o),
(505,225,o),
(505,352,cs),
(505,472,o),
(437,515,o),
(322,515,cs),
(157,515,l),
(157,177,l)
);
},
{
closed = 1;
nodes = (
(157,575,l),
(327,575,ls),
(480,575,o),
(572,507,o),
(572,348,cs),
(572,188,o),
(456,117,o),
(307,117,cs),
(157,117,l),
(157,0,l),
(92,0,l),
(92,707,l),
(157,707,l)
);
}
);
width = 626;
}
);
unicode = 222;
},
